{
DisplayStrings = (
"/alef-hb/bet-hb/gimel-hb/dalet-hb/he-hb/vav-hb/zayin-hb/het-hb/tet-hb/yod-hb/finalkaf-hb/kaf-hb/lamed-hb/finalmem-hb/mem-hb/finalnun-hb/nun-hb/samekh-hb/ayin-hb/finalpe-hb/pe-hb/finaltsadi-hb/tsadi-hb/qof-hb/resh-hb/shin-hb/tav-hb \012"
);
copyright = "Copyright (c) 2010 by Milena B Brandao. All rights reserved.";
customParameters = (
{
name = description;
value = "Copyright (c) 2010 by Milena B Brandao. All rights reserved.";
},
{
name = vendorID;
value = ssde;
}
);
date = "2011-11-14 20:41:36 +0000";
familyName = "Fredoka";
featurePrefixes = (
{
automatic = 1;
code = "languagesystem DFLT dflt;\012languagesystem latn dflt;\012languagesystem hebr dflt;\012";
name = Languagesystems;
}
);
features = (
{
code = "script latn;\012sub one by onesuperior;\012sub two by twosuperior;\012sub three by threesuperior;\012";
name = sups;
},
{
code = "script latn;\012sub one slash two by onehalf;\012sub one slash four by onequarter;\012sub three slash four by threequarters;\012sub zero slash zero zero by perthousand;\012sub zero slash zero by percent;\012";
name = frac;
},
{
code = "script latn;\012sub j j by j_j;\012sub t t by t_t;\012sub f f i by f_f_i;\012sub f t by f_t;\012sub f f by f_f;\012sub f i by fi;\012sub f l by fl;\012sub l l by l_l;\012";
name = liga;
},
{
automatic = 1;
code = "feature sups;\012feature frac;\012feature ordn;\012";
name = aalt;
},
{
automatic = 1;
code = "sub [zero one two three four five six seven eight nine] [A a]' by ordfeminine;\012sub [zero one two three four five six seven eight nine] [O o]' by ordmasculine;\012";
name = ordn;
},
{
automatic = 1;
code = "sub f t by f_t;\012sub j j by j_j;\012sub l l by l_l;\012sub t t by t_t;\012";
name = dlig;
}
);
fontMaster = (
{
alignmentZones = (
"{745, 0}",
"{538, 1}",
"{0, -12}",
"{-228, 0}"
);
ascender = 750;
capHeight = 700;
customParameters = (
{
name = typoAscender;
value = 750;
},
{
name = typoDescender;
value = -250;
},
{
name = typoLineGap;
value = 0;
}
);
descender = -250;

glyphs = (
{
glyphname = A;
layers = (
{
layerId = "05A6575B-AA27-4212-BC78-A0BDA398BBDE";
name = Bold;
paths = (
{
closed = 1;
nodes = (
"463 681 LINE SMOOTH",
"453 701 OFFCURVE",
"428 733 OFFCURVE",
"383 733 CURVE SMOOTH",
"350 733 OFFCURVE",
"317 713 OFFCURVE",
"302 682 CURVE SMOOTH",
"33 125 OFFCURVE",
"32 124 OFFCURVE",
"32 123 CURVE",
"23 105 OFFCURVE",
"15 88 OFFCURVE",
"15 72 CURVE SMOOTH",
"15 50 OFFCURVE",
"29 29 OFFCURVE",
"73 8 CURVE SMOOTH",
"97 -4 OFFCURVE",
"115 -9 OFFCURVE",
"130 -9 CURVE SMOOTH",
"164 -9 OFFCURVE",
"177 18 OFFCURVE",
"192 48 CURVE SMOOTH",
"244 156 LINE",
"521 156 LINE",
"573 48 LINE SMOOTH",
"588 17 OFFCURVE",
"601 -10 OFFCURVE",
"635 -10 CURVE SMOOTH",
"650 -10 OFFCURVE",
"668 -5 OFFCURVE",
"692 7 CURVE SMOOTH",
"736 29 OFFCURVE",
"750 50 OFFCURVE",
"750 72 CURVE SMOOTH",
"750 88 OFFCURVE",
"742 105 OFFCURVE",
"733 123 CURVE SMOOTH"
);
},
{
closed = 1;
nodes = (
"382 441 LINE",
"449 304 LINE",
"316 304 LINE"
);
}
);
width = 765;
}
);
leftKerningGroup = A;
note = A;
rightKerningGroup = d;
unicode = 0041;
},
{
glyphname = Aacute;
layers = (
{
layerId = "05A6575B-AA27-4212-BC78-A0BDA398BBDE";
name = Bold;
paths = (
{
closed = 1;
nodes = (
"517 828 LINE SMOOTH",
"540 835 OFFCURVE",
"560 842 OFFCURVE",
"560 873 CURVE SMOOTH",
"560 884 OFFCURVE",
"558 897 OFFCURVE",
"552 915 CURVE SMOOTH",
"538 962 OFFCURVE",
"522 974 OFFCURVE",
"504 974 CURVE SMOOTH",
"495 974 OFFCURVE",
"485 970 OFFCURVE",
"474 967 CURVE SMOOTH",
"309 916 LINE SMOOTH",
"286 909 OFFCURVE",
"266 902 OFFCURVE",
"266 871 CURVE SMOOTH",
"266 860 OFFCURVE",
"268 846 OFFCURVE",
"274 828 CURVE SMOOTH",
"289 781 OFFCURVE",
"305 769 OFFCURVE",
"323 769 CURVE SMOOTH",
"332 769 OFFCURVE",
"340 772 OFFCURVE",
"350 775 CURVE",
"351 775 OFFCURVE",
"352 776 OFFCURVE",
"353 776 CURVE"
);
},
{
closed = 1;
nodes = (
"463 681 LINE SMOOTH",
"453 701 OFFCURVE",
"428 733 OFFCURVE",
"383 733 CURVE SMOOTH",
"350 733 OFFCURVE",
"317 713 OFFCURVE",
"302 682 CURVE SMOOTH",
"33 125 OFFCURVE",
"32 124 OFFCURVE",
"32 123 CURVE",
"23 105 OFFCURVE",
"15 88 OFFCURVE",
"15 72 CURVE SMOOTH",
"15 50 OFFCURVE",
"29 29 OFFCURVE",
"73 8 CURVE SMOOTH",
"97 -4 OFFCURVE",
"115 -9 OFFCURVE",
"130 -9 CURVE SMOOTH",
"164 -9 OFFCURVE",
"177 18 OFFCURVE",
"192 48 CURVE SMOOTH",
"244 156 LINE",
"521 156 LINE",
"573 48 LINE SMOOTH",
"588 17 OFFCURVE",
"601 -10 OFFCURVE",
"635 -10 CURVE SMOOTH",
"650 -10 OFFCURVE",
"668 -5 OFFCURVE",
"692 7 CURVE SMOOTH",
"736 29 OFFCURVE",
"750 50 OFFCURVE",
"750 72 CURVE SMOOTH",
"750 88 OFFCURVE",
"742 105 OFFCURVE",
"733 123 CURVE SMOOTH"
);
},
{
closed = 1;
nodes = (
"382 441 LINE",
"449 304 LINE",
"316 304 LINE"
);
}
);
width = 765;
}
);
leftKerningGroup = A;
note = Aacute;
rightKerningGroup = d;
unicode = 00C1;
},
{
glyphname = Acircumflex;
layers = (
{
layerId = "05A6575B-AA27-4212-BC78-A0BDA398BBDE";
name = Bold;
paths = (
{
closed = 1;
nodes = (
"500 939 OFFCURVE",
"407 969 OFFCURVE",
"407 969 CURVE",
"402 970 OFFCURVE",
"392 974 OFFCURVE",
"384 974 CURVE SMOOTH",
"375 974 OFFCURVE",
"365 970 OFFCURVE",
"360 969 CURVE",
"360 969 OFFCURVE",
"268 939 OFFCURVE",
"221 923 CURVE SMOOTH",
"203 917 OFFCURVE",
"183 905 OFFCURVE",
"183 878 CURVE SMOOTH",
"183 867 OFFCURVE",
"187 853 OFFCURVE",
"195 836 CURVE SMOOTH",
"214 795 OFFCURVE",
"237 785 OFFCURVE",
"257 785 CURVE SMOOTH",
"268 785 OFFCURVE",
"279 788 OFFCURVE",
"288 791 CURVE",
"289 791 OFFCURVE",
"290 792 OFFCURVE",
"291 792 CURVE",
"384 832 LINE",
"480 790 LINE",
"490 787 OFFCURVE",
"501 783 OFFCURVE",
"512 783 CURVE SMOOTH",
"531 783 OFFCURVE",
"551 794 OFFCURVE",
"572 836 CURVE SMOOTH",
"580 851 OFFCURVE",
"583 865 OFFCURVE",
"583 876 CURVE SMOOTH",
"583 903 OFFCURVE",
"564 917 OFFCURVE",
"546 923 CURVE SMOOTH"
);
},
{
closed = 1;
nodes = (
"463 681 LINE SMOOTH",
"453 701 OFFCURVE",
"428 733 OFFCURVE",
"383 733 CURVE SMOOTH",
"350 733 OFFCURVE",
"317 713 OFFCURVE",
"302 682 CURVE SMOOTH",
"33 125 OFFCURVE",
"32 124 OFFCURVE",
"32 123 CURVE",
"23 105 OFFCURVE",
"15 88 OFFCURVE",
"15 72 CURVE SMOOTH",
"15 50 OFFCURVE",
"29 29 OFFCURVE",
"73 8 CURVE SMOOTH",
"97 -4 OFFCURVE",
"115 -9 OFFCURVE",
"130 -9 CURVE SMOOTH",
"164 -9 OFFCURVE",
"177 18 OFFCURVE",
"192 48 CURVE SMOOTH",
"244 156 LINE",
"521 156 LINE",
"573 48 LINE SMOOTH",
"588 17 OFFCURVE",
"601 -10 OFFCURVE",
"635 -10 CURVE SMOOTH",
"650 -10 OFFCURVE",
"668 -5 OFFCURVE",
"692 7 CURVE SMOOTH",
"736 29 OFFCURVE",
"750 50 OFFCURVE",
"750 72 CURVE SMOOTH",
"750 88 OFFCURVE",
"742 105 OFFCURVE",
"733 123 CURVE SMOOTH"
);
},
{
closed = 1;
nodes = (
"382 441 LINE",
"449 304 LINE",
"316 304 LINE"
);
}
);
width = 765;
}
);
leftKerningGroup = A;
note = Acircumflex;
rightKerningGroup = d;
unicode = 00C2;
},
{
glyphname = Adieresis;
layers = (
{
layerId = "05A6575B-AA27-4212-BC78-A0BDA398BBDE";
name = Bold;
paths = (
{
closed = 1;
nodes = (
"340 795 OFFCURVE",
"340 835 OFFCURVE",
"340 883 CURVE SMOOTH",
"340 932 OFFCURVE",
"340 973 OFFCURVE",
"251 973 CURVE SMOOTH",
"161 973 OFFCURVE",
"162 934 OFFCURVE",
"161 885 CURVE SMOOTH",
"161 836 OFFCURVE",
"161 795 OFFCURVE",
"250 795 CURVE SMOOTH"
);
},
{
closed = 1;
nodes = (
"610 795 OFFCURVE",
"610 835 OFFCURVE",
"610 883 CURVE SMOOTH",
"610 932 OFFCURVE",
"610 973 OFFCURVE",
"521 973 CURVE SMOOTH",
"431 973 OFFCURVE",
"431 934 OFFCURVE",
"431 885 CURVE SMOOTH",
"431 836 OFFCURVE",
"431 795 OFFCURVE",
"520 795 CURVE SMOOTH"
);
},
{
closed = 1;
nodes = (
"463 681 LINE SMOOTH",
"453 701 OFFCURVE",
"428 733 OFFCURVE",
"383 733 CURVE SMOOTH",
"350 733 OFFCURVE",
"317 713 OFFCURVE",
"302 682 CURVE SMOOTH",
"33 125 OFFCURVE",
"32 124 OFFCURVE",
"32 123 CURVE",
"23 105 OFFCURVE",
"15 88 OFFCURVE",
"15 72 CURVE SMOOTH",
"15 50 OFFCURVE",
"29 29 OFFCURVE",
"73 8 CURVE SMOOTH",
"97 -4 OFFCURVE",
"115 -9 OFFCURVE",
"130 -9 CURVE SMOOTH",
"164 -9 OFFCURVE",
"177 18 OFFCURVE",
"192 48 CURVE SMOOTH",
"244 156 LINE",
"521 156 LINE",
"573 48 LINE SMOOTH",
"588 17 OFFCURVE",
"601 -10 OFFCURVE",
"635 -10 CURVE SMOOTH",
"650 -10 OFFCURVE",
"668 -5 OFFCURVE",
"692 7 CURVE SMOOTH",
"736 29 OFFCURVE",
"750 50 OFFCURVE",
"750 72 CURVE SMOOTH",
"750 88 OFFCURVE",
"742 105 OFFCURVE",
"733 123 CURVE SMOOTH"
);
},
{
closed = 1;
nodes = (
"382 441 LINE",
"449 304 LINE",
"316 304 LINE"
);
}
);
width = 765;
}
);
leftKerningGroup = A;
note = Adieresis;
rightKerningGroup = d;
unicode = 00C4;
},
{
glyphname = Agrave;
layers = (
{
layerId = "05A6575B-AA27-4212-BC78-A0BDA398BBDE";
name = Bold;
paths = (
{
closed = 1;
nodes = (
"416 763 LINE",
"417 763 OFFCURVE",
"418 762 OFFCURVE",
"419 762 CURVE",
"429 759 OFFCURVE",
"437 756 OFFCURVE",
"446 756 CURVE SMOOTH",
"464 756 OFFCURVE",
"480 768 OFFCURVE",
"495 815 CURVE SMOOTH",
"501 833 OFFCURVE",
"503 846 OFFCURVE",
"503 857 CURVE SMOOTH",
"503 889 OFFCURVE",
"482 896 OFFCURVE",
"460 903 CURVE SMOOTH",
"295 954 LINE SMOOTH",
"284 957 OFFCURVE",
"274 961 OFFCURVE",
"265 961 CURVE SMOOTH",
"247 961 OFFCURVE",
"231 949 OFFCURVE",
"216 902 CURVE SMOOTH",
"210 884 OFFCURVE",
"208 871 OFFCURVE",
"208 860 CURVE SMOOTH",
"208 829 OFFCURVE",
"228 822 OFFCURVE",
"251 815 CURVE SMOOTH"
);
},
{
closed = 1;
nodes = (
"463 681 LINE SMOOTH",
"453 701 OFFCURVE",
"428 733 OFFCURVE",
"383 733 CURVE SMOOTH",
"350 733 OFFCURVE",
"317 713 OFFCURVE",
"302 682 CURVE SMOOTH",
"33 125 OFFCURVE",
"32 124 OFFCURVE",
"32 123 CURVE",
"23 105 OFFCURVE",
"15 88 OFFCURVE",
"15 72 CURVE SMOOTH",
"15 50 OFFCURVE",
"29 29 OFFCURVE",
"73 8 CURVE SMOOTH",
"97 -4 OFFCURVE",
"115 -9 OFFCURVE",
"130 -9 CURVE SMOOTH",
"164 -9 OFFCURVE",
"177 18 OFFCURVE",
"192 48 CURVE SMOOTH",
"244 156 LINE",
"521 156 LINE",
"573 48 LINE SMOOTH",
"588 17 OFFCURVE",
"601 -10 OFFCURVE",
"635 -10 CURVE SMOOTH",
"650 -10 OFFCURVE",
"668 -5 OFFCURVE",
"692 7 CURVE SMOOTH",
"736 29 OFFCURVE",
"750 50 OFFCURVE",
"750 72 CURVE SMOOTH",
"750 88 OFFCURVE",
"742 105 OFFCURVE",
"733 123 CURVE SMOOTH"
);
},
{
closed = 1;
nodes = (
"382 441 LINE",
"449 304 LINE",
"316 304 LINE"
);
}
);
width = 765;
}
);
leftKerningGroup = A;
note = Agrave;
rightKerningGroup = d;
unicode = 00C0;
},
{
glyphname = Aring;
layers = (
{
layerId = "05A6575B-AA27-4212-BC78-A0BDA398BBDE";
name = Bold;
paths = (
{
closed = 1;
nodes = (
"319 919 OFFCURVE",
"253 868 OFFCURVE",
"253 789 CURVE SMOOTH",
"253 745 OFFCURVE",
"275 709 OFFCURVE",
"305 687 CURVE",
"52 163 OFFCURVE",
"32 124 OFFCURVE",
"32 123 CURVE",
"23 105 OFFCURVE",
"15 88 OFFCURVE",
"15 72 CURVE SMOOTH",
"15 50 OFFCURVE",
"29 29 OFFCURVE",
"73 8 CURVE SMOOTH",
"97 -4 OFFCURVE",
"115 -9 OFFCURVE",
"130 -9 CURVE SMOOTH",
"164 -9 OFFCURVE",
"177 18 OFFCURVE",
"192 48 CURVE SMOOTH",
"244 156 LINE",
"521 156 LINE",
"573 48 LINE SMOOTH",
"588 17 OFFCURVE",
"601 -10 OFFCURVE",
"635 -10 CURVE SMOOTH",
"650 -10 OFFCURVE",
"668 -5 OFFCURVE",
"692 7 CURVE SMOOTH",
"736 29 OFFCURVE",
"750 50 OFFCURVE",
"750 72 CURVE SMOOTH",
"750 88 OFFCURVE",
"742 105 OFFCURVE",
"733 123 CURVE SMOOTH",
"460 687 LINE",
"489 709 OFFCURVE",
"511 744 OFFCURVE",
"511 790 CURVE SMOOTH",
"511 868 OFFCURVE",
"448 919 OFFCURVE",
"381 919 CURVE SMOOTH"
);
},
{
closed = 1;
nodes = (
"360 729 OFFCURVE",
"321 744 OFFCURVE",
"321 790 CURVE SMOOTH",
"321 834 OFFCURVE",
"359 851 OFFCURVE",
"381 851 CURVE SMOOTH",
"407 851 OFFCURVE",
"443 835 OFFCURVE",
"443 791 CURVE SMOOTH",
"443 744 OFFCURVE",
"403 729 OFFCURVE",
"382 729 CURVE SMOOTH"
);
},
{
closed = 1;
nodes = (
"382 441 LINE",
"449 304 LINE",
"316 304 LINE"
);
}
);
width = 765;
}
);
leftKerningGroup = A;
note = Aring;
rightKerningGroup = d;
unicode = 00C5;
},
{
glyphname = Atilde;
layers = (
{
layerId = "05A6575B-AA27-4212-BC78-A0BDA398BBDE";
name = Bold;
paths = (
{
closed = 1;
nodes = (
"532 968 OFFCURVE",
"520 973 OFFCURVE",
"510 973 CURVE SMOOTH",
"489 973 OFFCURVE",
"476 955 OFFCURVE",
"465 935 CURVE",
"465 935 OFFCURVE",
"458 923 OFFCURVE",
"440 923 CURVE SMOOTH",
"414 923 OFFCURVE",
"396 973 OFFCURVE",
"328 973 CURVE SMOOTH",
"234 973 OFFCURVE",
"196 894 OFFCURVE",
"196 894 CURVE",
"188 881 OFFCURVE",
"182 870 OFFCURVE",
"182 859 CURVE SMOOTH",
"182 846 OFFCURVE",
"190 833 OFFCURVE",
"214 812 CURVE SMOOTH",
"230 798 OFFCURVE",
"242 792 OFFCURVE",
"253 792 CURVE SMOOTH",
"274 792 OFFCURVE",
"288 813 OFFCURVE",
"299 832 CURVE",
"300 832 OFFCURVE",
"307 844 OFFCURVE",
"323 844 CURVE SMOOTH",
"351 844 OFFCURVE",
"369 792 OFFCURVE",
"438 792 CURVE SMOOTH",
"531 792 OFFCURVE",
"568 873 OFFCURVE",
"568 873 CURVE",
"576 886 OFFCURVE",
"582 898 OFFCURVE",
"582 910 CURVE SMOOTH",
"582 924 OFFCURVE",
"573 939 OFFCURVE",
"546 958 CURVE SMOOTH"
);
},
{
closed = 1;
nodes = (
"463 681 LINE SMOOTH",
"453 701 OFFCURVE",
"428 733 OFFCURVE",
"383 733 CURVE SMOOTH",
"350 733 OFFCURVE",
"317 713 OFFCURVE",
"302 682 CURVE SMOOTH",
"33 125 OFFCURVE",
"32 124 OFFCURVE",
"32 123 CURVE",
"23 105 OFFCURVE",
"15 88 OFFCURVE",
"15 72 CURVE SMOOTH",
"15 50 OFFCURVE",
"29 29 OFFCURVE",
"73 8 CURVE SMOOTH",
"97 -4 OFFCURVE",
"115 -9 OFFCURVE",
"130 -9 CURVE SMOOTH",
"164 -9 OFFCURVE",
"177 18 OFFCURVE",
"192 48 CURVE SMOOTH",
"244 156 LINE",
"521 156 LINE",
"573 48 LINE SMOOTH",
"588 17 OFFCURVE",
"601 -10 OFFCURVE",
"635 -10 CURVE SMOOTH",
"650 -10 OFFCURVE",
"668 -5 OFFCURVE",
"692 7 CURVE SMOOTH",
"736 29 OFFCURVE",
"750 50 OFFCURVE",
"750 72 CURVE SMOOTH",
"750 88 OFFCURVE",
"742 105 OFFCURVE",
"733 123 CURVE SMOOTH"
);
},
{
closed = 1;
nodes = (
"382 441 LINE",
"449 304 LINE",
"316 304 LINE"
);
}
);
width = 765;
}
);
leftKerningGroup = A;
note = Atilde;
rightKerningGroup = d;
unicode = 00C3;
},
{
glyphname = AE;
layers = (
{
layerId = "05A6575B-AA27-4212-BC78-A0BDA398BBDE";
name = Bold;
paths = (
{
closed = 1;
nodes = (
"730 178 LINE",
"730 279 LINE",
"924 279 LINE SMOOTH",
"974 279 OFFCURVE",
"1013 280 OFFCURVE",
"1013 367 CURVE SMOOTH",
"1013 454 OFFCURVE",
"973 456 OFFCURVE",
"925 456 CURVE SMOOTH",
"730 456 LINE",
"730 557 LINE",
"1040 557 LINE SMOOTH",
"1085 557 OFFCURVE",
"1123 559 OFFCURVE",
"1123 645 CURVE SMOOTH",
"1123 734 OFFCURVE",
"1083 734 OFFCURVE",
"1035 734 CURVE SMOOTH",
"601 734 LINE SMOOTH",
"577 734 OFFCURVE",
"554 726 OFFCURVE",
"537 708 CURVE SMOOTH",
"490 656 OFFCURVE",
"70 192 OFFCURVE",
"33 152 CURVE SMOOTH",
"15 132 OFFCURVE",
"0 116 OFFCURVE",
"0 94 CURVE SMOOTH",
"0 77 OFFCURVE",
"10 56 OFFCURVE",
"34 27 CURVE SMOOTH",
"56 1 OFFCURVE",
"76 -9 OFFCURVE",
"95 -9 CURVE SMOOTH",
"119 -9 OFFCURVE",
"141 8 OFFCURVE",
"159 28 CURVE SMOOTH",
"269 149 LINE",
"552 149 LINE",
"552 91 LINE SMOOTH",
"552 43 OFFCURVE",
"592 1 OFFCURVE",
"640 1 CURVE SMOOTH",
"1034 1 LINE SMOOTH",
"1082 1 OFFCURVE",
"1123 1 OFFCURVE",
"1123 89 CURVE SMOOTH",
"1123 176 OFFCURVE",
"1086 178 OFFCURVE",
"1041 178 CURVE SMOOTH"
);
},
{
closed = 1;
nodes = (
"403 297 LINE",
"453 352 OFFCURVE",
"503 406 OFFCURVE",
"552 461 CURVE",
"552 297 LINE"
);
}
);
width = 1148;
}
);
leftKerningGroup = A;
note = AE;
rightKerningGroup = d;
unicode = 00C6;
},
{
glyphname = B;
layers = (
{
layerId = "05A6575B-AA27-4212-BC78-A0BDA398BBDE";
name = Bold;
paths = (
{
closed = 1;
nodes = (
"586 428 OFFCURVE",
"600 471 OFFCURVE",
"600 514 CURVE SMOOTH",
"600 572 OFFCURVE",
"576 629 OFFCURVE",
"535 670 CURVE SMOOTH",
"495 711 OFFCURVE",
"438 734 OFFCURVE",
"381 734 CURVE SMOOTH",
"129 734 LINE SMOOTH",
"40 734 OFFCURVE",
"40 694 OFFCURVE",
"40 646 CURVE SMOOTH",
"40 91 LINE SMOOTH",
"40 42 OFFCURVE",
"40 1 OFFCURVE",
"128 1 CURVE SMOOTH",
"391 1 LINE SMOOTH",
"455 1 OFFCURVE",
"512 28 OFFCURVE",
"554 71 CURVE SMOOTH",
"597 114 OFFCURVE",
"620 175 OFFCURVE",
"621 236 CURVE SMOOTH",
"621 293 OFFCURVE",
"599 349 OFFCURVE",
"562 393 CURVE"
);
},
{
closed = 1;
nodes = (
"444 178 OFFCURVE",
"396 178 OFFCURVE",
"381 178 CURVE SMOOTH",
"217 178 LINE",
"217 557 LINE",
"357 557 LINE SMOOTH",
"395 557 OFFCURVE",
"423 552 OFFCURVE",
"423 505 CURVE SMOOTH",
"423 456 OFFCURVE",
"400 455 OFFCURVE",
"372 455 CURVE SMOOTH",
"318 455 OFFCURVE",
"292 444 OFFCURVE",
"292 385 CURVE SMOOTH",
"292 320 OFFCURVE",
"321 312 OFFCURVE",
"367 312 CURVE SMOOTH",
"408 312 OFFCURVE",
"444 311 OFFCURVE",
"444 247 CURVE SMOOTH"
);
}
);
width = 646;
}
);
note = B;
rightKerningGroup = d;
unicode = 0042;
},
{
glyphname = C;
layers = (
{
layerId = "05A6575B-AA27-4212-BC78-A0BDA398BBDE";
name = Bold;
paths = (
{
closed = 1;
nodes = (
"510 201 LINE",
"510 201 OFFCURVE",
"469 168 OFFCURVE",
"400 168 CURVE SMOOTH",
"325 168 OFFCURVE",
"202 222 OFFCURVE",
"202 366 CURVE SMOOTH",
"202 507 OFFCURVE",
"323 563 OFFCURVE",
"400 563 CURVE SMOOTH",
"470 563 OFFCURVE",
"512 529 OFFCURVE",
"512 529 CURVE",
"530 517 OFFCURVE",
"546 507 OFFCURVE",
"563 507 CURVE SMOOTH",
"583 507 OFFCURVE",
"604 521 OFFCURVE",
"633 561 CURVE SMOOTH",
"648 582 OFFCURVE",
"654 600 OFFCURVE",
"654 615 CURVE SMOOTH",
"654 646 OFFCURVE",
"628 664 OFFCURVE",
"600 682 CURVE",
"600 682 OFFCURVE",
"513 740 OFFCURVE",
"407 740 CURVE SMOOTH",
"262 740 OFFCURVE",
"25 638 OFFCURVE",
"25 371 CURVE SMOOTH",
"25 94 OFFCURVE",
"267 -10 OFFCURVE",
"404 -10 CURVE SMOOTH",
"519 -10 OFFCURVE",
"599 48 OFFCURVE",
"599 48 CURVE",
"627 65 OFFCURVE",
"653 82 OFFCURVE",
"653 112 CURVE SMOOTH",
"653 127 OFFCURVE",
"646 145 OFFCURVE",
"631 169 CURVE SMOOTH",
"604 211 OFFCURVE",
"583 225 OFFCURVE",
"564 225 CURVE SMOOTH",
"548 225 OFFCURVE",
"533 215 OFFCURVE",
"516 205 CURVE"
);
}
);
width = 679;
}
);
leftKerningGroup = C;
note = C;
rightKerningGroup = C;
unicode = 0043;
},
{
glyphname = Ccedilla;
layers = (
{
layerId = "05A6575B-AA27-4212-BC78-A0BDA398BBDE";
name = Bold;
paths = (
{
closed = 1;
nodes = (
"510 201 LINE",
"510 201 OFFCURVE",
"469 168 OFFCURVE",
"400 168 CURVE SMOOTH",
"326 168 OFFCURVE",
"202 222 OFFCURVE",
"202 367 CURVE SMOOTH",
"202 508 OFFCURVE",
"323 564 OFFCURVE",
"400 564 CURVE SMOOTH",
"470 564 OFFCURVE",
"512 530 OFFCURVE",
"512 530 CURVE",
"531 518 OFFCURVE",
"547 508 OFFCURVE",
"564 508 CURVE SMOOTH",
"584 508 OFFCURVE",
"605 522 OFFCURVE",
"633 562 CURVE SMOOTH",
"648 583 OFFCURVE",
"654 601 OFFCURVE",
"654 616 CURVE SMOOTH",
"654 647 OFFCURVE",
"628 665 OFFCURVE",
"601 683 CURVE",
"601 683 OFFCURVE",
"513 742 OFFCURVE",
"408 742 CURVE SMOOTH",
"262 742 OFFCURVE",
"25 639 OFFCURVE",
"25 372 CURVE SMOOTH",
"25 142 OFFCURVE",
"192 31 OFFCURVE",
"327 0 CURVE",
"319 -5 OFFCURVE",
"312 -11 OFFCURVE",
"310 -21 CURVE",
"310 -23 OFFCURVE",
"309 -25 OFFCURVE",
"309 -27 CURVE SMOOTH",
"309 -35 OFFCURVE",
"313 -43 OFFCURVE",
"319 -53 CURVE",
"325 -64 OFFCURVE",
"336 -77 OFFCURVE",
"352 -77 CURVE SMOOTH",
"361 -77 OFFCURVE",
"369 -73 OFFCURVE",
"376 -68 CURVE",
"378 -66 OFFCURVE",
"383 -63 OFFCURVE",
"391 -63 CURVE SMOOTH",
"398 -63 OFFCURVE",
"413 -69 OFFCURVE",
"413 -86 CURVE SMOOTH",
"413 -103 OFFCURVE",
"398 -109 OFFCURVE",
"391 -109 CURVE SMOOTH",
"383 -109 OFFCURVE",
"379 -106 OFFCURVE",
"378 -105 CURVE",
"369 -103 OFFCURVE",
"364 -95 OFFCURVE",
"354 -95 CURVE SMOOTH",
"343 -95 OFFCURVE",
"333 -102 OFFCURVE",
"320 -118 CURVE",
"313 -126 OFFCURVE",
"309 -135 OFFCURVE",
"309 -143 CURVE SMOOTH",
"309 -145 OFFCURVE",
"310 -146 OFFCURVE",
"310 -148 CURVE",
"312 -162 OFFCURVE",
"324 -171 OFFCURVE",
"334 -177 CURVE",
"336 -179 OFFCURVE",
"358 -193 OFFCURVE",
"390 -193 CURVE SMOOTH",
"414 -193 OFFCURVE",
"441 -183 OFFCURVE",
"461 -166 CURVE SMOOTH",
"478 -152 OFFCURVE",
"498 -127 OFFCURVE",
"498 -85 CURVE SMOOTH",
"498 -49 OFFCURVE",
"481 -22 OFFCURVE",
"460 -5 CURVE",
"544 9 OFFCURVE",
"600 49 OFFCURVE",
"600 49 CURVE",
"627 66 OFFCURVE",
"653 82 OFFCURVE",
"653 113 CURVE SMOOTH",
"653 128 OFFCURVE",
"646 146 OFFCURVE",
"631 170 CURVE SMOOTH",
"604 212 OFFCURVE",
"584 226 OFFCURVE",
"565 226 CURVE SMOOTH",
"549 226 OFFCURVE",
"534 216 OFFCURVE",
"517 205 CURVE"
);
}
);
width = 679;
}
);
leftKerningGroup = C;
note = Ccedilla;
rightKerningGroup = C;
unicode = 00C7;
},
{
glyphname = D;
layers = (
{
layerId = "05A6575B-AA27-4212-BC78-A0BDA398BBDE";
name = Bold;
paths = (
{
closed = 1;
nodes = (
"679 580 OFFCURVE",
"502 733 OFFCURVE",
"314 733 CURVE SMOOTH",
"252 733 OFFCURVE",
"190 734 OFFCURVE",
"129 734 CURVE SMOOTH",
"40 734 OFFCURVE",
"40 694 OFFCURVE",
"40 646 CURVE SMOOTH",
"40 90 LINE SMOOTH",
"40 38 OFFCURVE",
"44 1 OFFCURVE",
"128 1 CURVE SMOOTH",
"311 1 LINE SMOOTH",
"516 1 OFFCURVE",
"679 169 OFFCURVE",
"679 371 CURVE SMOOTH"
);
},
{
closed = 1;
nodes = (
"502 252 OFFCURVE",
"405 178 OFFCURVE",
"314 178 CURVE SMOOTH",
"217 178 LINE",
"217 556 LINE",
"313 556 LINE SMOOTH",
"412 556 OFFCURVE",
"502 476 OFFCURVE",
"502 367 CURVE SMOOTH"
);
}
);
width = 704;
}
);
note = D;
rightKerningGroup = D;
unicode = 0044;
},
{
glyphname = Eth;
layers = (
{
layerId = "05A6575B-AA27-4212-BC78-A0BDA398BBDE";
name = Bold;
paths = (
{
closed = 1;
nodes = (
"750 580 OFFCURVE",
"573 733 OFFCURVE",
"385 733 CURVE SMOOTH",
"323 733 OFFCURVE",
"261 734 OFFCURVE",
"200 734 CURVE SMOOTH",
"111 734 OFFCURVE",
"111 694 OFFCURVE",
"111 646 CURVE SMOOTH",
"111 436 LINE",
"87 436 LINE SMOOTH",
"58 436 OFFCURVE",
"25 436 OFFCURVE",
"25 369 CURVE SMOOTH",
"25 301 OFFCURVE",
"57 301 OFFCURVE",
"86 301 CURVE SMOOTH",
"111 301 LINE",
"111 90 LINE SMOOTH",
"111 38 OFFCURVE",
"115 1 OFFCURVE",
"199 1 CURVE SMOOTH",
"382 1 LINE SMOOTH",
"587 1 OFFCURVE",
"750 169 OFFCURVE",
"750 371 CURVE SMOOTH"
);
},
{
closed = 1;
nodes = (
"312 301 LINE SMOOTH",
"345 301 OFFCURVE",
"374 301 OFFCURVE",
"374 368 CURVE SMOOTH",
"374 436 OFFCURVE",
"342 436 OFFCURVE",
"313 436 CURVE SMOOTH",
"288 436 LINE",
"288 556 LINE",
"384 556 LINE SMOOTH",
"483 556 OFFCURVE",
"573 476 OFFCURVE",
"573 367 CURVE SMOOTH",
"573 252 OFFCURVE",
"476 178 OFFCURVE",
"385 178 CURVE SMOOTH",
"288 178 LINE",
"288 301 LINE"
);
}
);
width = 775;
}
);
note = Eth;
rightKerningGroup = D;
unicode = 00D0;
},
{
glyphname = E;
layers = (
{
layerId = "05A6575B-AA27-4212-BC78-A0BDA398BBDE";
name = Bold;
paths = (
{
closed = 1;
nodes = (
"217 177 LINE",
"217 278 LINE",
"413 278 LINE SMOOTH",
"462 278 OFFCURVE",
"503 278 OFFCURVE",
"503 366 CURVE SMOOTH",
"503 455 OFFCURVE",
"463 455 OFFCURVE",
"415 455 CURVE SMOOTH",
"217 455 LINE",
"217 556 LINE",
"524 556 LINE SMOOTH",
"572 556 OFFCURVE",
"613 556 OFFCURVE",
"613 644 CURVE SMOOTH",
"613 733 OFFCURVE",
"573 733 OFFCURVE",
"525 733 CURVE SMOOTH",
"131 733 LINE SMOOTH",
"59 733 OFFCURVE",
"40 712 OFFCURVE",
"40 645 CURVE SMOOTH",
"40 89 LINE SMOOTH",
"40 41 OFFCURVE",
"40 0 OFFCURVE",
"128 0 CURVE SMOOTH",
"524 0 LINE SMOOTH",
"572 0 OFFCURVE",
"613 0 OFFCURVE",
"613 88 CURVE SMOOTH",
"613 177 OFFCURVE",
"573 177 OFFCURVE",
"525 177 CURVE SMOOTH"
);
}
);
width = 638;
}
);
note = E;
unicode = 0045;
},
{
glyphname = Eacute;
layers = (
{
layerId = "05A6575B-AA27-4212-BC78-A0BDA398BBDE";
name = Bold;
paths = (
{
closed = 1;
nodes = (
"217 177 LINE",
"217 278 LINE",
"413 278 LINE SMOOTH",
"462 278 OFFCURVE",
"503 278 OFFCURVE",
"503 366 CURVE SMOOTH",
"503 455 OFFCURVE",
"463 455 OFFCURVE",
"415 455 CURVE SMOOTH",
"217 455 LINE",
"217 556 LINE",
"524 556 LINE SMOOTH",
"572 556 OFFCURVE",
"613 556 OFFCURVE",
"613 644 CURVE SMOOTH",
"613 733 OFFCURVE",
"573 733 OFFCURVE",
"525 733 CURVE SMOOTH",
"131 733 LINE SMOOTH",
"59 733 OFFCURVE",
"40 712 OFFCURVE",
"40 645 CURVE SMOOTH",
"40 89 LINE SMOOTH",
"40 41 OFFCURVE",
"40 0 OFFCURVE",
"128 0 CURVE SMOOTH",
"524 0 LINE SMOOTH",
"572 0 OFFCURVE",
"613 0 OFFCURVE",
"613 88 CURVE SMOOTH",
"613 177 OFFCURVE",
"573 177 OFFCURVE",
"525 177 CURVE SMOOTH"
);
},
{
closed = 1;
nodes = (
"452 828 LINE SMOOTH",
"475 835 OFFCURVE",
"495 842 OFFCURVE",
"495 873 CURVE SMOOTH",
"495 884 OFFCURVE",
"493 897 OFFCURVE",
"487 915 CURVE SMOOTH",
"473 962 OFFCURVE",
"457 974 OFFCURVE",
"439 974 CURVE SMOOTH",
"430 974 OFFCURVE",
"420 970 OFFCURVE",
"409 967 CURVE SMOOTH",
"244 916 LINE SMOOTH",
"221 909 OFFCURVE",
"201 902 OFFCURVE",
"201 871 CURVE SMOOTH",
"201 860 OFFCURVE",
"203 846 OFFCURVE",
"209 828 CURVE SMOOTH",
"224 781 OFFCURVE",
"240 769 OFFCURVE",
"258 769 CURVE SMOOTH",
"267 769 OFFCURVE",
"275 772 OFFCURVE",
"285 775 CURVE",
"286 775 OFFCURVE",
"287 776 OFFCURVE",
"288 776 CURVE"
);
}
);
width = 638;
}
);
note = Eacute;
rightKerningGroup = d;
unicode = 00C9;
},
{
glyphname = Ecircumflex;
layers = (
{
layerId = "05A6575B-AA27-4212-BC78-A0BDA398BBDE";
name = Bold;
paths = (
{
closed = 1;
nodes = (
"217 177 LINE",
"217 278 LINE",
"413 278 LINE SMOOTH",
"462 278 OFFCURVE",
"503 278 OFFCURVE",
"503 366 CURVE SMOOTH",
"503 455 OFFCURVE",
"463 455 OFFCURVE",
"415 455 CURVE SMOOTH",
"217 455 LINE",
"217 556 LINE",
"524 556 LINE SMOOTH",
"572 556 OFFCURVE",
"613 556 OFFCURVE",
"613 644 CURVE SMOOTH",
"613 733 OFFCURVE",
"573 733 OFFCURVE",
"525 733 CURVE SMOOTH",
"131 733 LINE SMOOTH",
"59 733 OFFCURVE",
"40 712 OFFCURVE",
"40 645 CURVE SMOOTH",
"40 89 LINE SMOOTH",
"40 41 OFFCURVE",
"40 0 OFFCURVE",
"128 0 CURVE SMOOTH",
"524 0 LINE SMOOTH",
"572 0 OFFCURVE",
"613 0 OFFCURVE",
"613 88 CURVE SMOOTH",
"613 177 OFFCURVE",
"573 177 OFFCURVE",
"525 177 CURVE SMOOTH"
);
},
{
closed = 1;
nodes = (
"440 939 OFFCURVE",
"347 969 OFFCURVE",
"347 969 CURVE",
"342 970 OFFCURVE",
"332 974 OFFCURVE",
"324 974 CURVE SMOOTH",
"315 974 OFFCURVE",
"305 970 OFFCURVE",
"300 969 CURVE",
"300 969 OFFCURVE",
"208 939 OFFCURVE",
"161 923 CURVE SMOOTH",
"143 917 OFFCURVE",
"123 905 OFFCURVE",
"123 878 CURVE SMOOTH",
"123 867 OFFCURVE",
"127 853 OFFCURVE",
"135 836 CURVE SMOOTH",
"154 795 OFFCURVE",
"177 785 OFFCURVE",
"197 785 CURVE SMOOTH",
"208 785 OFFCURVE",
"219 788 OFFCURVE",
"228 791 CURVE",
"229 791 OFFCURVE",
"230 792 OFFCURVE",
"231 792 CURVE",
"324 832 LINE",
"420 790 LINE",
"430 787 OFFCURVE",
"441 783 OFFCURVE",
"452 783 CURVE SMOOTH",
"471 783 OFFCURVE",
"491 794 OFFCURVE",
"512 836 CURVE SMOOTH",
"520 851 OFFCURVE",
"523 865 OFFCURVE",
"523 876 CURVE SMOOTH",
"523 903 OFFCURVE",
"504 917 OFFCURVE",
"486 923 CURVE SMOOTH"
);
}
);
width = 638;
}
);
note = Ecircumflex;
rightKerningGroup = d;
unicode = 00CA;
},
{
glyphname = Edieresis;
layers = (
{
layerId = "05A6575B-AA27-4212-BC78-A0BDA398BBDE";
name = Bold;
paths = (
{
closed = 1;
nodes = (
"217 177 LINE",
"217 278 LINE",
"413 278 LINE SMOOTH",
"462 278 OFFCURVE",
"503 278 OFFCURVE",
"503 366 CURVE SMOOTH",
"503 455 OFFCURVE",
"463 455 OFFCURVE",
"415 455 CURVE SMOOTH",
"217 455 LINE",
"217 556 LINE",
"524 556 LINE SMOOTH",
"572 556 OFFCURVE",
"613 556 OFFCURVE",
"613 644 CURVE SMOOTH",
"613 733 OFFCURVE",
"573 733 OFFCURVE",
"525 733 CURVE SMOOTH",
"131 733 LINE SMOOTH",
"59 733 OFFCURVE",
"40 712 OFFCURVE",
"40 645 CURVE SMOOTH",
"40 89 LINE SMOOTH",
"40 41 OFFCURVE",
"40 0 OFFCURVE",
"128 0 CURVE SMOOTH",
"524 0 LINE SMOOTH",
"572 0 OFFCURVE",
"613 0 OFFCURVE",
"613 88 CURVE SMOOTH",
"613 177 OFFCURVE",
"573 177 OFFCURVE",
"525 177 CURVE SMOOTH"
);
},
{
closed = 1;
nodes = (
"284 795 OFFCURVE",
"284 835 OFFCURVE",
"284 883 CURVE SMOOTH",
"284 932 OFFCURVE",
"284 973 OFFCURVE",
"195 973 CURVE SMOOTH",
"105 973 OFFCURVE",
"106 934 OFFCURVE",
"105 885 CURVE SMOOTH",
"105 836 OFFCURVE",
"105 795 OFFCURVE",
"194 795 CURVE SMOOTH"
);
},
{
closed = 1;
nodes = (
"554 795 OFFCURVE",
"554 835 OFFCURVE",
"554 883 CURVE SMOOTH",
"554 932 OFFCURVE",
"554 973 OFFCURVE",
"465 973 CURVE SMOOTH",
"375 973 OFFCURVE",
"375 934 OFFCURVE",
"375 885 CURVE SMOOTH",
"375 836 OFFCURVE",
"375 795 OFFCURVE",
"464 795 CURVE SMOOTH"
);
}
);
width = 638;
}
);
note = Edieresis;
rightKerningGroup = d;
unicode = 00CB;
},
{
glyphname = Egrave;
layers = (
{
layerId = "05A6575B-AA27-4212-BC78-A0BDA398BBDE";
name = Bold;
paths = (
{
closed = 1;
nodes = (
"217 177 LINE",
"217 278 LINE",
"413 278 LINE SMOOTH",
"462 278 OFFCURVE",
"503 278 OFFCURVE",
"503 366 CURVE SMOOTH",
"503 455 OFFCURVE",
"463 455 OFFCURVE",
"415 455 CURVE SMOOTH",
"217 455 LINE",
"217 556 LINE",
"524 556 LINE SMOOTH",
"572 556 OFFCURVE",
"613 556 OFFCURVE",
"613 644 CURVE SMOOTH",
"613 733 OFFCURVE",
"573 733 OFFCURVE",
"525 733 CURVE SMOOTH",
"131 733 LINE SMOOTH",
"59 733 OFFCURVE",
"40 712 OFFCURVE",
"40 645 CURVE SMOOTH",
"40 89 LINE SMOOTH",
"40 41 OFFCURVE",
"40 0 OFFCURVE",
"128 0 CURVE SMOOTH",
"524 0 LINE SMOOTH",
"572 0 OFFCURVE",
"613 0 OFFCURVE",
"613 88 CURVE SMOOTH",
"613 177 OFFCURVE",
"573 177 OFFCURVE",
"525 177 CURVE SMOOTH"
);
},
{
closed = 1;
nodes = (
"395 763 LINE",
"396 763 OFFCURVE",
"397 762 OFFCURVE",
"398 762 CURVE",
"408 759 OFFCURVE",
"416 756 OFFCURVE",
"425 756 CURVE SMOOTH",
"443 756 OFFCURVE",
"459 768 OFFCURVE",
"474 815 CURVE SMOOTH",
"480 833 OFFCURVE",
"482 846 OFFCURVE",
"482 857 CURVE SMOOTH",
"482 889 OFFCURVE",
"461 896 OFFCURVE",
"439 903 CURVE SMOOTH",
"274 954 LINE SMOOTH",
"263 957 OFFCURVE",
"253 961 OFFCURVE",
"244 961 CURVE SMOOTH",
"226 961 OFFCURVE",
"210 949 OFFCURVE",
"195 902 CURVE SMOOTH",
"189 884 OFFCURVE",
"187 871 OFFCURVE",
"187 860 CURVE SMOOTH",
"187 829 OFFCURVE",
"207 822 OFFCURVE",
"230 815 CURVE SMOOTH"
);
}
);
width = 638;
}
);
note = Egrave;
rightKerningGroup = d;
unicode = 00C8;
},
{
glyphname = F;
layers = (
{
layerId = "05A6575B-AA27-4212-BC78-A0BDA398BBDE";
name = Bold;
paths = (
{
closed = 1;
nodes = (
"131 733 LINE SMOOTH",
"60 733 OFFCURVE",
"40 713 OFFCURVE",
"40 645 CURVE SMOOTH",
"40 89 LINE SMOOTH",
"40 41 OFFCURVE",
"40 0 OFFCURVE",
"128 0 CURVE SMOOTH",
"217 0 OFFCURVE",
"217 40 OFFCURVE",
"217 88 CURVE SMOOTH",
"217 277 LINE",
"413 277 LINE SMOOTH",
"461 277 OFFCURVE",
"502 277 OFFCURVE",
"502 365 CURVE SMOOTH",
"502 455 OFFCURVE",
"463 455 OFFCURVE",
"414 455 CURVE SMOOTH",
"217 455 LINE",
"217 556 LINE",
"523 556 LINE SMOOTH",
"572 556 OFFCURVE",
"612 556 OFFCURVE",
"612 644 CURVE SMOOTH",
"612 733 OFFCURVE",
"573 733 OFFCURVE",
"525 733 CURVE SMOOTH"
);
}
);
width = 637;
}
);
note = F;
unicode = 0046;
},
{
glyphname = G;
layers = (
{
layerId = "05A6575B-AA27-4212-BC78-A0BDA398BBDE";
name = Bold;
paths = (
{
closed = 1;
nodes = (
"422 442 LINE SMOOTH",
"384 442 OFFCURVE",
"353 442 OFFCURVE",
"353 369 CURVE SMOOTH",
"353 295 OFFCURVE",
"378 295 OFFCURVE",
"418 295 CURVE SMOOTH",
"497 295 LINE",
"497 186 LINE",
"465 173 OFFCURVE",
"440 168 OFFCURVE",
"398 168 CURVE SMOOTH",
"300 168 OFFCURVE",
"202 257 OFFCURVE",
"202 375 CURVE SMOOTH",
"202 497 OFFCURVE",
"302 569 OFFCURVE",
"396 569 CURVE SMOOTH",
"455 569 OFFCURVE",
"490 546 OFFCURVE",
"504 537 CURVE SMOOTH",
"525 523 OFFCURVE",
"541 514 OFFCURVE",
"557 514 CURVE SMOOTH",
"577 514 OFFCURVE",
"599 528 OFFCURVE",
"628 567 CURVE SMOOTH",
"644 589 OFFCURVE",
"651 607 OFFCURVE",
"651 622 CURVE SMOOTH",
"651 651 OFFCURVE",
"626 668 OFFCURVE",
"596 688 CURVE SMOOTH",
"538 725 OFFCURVE",
"466 746 OFFCURVE",
"401 746 CURVE SMOOTH",
"202 746 OFFCURVE",
"25 588 OFFCURVE",
"25 377 CURVE SMOOTH",
"25 158 OFFCURVE",
"199 -10 OFFCURVE",
"394 -10 CURVE SMOOTH",
"459 -10 OFFCURVE",
"526 1 OFFCURVE",
"584 30 CURVE SMOOTH",
"621 49 OFFCURVE",
"674 90 OFFCURVE",
"674 138 CURVE SMOOTH",
"674 358 LINE SMOOTH",
"674 402 OFFCURVE",
"674 439 OFFCURVE",
"598 442 CURVE"
);
}
);
width = 714;
}
);
note = G;
rightKerningGroup = d;
unicode = 0047;
},
{
glyphname = H;
layers = (
{
layerId = "05A6575B-AA27-4212-BC78-A0BDA398BBDE";
name = Bold;
paths = (
{
closed = 1;
nodes = (
"482 733 OFFCURVE",
"482 693 OFFCURVE",
"482 645 CURVE SMOOTH",
"482 440 LINE",
"217 440 LINE",
"217 644 LINE SMOOTH",
"217 692 OFFCURVE",
"217 733 OFFCURVE",
"129 733 CURVE SMOOTH",
"40 733 OFFCURVE",
"40 693 OFFCURVE",
"40 645 CURVE SMOOTH",
"40 90 LINE SMOOTH",
"40 42 OFFCURVE",
"40 1 OFFCURVE",
"128 1 CURVE SMOOTH",
"217 1 OFFCURVE",
"217 41 OFFCURVE",
"217 89 CURVE SMOOTH",
"217 293 LINE",
"482 293 LINE",
"482 90 LINE SMOOTH",
"482 42 OFFCURVE",
"482 1 OFFCURVE",
"570 1 CURVE SMOOTH",
"659 1 OFFCURVE",
"659 41 OFFCURVE",
"659 89 CURVE SMOOTH",
"659 644 LINE SMOOTH",
"659 692 OFFCURVE",
"659 733 OFFCURVE",
"571 733 CURVE SMOOTH"
);
}
);
width = 699;
}
);
note = H;
unicode = 0048;
},
{
glyphname = I;
layers = (
{
layerId = "05A6575B-AA27-4212-BC78-A0BDA398BBDE";
name = Bold;
paths = (
{
closed = 1;
nodes = (
"40 89 LINE SMOOTH",
"40 41 OFFCURVE",
"40 0 OFFCURVE",
"128 0 CURVE SMOOTH",
"217 0 OFFCURVE",
"217 40 OFFCURVE",
"217 88 CURVE SMOOTH",
"217 644 LINE SMOOTH",
"217 692 OFFCURVE",
"217 733 OFFCURVE",
"129 733 CURVE SMOOTH",
"40 733 OFFCURVE",
"40 693 OFFCURVE",
"40 645 CURVE SMOOTH"
);
}
);
width = 257;
}
);
leftKerningGroup = I;
note = I;
rightKerningGroup = d;
unicode = 0049;
},
{
glyphname = Iacute;
layers = (
{
layerId = "05A6575B-AA27-4212-BC78-A0BDA398BBDE";
name = Bold;
paths = (
{
closed = 1;
nodes = (
"46 89 LINE SMOOTH",
"46 41 OFFCURVE",
"46 0 OFFCURVE",
"134 0 CURVE SMOOTH",
"223 0 OFFCURVE",
"223 40 OFFCURVE",
"223 88 CURVE SMOOTH",
"223 644 LINE SMOOTH",
"223 692 OFFCURVE",
"223 733 OFFCURVE",
"135 733 CURVE SMOOTH",
"46 733 OFFCURVE",
"46 693 OFFCURVE",
"46 645 CURVE SMOOTH"
);
},
{
closed = 1;
nodes = (
"274 828 LINE SMOOTH",
"297 835 OFFCURVE",
"317 842 OFFCURVE",
"317 873 CURVE SMOOTH",
"317 884 OFFCURVE",
"315 897 OFFCURVE",
"309 915 CURVE SMOOTH",
"295 962 OFFCURVE",
"279 974 OFFCURVE",
"261 974 CURVE SMOOTH",
"252 974 OFFCURVE",
"242 970 OFFCURVE",
"231 967 CURVE SMOOTH",
"66 916 LINE SMOOTH",
"43 909 OFFCURVE",
"23 902 OFFCURVE",
"23 871 CURVE SMOOTH",
"23 860 OFFCURVE",
"25 846 OFFCURVE",
"31 828 CURVE SMOOTH",
"46 781 OFFCURVE",
"62 769 OFFCURVE",
"80 769 CURVE SMOOTH",
"89 769 OFFCURVE",
"97 772 OFFCURVE",
"107 775 CURVE",
"108 775 OFFCURVE",
"109 776 OFFCURVE",
"110 776 CURVE"
);
}
);
width = 269;
}
);
leftKerningGroup = I;
note = Iacute;
rightKerningGroup = d;
unicode = 00CD;
},
{
glyphname = Icircumflex;
layers = (
{
layerId = "05A6575B-AA27-4212-BC78-A0BDA398BBDE";
name = Bold;
paths = (
{
closed = 1;
nodes = (
"46 89 LINE SMOOTH",
"46 41 OFFCURVE",
"46 0 OFFCURVE",
"134 0 CURVE SMOOTH",
"223 0 OFFCURVE",
"223 40 OFFCURVE",
"223 88 CURVE SMOOTH",
"223 644 LINE SMOOTH",
"223 692 OFFCURVE",
"223 733 OFFCURVE",
"135 733 CURVE SMOOTH",
"46 733 OFFCURVE",
"46 693 OFFCURVE",
"46 645 CURVE SMOOTH"
);
},
{
closed = 1;
nodes = (
"252 939 OFFCURVE",
"159 969 OFFCURVE",
"159 969 CURVE",
"154 970 OFFCURVE",
"144 974 OFFCURVE",
"136 974 CURVE SMOOTH",
"127 974 OFFCURVE",
"117 970 OFFCURVE",
"112 969 CURVE",
"112 969 OFFCURVE",
"20 939 OFFCURVE",
"-27 923 CURVE SMOOTH",
"-45 917 OFFCURVE",
"-65 905 OFFCURVE",
"-65 878 CURVE SMOOTH",
"-65 867 OFFCURVE",
"-61 853 OFFCURVE",
"-53 836 CURVE SMOOTH",
"-34 795 OFFCURVE",
"-11 785 OFFCURVE",
"9 785 CURVE SMOOTH",
"20 785 OFFCURVE",
"31 788 OFFCURVE",
"40 791 CURVE",
"41 791 OFFCURVE",
"42 792 OFFCURVE",
"43 792 CURVE",
"136 832 LINE",
"232 790 LINE",
"242 787 OFFCURVE",
"253 783 OFFCURVE",
"264 783 CURVE SMOOTH",
"283 783 OFFCURVE",
"303 794 OFFCURVE",
"324 836 CURVE SMOOTH",
"332 851 OFFCURVE",
"335 865 OFFCURVE",
"335 876 CURVE SMOOTH",
"335 903 OFFCURVE",
"316 917 OFFCURVE",
"298 923 CURVE SMOOTH"
);
}
);
width = 270;
}
);
leftKerningGroup = I;
note = Icircumflex;
rightKerningGroup = d;
unicode = 00CE;
},
{
glyphname = Idieresis;
layers = (
{
layerId = "05A6575B-AA27-4212-BC78-A0BDA398BBDE";
name = Bold;
paths = (
{
closed = 1;
nodes = (
"47 89 LINE SMOOTH",
"47 41 OFFCURVE",
"47 0 OFFCURVE",
"135 0 CURVE SMOOTH",
"224 0 OFFCURVE",
"224 40 OFFCURVE",
"224 88 CURVE SMOOTH",
"224 644 LINE SMOOTH",
"224 692 OFFCURVE",
"224 733 OFFCURVE",
"136 733 CURVE SMOOTH",
"47 733 OFFCURVE",
"47 693 OFFCURVE",
"47 645 CURVE SMOOTH"
);
},
{
closed = 1;
nodes = (
"91 795 OFFCURVE",
"91 835 OFFCURVE",
"91 883 CURVE SMOOTH",
"91 932 OFFCURVE",
"91 973 OFFCURVE",
"2 973 CURVE SMOOTH",
"-88 973 OFFCURVE",
"-87 934 OFFCURVE",
"-88 885 CURVE SMOOTH",
"-88 836 OFFCURVE",
"-88 795 OFFCURVE",
"1 795 CURVE SMOOTH"
);
},
{
closed = 1;
nodes = (
"361 795 OFFCURVE",
"361 835 OFFCURVE",
"361 883 CURVE SMOOTH",
"361 932 OFFCURVE",
"361 973 OFFCURVE",
"272 973 CURVE SMOOTH",
"182 973 OFFCURVE",
"182 934 OFFCURVE",
"182 885 CURVE SMOOTH",
"182 836 OFFCURVE",
"182 795 OFFCURVE",
"271 795 CURVE SMOOTH"
);
}
);
width = 268;
}
);
leftKerningGroup = I;
note = Idieresis;
rightKerningGroup = d;
unicode = 00CF;
},
{
glyphname = Igrave;
layers = (
{
layerId = "05A6575B-AA27-4212-BC78-A0BDA398BBDE";
name = Bold;
paths = (
{
closed = 1;
nodes = (
"45 89 LINE SMOOTH",
"45 41 OFFCURVE",
"45 0 OFFCURVE",
"133 0 CURVE SMOOTH",
"222 0 OFFCURVE",
"222 40 OFFCURVE",
"222 88 CURVE SMOOTH",
"222 644 LINE SMOOTH",
"222 692 OFFCURVE",
"222 733 OFFCURVE",
"134 733 CURVE SMOOTH",
"45 733 OFFCURVE",
"45 693 OFFCURVE",
"45 645 CURVE SMOOTH"
);
},
{
closed = 1;
nodes = (
"159 763 LINE",
"160 763 OFFCURVE",
"161 762 OFFCURVE",
"162 762 CURVE",
"172 759 OFFCURVE",
"180 756 OFFCURVE",
"189 756 CURVE SMOOTH",
"207 756 OFFCURVE",
"223 768 OFFCURVE",
"238 815 CURVE SMOOTH",
"244 833 OFFCURVE",
"246 846 OFFCURVE",
"246 857 CURVE SMOOTH",
"246 889 OFFCURVE",
"225 896 OFFCURVE",
"203 903 CURVE SMOOTH",
"38 954 LINE SMOOTH",
"27 957 OFFCURVE",
"17 961 OFFCURVE",
"8 961 CURVE SMOOTH",
"-10 961 OFFCURVE",
"-26 949 OFFCURVE",
"-41 902 CURVE SMOOTH",
"-47 884 OFFCURVE",
"-49 871 OFFCURVE",
"-49 860 CURVE SMOOTH",
"-49 829 OFFCURVE",
"-29 822 OFFCURVE",
"-6 815 CURVE SMOOTH"
);
}
);
width = 267;
}
);
leftKerningGroup = I;
note = Igrave;
rightKerningGroup = d;
unicode = 00CC;
},
{
glyphname = J;
layers = (
{
layerId = "05A6575B-AA27-4212-BC78-A0BDA398BBDE";
name = Bold;
paths = (
{
closed = 1;
nodes = (
"333 733 OFFCURVE",
"332 686 OFFCURVE",
"332 637 CURVE SMOOTH",
"332 263 LINE SMOOTH",
"332 204 OFFCURVE",
"293 168 OFFCURVE",
"244 168 CURVE SMOOTH",
"205 168 OFFCURVE",
"184 189 OFFCURVE",
"177 196 CURVE SMOOTH",
"158 215 OFFCURVE",
"137 234 OFFCURVE",
"113 234 CURVE SMOOTH",
"95 234 OFFCURVE",
"75 224 OFFCURVE",
"50 198 CURVE SMOOTH",
"24 171 OFFCURVE",
"15 150 OFFCURVE",
"15 132 CURVE SMOOTH",
"15 109 OFFCURVE",
"31 92 OFFCURVE",
"50 72 CURVE",
"50 72 OFFCURVE",
"122 -10 OFFCURVE",
"239 -10 CURVE SMOOTH",
"402 -10 OFFCURVE",
"509 122 OFFCURVE",
"509 256 CURVE SMOOTH",
"509 643 LINE SMOOTH",
"509 690 OFFCURVE",
"507 733 OFFCURVE",
"423 733 CURVE SMOOTH"
);
}
);
width = 549;
}
);
note = J;
rightKerningGroup = d;
unicode = 004A;
},
{
glyphname = K;
layers = (
{
layerId = "05A6575B-AA27-4212-BC78-A0BDA398BBDE";
name = Bold;
paths = (
{
closed = 1;
nodes = (
"354 368 OFFCURVE",
"507 514 OFFCURVE",
"571 588 CURVE SMOOTH",
"588 607 OFFCURVE",
"604 625 OFFCURVE",
"604 647 CURVE SMOOTH",
"604 665 OFFCURVE",
"593 686 OFFCURVE",
"562 713 CURVE SMOOTH",
"535 736 OFFCURVE",
"515 745 OFFCURVE",
"498 745 CURVE SMOOTH",
"473 745 OFFCURVE",
"456 726 OFFCURVE",
"437 704 CURVE SMOOTH",
"419 683 OFFCURVE",
"273 516 OFFCURVE",
"217 453 CURVE",
"217 644 LINE SMOOTH",
"217 692 OFFCURVE",
"217 733 OFFCURVE",
"129 733 CURVE SMOOTH",
"40 733 OFFCURVE",
"40 693 OFFCURVE",
"40 645 CURVE SMOOTH",
"40 89 LINE SMOOTH",
"40 41 OFFCURVE",
"40 0 OFFCURVE",
"128 0 CURVE SMOOTH",
"217 0 OFFCURVE",
"217 40 OFFCURVE",
"217 88 CURVE SMOOTH",
"217 283 LINE",
"437 32 LINE SMOOTH",
"456 10 OFFCURVE",
"473 -10 OFFCURVE",
"498 -10 CURVE SMOOTH",
"515 -10 OFFCURVE",
"535 -1 OFFCURVE",
"562 22 CURVE SMOOTH",
"593 49 OFFCURVE",
"604 70 OFFCURVE",
"604 88 CURVE SMOOTH",
"604 110 OFFCURVE",
"588 128 OFFCURVE",
"571 147 CURVE SMOOTH",
"507 221 OFFCURVE",
"354 368 OFFCURVE",
"354 368 CURVE SMOOTH"
);
}
);
width = 639;
}
);
note = K;
rightKerningGroup = d;
unicode = 004B;
},
{
glyphname = L;
layers = (
{
layerId = "05A6575B-AA27-4212-BC78-A0BDA398BBDE";
name = Bold;
paths = (
{
closed = 1;
nodes = (
"217 148 LINE",
"217 644 LINE SMOOTH",
"217 692 OFFCURVE",
"217 733 OFFCURVE",
"129 733 CURVE SMOOTH",
"40 733 OFFCURVE",
"40 693 OFFCURVE",
"40 645 CURVE SMOOTH",
"40 89 LINE SMOOTH",
"40 41 OFFCURVE",
"40 0 OFFCURVE",
"128 0 CURVE SMOOTH",
"488 0 LINE SMOOTH",
"528 0 OFFCURVE",
"562 1 OFFCURVE",
"562 74 CURVE SMOOTH",
"562 148 OFFCURVE",
"529 148 OFFCURVE",
"489 148 CURVE SMOOTH"
);
}
);
width = 587;
}
);
note = L;
rightKerningGroup = L;
unicode = 004C;
},
{
glyphname = Lslash;
layers = (
{
layerId = "05A6575B-AA27-4212-BC78-A0BDA398BBDE";
name = Bold;
paths = (
{
closed = 1;
nodes = (
"317 148 LINE",
"317 341 LINE",
"415 369 LINE SMOOTH",
"440 376 OFFCURVE",
"463 382 OFFCURVE",
"463 415 CURVE SMOOTH",
"463 424 OFFCURVE",
"461 434 OFFCURVE",
"458 447 CURVE",
"447 487 OFFCURVE",
"430 498 OFFCURVE",
"411 498 CURVE SMOOTH",
"401 498 OFFCURVE",
"391 495 OFFCURVE",
"381 492 CURVE SMOOTH",
"317 474 LINE",
"317 644 LINE SMOOTH",
"317 692 OFFCURVE",
"317 733 OFFCURVE",
"229 733 CURVE SMOOTH",
"140 733 OFFCURVE",
"140 693 OFFCURVE",
"140 645 CURVE SMOOTH",
"140 423 LINE",
"74 405 LINE SMOOTH",
"51 399 OFFCURVE",
"25 392 OFFCURVE",
"25 357 CURVE SMOOTH",
"25 349 OFFCURVE",
"27 339 OFFCURVE",
"30 327 CURVE",
"42 287 OFFCURVE",
"59 276 OFFCURVE",
"78 276 CURVE SMOOTH",
"88 276 OFFCURVE",
"98 279 OFFCURVE",
"108 282 CURVE SMOOTH",
"140 291 LINE",
"140 89 LINE SMOOTH",
"140 41 OFFCURVE",
"140 0 OFFCURVE",
"228 0 CURVE SMOOTH",
"588 0 LINE SMOOTH",
"628 0 OFFCURVE",
"662 1 OFFCURVE",
"662 74 CURVE SMOOTH",
"662 148 OFFCURVE",
"629 148 OFFCURVE",
"589 148 CURVE SMOOTH"
);
}
);
width = 687;
}
);
note = Lslash;
rightKerningGroup = L;
unicode = 0141;
},
{
glyphname = M;
layers = (
{
layerId = "05A6575B-AA27-4212-BC78-A0BDA398BBDE";
name = Bold;
paths = (
{
closed = 1;
nodes = (
"678 732 OFFCURVE",
"661 705 OFFCURVE",
"661 705 CURVE",
"604 633 OFFCURVE",
"434 408 OFFCURVE",
"434 408 CURVE SMOOTH",
"434 408 OFFCURVE",
"247 656 OFFCURVE",
"207 706 CURVE",
"207 706 OFFCURVE",
"190 732 OFFCURVE",
"129 732 CURVE SMOOTH",
"40 732 OFFCURVE",
"40 693 OFFCURVE",
"40 645 CURVE SMOOTH",
"40 90 LINE SMOOTH",
"40 40 OFFCURVE",
"41 1 OFFCURVE",
"127 1 CURVE SMOOTH",
"216 1 OFFCURVE",
"216 40 OFFCURVE",
"216 88 CURVE SMOOTH",
"216 425 LINE",
"229 409 OFFCURVE",
"324 275 OFFCURVE",
"359 231 CURVE",
"359 231 OFFCURVE",
"385 189 OFFCURVE",
"434 189 CURVE SMOOTH",
"485 189 OFFCURVE",
"509 230 OFFCURVE",
"509 230 CURVE",
"557 291 OFFCURVE",
"605 365 OFFCURVE",
"653 425 CURVE",
"653 90 LINE SMOOTH",
"653 42 OFFCURVE",
"653 1 OFFCURVE",
"741 1 CURVE SMOOTH",
"829 1 OFFCURVE",
"830 40 OFFCURVE",
"830 88 CURVE SMOOTH",
"830 643 LINE SMOOTH",
"830 692 OFFCURVE",
"829 732 OFFCURVE",
"742 732 CURVE SMOOTH"
);
}
);
width = 870;
}
);
note = M;
rightKerningGroup = d;
unicode = 004D;
},
{
glyphname = N;
layers = (
{
layerId = "05A6575B-AA27-4212-BC78-A0BDA398BBDE";
name = Bold;
paths = (
{
closed = 1;
nodes = (
"505 732 OFFCURVE",
"504 694 OFFCURVE",
"504 647 CURVE SMOOTH",
"504 309 LINE",
"433 401 OFFCURVE",
"222 688 OFFCURVE",
"222 688 CURVE",
"217 694 LINE SMOOTH",
"199 717 OFFCURVE",
"187 732 OFFCURVE",
"129 732 CURVE SMOOTH",
"41 732 OFFCURVE",
"40 694 OFFCURVE",
"40 647 CURVE SMOOTH",
"40 89 LINE SMOOTH",
"40 40 OFFCURVE",
"41 0 OFFCURVE",
"127 0 CURVE SMOOTH",
"216 0 OFFCURVE",
"216 40 OFFCURVE",
"216 88 CURVE SMOOTH",
"216 417 LINE",
"287 325 OFFCURVE",
"512 25 OFFCURVE",
"512 25 CURVE",
"523 11 OFFCURVE",
"534 0 OFFCURVE",
"591 0 CURVE SMOOTH",
"680 0 OFFCURVE",
"680 40 OFFCURVE",
"680 88 CURVE SMOOTH",
"680 643 LINE SMOOTH",
"680 691 OFFCURVE",
"680 732 OFFCURVE",
"593 732 CURVE SMOOTH"
);
}
);
width = 720;
}
);
note = N;
rightKerningGroup = N;
unicode = 004E;
},
{
glyphname = Ntilde;
layers = (
{
layerId = "05A6575B-AA27-4212-BC78-A0BDA398BBDE";
name = Bold;
paths = (
{
closed = 1;
nodes = (
"505 732 OFFCURVE",
"504 694 OFFCURVE",
"504 647 CURVE SMOOTH",
"504 309 LINE",
"433 401 OFFCURVE",
"222 688 OFFCURVE",
"222 688 CURVE",
"217 694 LINE SMOOTH",
"199 717 OFFCURVE",
"187 732 OFFCURVE",
"129 732 CURVE SMOOTH",
"41 732 OFFCURVE",
"40 694 OFFCURVE",
"40 647 CURVE SMOOTH",
"40 89 LINE SMOOTH",
"40 40 OFFCURVE",
"41 0 OFFCURVE",
"127 0 CURVE SMOOTH",
"216 0 OFFCURVE",
"216 40 OFFCURVE",
"216 88 CURVE SMOOTH",
"216 417 LINE",
"287 325 OFFCURVE",
"512 25 OFFCURVE",
"512 25 CURVE",
"523 11 OFFCURVE",
"534 0 OFFCURVE",
"591 0 CURVE SMOOTH",
"680 0 OFFCURVE",
"680 40 OFFCURVE",
"680 88 CURVE SMOOTH",
"680 643 LINE SMOOTH",
"680 691 OFFCURVE",
"680 732 OFFCURVE",
"593 732 CURVE SMOOTH"
);
},
{
closed = 1;
nodes = (
"510 968 OFFCURVE",
"498 973 OFFCURVE",
"488 973 CURVE SMOOTH",
"467 973 OFFCURVE",
"454 955 OFFCURVE",
"443 935 CURVE",
"443 935 OFFCURVE",
"436 923 OFFCURVE",
"418 923 CURVE SMOOTH",
"392 923 OFFCURVE",
"374 973 OFFCURVE",
"306 973 CURVE SMOOTH",
"212 973 OFFCURVE",
"174 894 OFFCURVE",
"174 894 CURVE",
"166 881 OFFCURVE",
"160 870 OFFCURVE",
"160 859 CURVE SMOOTH",
"160 846 OFFCURVE",
"168 833 OFFCURVE",
"192 812 CURVE SMOOTH",
"208 798 OFFCURVE",
"220 792 OFFCURVE",
"231 792 CURVE SMOOTH",
"252 792 OFFCURVE",
"266 813 OFFCURVE",
"277 832 CURVE",
"278 832 OFFCURVE",
"285 844 OFFCURVE",
"301 844 CURVE SMOOTH",
"329 844 OFFCURVE",
"347 792 OFFCURVE",
"416 792 CURVE SMOOTH",
"509 792 OFFCURVE",
"546 873 OFFCURVE",
"546 873 CURVE",
"554 886 OFFCURVE",
"560 898 OFFCURVE",
"560 910 CURVE SMOOTH",
"560 924 OFFCURVE",
"551 939 OFFCURVE",
"524 958 CURVE SMOOTH"
);
}
);
width = 720;
}
);
note = Ntilde;
rightKerningGroup = N;
unicode = 00D1;
},
{
glyphname = O;
layers = (
{
layerId = "05A6575B-AA27-4212-BC78-A0BDA398BBDE";
name = Bold;
paths = (
{
closed = 1;
nodes = (
"200 742 OFFCURVE",
"25 588 OFFCURVE",
"25 360 CURVE SMOOTH",
"25 160 OFFCURVE",
"184 -12 OFFCURVE",
"393 -12 CURVE SMOOTH",
"594 -12 OFFCURVE",
"750 163 OFFCURVE",
"750 364 CURVE SMOOTH",
"750 588 OFFCURVE",
"576 742 OFFCURVE",
"384 742 CURVE SMOOTH"
);
},
{
closed = 1;
nodes = (
"300 165 OFFCURVE",
"202 240 OFFCURVE",
"202 364 CURVE SMOOTH",
"202 491 OFFCURVE",
"299 565 OFFCURVE",
"388 565 CURVE SMOOTH",
"474 565 OFFCURVE",
"573 492 OFFCURVE",
"573 365 CURVE SMOOTH",
"573 235 OFFCURVE",
"474 165 OFFCURVE",
"387 165 CURVE SMOOTH"
);
}
);
width = 775;
}
);
note = O;
rightKerningGroup = O;
unicode = 004F;
},
{
glyphname = Oacute;
layers = (
{
layerId = "05A6575B-AA27-4212-BC78-A0BDA398BBDE";
name = Bold;
paths = (
{
closed = 1;
nodes = (
"200 742 OFFCURVE",
"25 588 OFFCURVE",
"25 360 CURVE SMOOTH",
"25 160 OFFCURVE",
"184 -12 OFFCURVE",
"393 -12 CURVE SMOOTH",
"594 -12 OFFCURVE",
"750 163 OFFCURVE",
"750 364 CURVE SMOOTH",
"750 588 OFFCURVE",
"576 742 OFFCURVE",
"384 742 CURVE SMOOTH"
);
},
{
closed = 1;
nodes = (
"300 165 OFFCURVE",
"202 240 OFFCURVE",
"202 364 CURVE SMOOTH",
"202 491 OFFCURVE",
"299 565 OFFCURVE",
"388 565 CURVE SMOOTH",
"474 565 OFFCURVE",
"573 492 OFFCURVE",
"573 365 CURVE SMOOTH",
"573 235 OFFCURVE",
"474 165 OFFCURVE",
"387 165 CURVE SMOOTH"
);
},
{
closed = 1;
nodes = (
"513 828 LINE SMOOTH",
"536 835 OFFCURVE",
"556 842 OFFCURVE",
"556 873 CURVE SMOOTH",
"556 884 OFFCURVE",
"554 897 OFFCURVE",
"548 915 CURVE SMOOTH",
"534 962 OFFCURVE",
"518 974 OFFCURVE",
"500 974 CURVE SMOOTH",
"491 974 OFFCURVE",
"481 970 OFFCURVE",
"470 967 CURVE SMOOTH",
"305 916 LINE SMOOTH",
"282 909 OFFCURVE",
"262 902 OFFCURVE",
"262 871 CURVE SMOOTH",
"262 860 OFFCURVE",
"264 846 OFFCURVE",
"270 828 CURVE SMOOTH",
"285 781 OFFCURVE",
"301 769 OFFCURVE",
"319 769 CURVE SMOOTH",
"328 769 OFFCURVE",
"336 772 OFFCURVE",
"346 775 CURVE",
"347 775 OFFCURVE",
"348 776 OFFCURVE",
"349 776 CURVE"
);
}
);
width = 775;
}
);
note = Oacute;
rightKerningGroup = O;
unicode = 00D3;
},
{
glyphname = Ocircumflex;
layers = (
{
layerId = "05A6575B-AA27-4212-BC78-A0BDA398BBDE";
name = Bold;
paths = (
{
closed = 1;
nodes = (
"200 742 OFFCURVE",
"25 588 OFFCURVE",
"25 360 CURVE SMOOTH",
"25 160 OFFCURVE",
"184 -12 OFFCURVE",
"393 -12 CURVE SMOOTH",
"594 -12 OFFCURVE",
"750 163 OFFCURVE",
"750 364 CURVE SMOOTH",
"750 588 OFFCURVE",
"576 742 OFFCURVE",
"384 742 CURVE SMOOTH"
);
},
{
closed = 1;
nodes = (
"300 165 OFFCURVE",
"202 240 OFFCURVE",
"202 364 CURVE SMOOTH",
"202 491 OFFCURVE",
"299 565 OFFCURVE",
"388 565 CURVE SMOOTH",
"474 565 OFFCURVE",
"573 492 OFFCURVE",
"573 365 CURVE SMOOTH",
"573 235 OFFCURVE",
"474 165 OFFCURVE",
"387 165 CURVE SMOOTH"
);
},
{
closed = 1;
nodes = (
"506 939 OFFCURVE",
"413 969 OFFCURVE",
"413 969 CURVE",
"408 970 OFFCURVE",
"398 974 OFFCURVE",
"390 974 CURVE SMOOTH",
"381 974 OFFCURVE",
"371 970 OFFCURVE",
"366 969 CURVE",
"366 969 OFFCURVE",
"274 939 OFFCURVE",
"227 923 CURVE SMOOTH",
"209 917 OFFCURVE",
"189 905 OFFCURVE",
"189 878 CURVE SMOOTH",
"189 867 OFFCURVE",
"193 853 OFFCURVE",
"201 836 CURVE SMOOTH",
"220 795 OFFCURVE",
"243 785 OFFCURVE",
"263 785 CURVE SMOOTH",
"274 785 OFFCURVE",
"285 788 OFFCURVE",
"294 791 CURVE",
"295 791 OFFCURVE",
"296 792 OFFCURVE",
"297 792 CURVE",
"390 832 LINE",
"486 790 LINE",
"496 787 OFFCURVE",
"507 783 OFFCURVE",
"518 783 CURVE SMOOTH",
"537 783 OFFCURVE",
"557 794 OFFCURVE",
"578 836 CURVE SMOOTH",
"586 851 OFFCURVE",
"589 865 OFFCURVE",
"589 876 CURVE SMOOTH",
"589 903 OFFCURVE",
"570 917 OFFCURVE",
"552 923 CURVE SMOOTH"
);
}
);
width = 775;
}
);
note = Ocircumflex;
rightKerningGroup = O;
unicode = 00D4;
},
{
glyphname = Odieresis;
layers = (
{
layerId = "05A6575B-AA27-4212-BC78-A0BDA398BBDE";
name = Bold;
paths = (
{
closed = 1;
nodes = (
"200 742 OFFCURVE",
"25 588 OFFCURVE",
"25 360 CURVE SMOOTH",
"25 160 OFFCURVE",
"184 -12 OFFCURVE",
"393 -12 CURVE SMOOTH",
"594 -12 OFFCURVE",
"750 163 OFFCURVE",
"750 364 CURVE SMOOTH",
"750 588 OFFCURVE",
"576 742 OFFCURVE",
"384 742 CURVE SMOOTH"
);
},
{
closed = 1;
nodes = (
"300 165 OFFCURVE",
"202 240 OFFCURVE",
"202 364 CURVE SMOOTH",
"202 491 OFFCURVE",
"299 565 OFFCURVE",
"388 565 CURVE SMOOTH",
"474 565 OFFCURVE",
"573 492 OFFCURVE",
"573 365 CURVE SMOOTH",
"573 235 OFFCURVE",
"474 165 OFFCURVE",
"387 165 CURVE SMOOTH"
);
},
{
closed = 1;
nodes = (
"338 795 OFFCURVE",
"338 835 OFFCURVE",
"338 883 CURVE SMOOTH",
"338 932 OFFCURVE",
"338 973 OFFCURVE",
"249 973 CURVE SMOOTH",
"159 973 OFFCURVE",
"160 934 OFFCURVE",
"159 885 CURVE SMOOTH",
"159 836 OFFCURVE",
"159 795 OFFCURVE",
"248 795 CURVE SMOOTH"
);
},
{
closed = 1;
nodes = (
"608 795 OFFCURVE",
"608 835 OFFCURVE",
"608 883 CURVE SMOOTH",
"608 932 OFFCURVE",
"608 973 OFFCURVE",
"519 973 CURVE SMOOTH",
"429 973 OFFCURVE",
"429 934 OFFCURVE",
"429 885 CURVE SMOOTH",
"429 836 OFFCURVE",
"429 795 OFFCURVE",
"518 795 CURVE SMOOTH"
);
}
);
width = 775;
}
);
note = Odieresis;
rightKerningGroup = O;
unicode = 00D6;
},
{
glyphname = Ograve;
layers = (
{
layerId = "05A6575B-AA27-4212-BC78-A0BDA398BBDE";
name = Bold;
paths = (
{
closed = 1;
nodes = (
"200 742 OFFCURVE",
"25 588 OFFCURVE",
"25 360 CURVE SMOOTH",
"25 160 OFFCURVE",
"184 -12 OFFCURVE",
"393 -12 CURVE SMOOTH",
"594 -12 OFFCURVE",
"750 163 OFFCURVE",
"750 364 CURVE SMOOTH",
"750 588 OFFCURVE",
"576 742 OFFCURVE",
"384 742 CURVE SMOOTH"
);
},
{
closed = 1;
nodes = (
"300 165 OFFCURVE",
"202 240 OFFCURVE",
"202 364 CURVE SMOOTH",
"202 491 OFFCURVE",
"299 565 OFFCURVE",
"388 565 CURVE SMOOTH",
"474 565 OFFCURVE",
"573 492 OFFCURVE",
"573 365 CURVE SMOOTH",
"573 235 OFFCURVE",
"474 165 OFFCURVE",
"387 165 CURVE SMOOTH"
);
},
{
closed = 1;
nodes = (
"426 763 LINE",
"427 763 OFFCURVE",
"428 762 OFFCURVE",
"429 762 CURVE",
"439 759 OFFCURVE",
"447 756 OFFCURVE",
"456 756 CURVE SMOOTH",
"474 756 OFFCURVE",
"490 768 OFFCURVE",
"505 815 CURVE SMOOTH",
"511 833 OFFCURVE",
"513 846 OFFCURVE",
"513 857 CURVE SMOOTH",
"513 889 OFFCURVE",
"492 896 OFFCURVE",
"470 903 CURVE SMOOTH",
"305 954 LINE SMOOTH",
"294 957 OFFCURVE",
"284 961 OFFCURVE",
"275 961 CURVE SMOOTH",
"257 961 OFFCURVE",
"241 949 OFFCURVE",
"226 902 CURVE SMOOTH",
"220 884 OFFCURVE",
"218 871 OFFCURVE",
"218 860 CURVE SMOOTH",
"218 829 OFFCURVE",
"238 822 OFFCURVE",
"261 815 CURVE SMOOTH"
);
}
);
width = 775;
}
);
note = Ograve;
rightKerningGroup = O;
unicode = 00D2;
},
{
glyphname = Oslash;
layers = (
{
layerId = "05A6575B-AA27-4212-BC78-A0BDA398BBDE";
name = Bold;
paths = (
{
closed = 1;
nodes = (
"310 -2 LINE",
"337 -8 OFFCURVE",
"364 -12 OFFCURVE",
"393 -12 CURVE SMOOTH",
"594 -12 OFFCURVE",
"750 163 OFFCURVE",
"750 364 CURVE SMOOTH",
"750 483 OFFCURVE",
"700 583 OFFCURVE",
"625 650 CURVE",
"629 659 LINE",
"637 680 OFFCURVE",
"643 696 OFFCURVE",
"643 709 CURVE SMOOTH",
"643 732 OFFCURVE",
"628 747 OFFCURVE",
"589 766 CURVE SMOOTH",
"565 777 OFFCURVE",
"548 782 OFFCURVE",
"534 782 CURVE SMOOTH",
"504 782 OFFCURVE",
"493 759 OFFCURVE",
"481 734 CURVE",
"479 729 LINE",
"448 738 OFFCURVE",
"416 742 OFFCURVE",
"384 742 CURVE SMOOTH",
"200 742 OFFCURVE",
"25 588 OFFCURVE",
"25 360 CURVE SMOOTH",
"25 244 OFFCURVE",
"78 138 OFFCURVE",
"163 69 CURVE",
"159 61 LINE",
"152 40 OFFCURVE",
"147 24 OFFCURVE",
"147 12 CURVE SMOOTH",
"147 -8 OFFCURVE",
"160 -21 OFFCURVE",
"201 -40 CURVE SMOOTH",
"225 -51 OFFCURVE",
"242 -56 OFFCURVE",
"256 -56 CURVE SMOOTH",
"286 -56 OFFCURVE",
"296 -34 OFFCURVE",
"308 -8 CURVE"
);
},
{
closed = 1;
nodes = (
"202 491 OFFCURVE",
"299 565 OFFCURVE",
"388 565 CURVE SMOOTH",
"392 565 OFFCURVE",
"396 565 OFFCURVE",
"400 564 CURVE",
"243 238 LINE",
"218 270 OFFCURVE",
"202 313 OFFCURVE",
"202 364 CURVE SMOOTH"
);
},
{
closed = 1;
nodes = (
"573 237 OFFCURVE",
"477 167 OFFCURVE",
"391 165 CURVE",
"541 477 LINE",
"561 447 OFFCURVE",
"573 409 OFFCURVE",
"573 365 CURVE SMOOTH"
);
}
);
width = 775;
}
);
note = Oslash;
rightKerningGroup = O;
unicode = 00D8;
},
{
glyphname = Otilde;
layers = (
{
layerId = "05A6575B-AA27-4212-BC78-A0BDA398BBDE";
name = Bold;
paths = (
{
closed = 1;
nodes = (
"200 742 OFFCURVE",
"25 588 OFFCURVE",
"25 360 CURVE SMOOTH",
"25 160 OFFCURVE",
"184 -12 OFFCURVE",
"393 -12 CURVE SMOOTH",
"594 -12 OFFCURVE",
"750 163 OFFCURVE",
"750 364 CURVE SMOOTH",
"750 588 OFFCURVE",
"576 742 OFFCURVE",
"384 742 CURVE SMOOTH"
);
},
{
closed = 1;
nodes = (
"300 165 OFFCURVE",
"202 240 OFFCURVE",
"202 364 CURVE SMOOTH",
"202 491 OFFCURVE",
"299 565 OFFCURVE",
"388 565 CURVE SMOOTH",
"474 565 OFFCURVE",
"573 492 OFFCURVE",
"573 365 CURVE SMOOTH",
"573 235 OFFCURVE",
"474 165 OFFCURVE",
"387 165 CURVE SMOOTH"
);
},
{
closed = 1;
nodes = (
"559 968 OFFCURVE",
"547 973 OFFCURVE",
"537 973 CURVE SMOOTH",
"516 973 OFFCURVE",
"503 955 OFFCURVE",
"492 935 CURVE",
"492 935 OFFCURVE",
"485 923 OFFCURVE",
"467 923 CURVE SMOOTH",
"441 923 OFFCURVE",
"423 973 OFFCURVE",
"355 973 CURVE SMOOTH",
"261 973 OFFCURVE",
"223 894 OFFCURVE",
"223 894 CURVE",
"215 881 OFFCURVE",
"209 870 OFFCURVE",
"209 859 CURVE SMOOTH",
"209 846 OFFCURVE",
"217 833 OFFCURVE",
"241 812 CURVE SMOOTH",
"257 798 OFFCURVE",
"269 792 OFFCURVE",
"280 792 CURVE SMOOTH",
"301 792 OFFCURVE",
"315 813 OFFCURVE",
"326 832 CURVE",
"327 832 OFFCURVE",
"334 844 OFFCURVE",
"350 844 CURVE SMOOTH",
"378 844 OFFCURVE",
"396 792 OFFCURVE",
"465 792 CURVE SMOOTH",
"558 792 OFFCURVE",
"595 873 OFFCURVE",
"595 873 CURVE",
"603 886 OFFCURVE",
"609 898 OFFCURVE",
"609 910 CURVE SMOOTH",
"609 924 OFFCURVE",
"600 939 OFFCURVE",
"573 958 CURVE SMOOTH"
);
}
);
width = 775;
}
);
note = Otilde;
rightKerningGroup = O;
unicode = 00D5;
},
{
glyphname = OE;
layers = (
{
layerId = "05A6575B-AA27-4212-BC78-A0BDA398BBDE";
name = Bold;
paths = (
{
closed = 1;
nodes = (
"671 177 LINE",
"671 278 LINE",
"867 278 LINE SMOOTH",
"916 278 OFFCURVE",
"957 278 OFFCURVE",
"957 366 CURVE SMOOTH",
"957 455 OFFCURVE",
"917 455 OFFCURVE",
"869 455 CURVE SMOOTH",
"671 455 LINE",
"671 556 LINE",
"978 556 LINE SMOOTH",
"1026 556 OFFCURVE",
"1067 556 OFFCURVE",
"1067 644 CURVE SMOOTH",
"1067 733 OFFCURVE",
"1027 733 OFFCURVE",
"979 733 CURVE SMOOTH",
"373 733 LINE SMOOTH",
"194 733 OFFCURVE",
"25 579 OFFCURVE",
"25 362 CURVE SMOOTH",
"25 173 OFFCURVE",
"174 11 OFFCURVE",
"373 0 CURVE",
"978 0 LINE SMOOTH",
"1026 0 OFFCURVE",
"1067 0 OFFCURVE",
"1067 88 CURVE SMOOTH",
"1067 177 OFFCURVE",
"1027 177 OFFCURVE",
"979 177 CURVE SMOOTH"
);
},
{
closed = 1;
nodes = (
"373 173 LINE",
"290 180 OFFCURVE",
"202 251 OFFCURVE",
"202 365 CURVE SMOOTH",
"202 482 OFFCURVE",
"289 553 OFFCURVE",
"373 560 CURVE",
"494 560 LINE",
"494 173 LINE"
);
}
);
width = 1092;
}
);
note = OE;
rightKerningGroup = d;
unicode = 0152;
},
{
glyphname = P;
layers = (
{
layerId = "05A6575B-AA27-4212-BC78-A0BDA398BBDE";
name = Bold;
paths = (
{
closed = 1;
nodes = (
"607 649 OFFCURVE",
"449 733 OFFCURVE",
"343 733 CURVE SMOOTH",
"129 733 LINE SMOOTH",
"40 733 OFFCURVE",
"40 693 OFFCURVE",
"40 645 CURVE SMOOTH",
"40 90 LINE SMOOTH",
"40 42 OFFCURVE",
"40 1 OFFCURVE",
"128 1 CURVE SMOOTH",
"217 1 OFFCURVE",
"217 41 OFFCURVE",
"217 89 CURVE SMOOTH",
"217 202 LINE",
"342 202 LINE SMOOTH",
"450 202 OFFCURVE",
"607 286 OFFCURVE",
"607 467 CURVE SMOOTH"
);
},
{
closed = 1;
nodes = (
"431 401 OFFCURVE",
"373 379 OFFCURVE",
"343 379 CURVE SMOOTH",
"217 379 LINE",
"217 556 LINE",
"342 556 LINE SMOOTH",
"375 556 OFFCURVE",
"431 532 OFFCURVE",
"431 468 CURVE SMOOTH"
);
}
);
width = 632;
}
);
leftKerningGroup = P;
note = P;
rightKerningGroup = P;
unicode = 0050;
},
{
glyphname = Thorn;
layers = (
{
layerId = "05A6575B-AA27-4212-BC78-A0BDA398BBDE";
name = Bold;
paths = (
{
closed = 1;
nodes = (
"40 90 LINE SMOOTH",
"40 42 OFFCURVE",
"40 1 OFFCURVE",
"128 1 CURVE SMOOTH",
"217 1 OFFCURVE",
"217 41 OFFCURVE",
"217 89 CURVE SMOOTH",
"217 101 LINE",
"342 101 LINE SMOOTH",
"450 101 OFFCURVE",
"607 185 OFFCURVE",
"607 366 CURVE SMOOTH",
"607 548 OFFCURVE",
"449 632 OFFCURVE",
"343 632 CURVE SMOOTH",
"217 632 LINE",
"217 644 LINE SMOOTH",
"217 692 OFFCURVE",
"217 733 OFFCURVE",
"129 733 CURVE SMOOTH",
"40 733 OFFCURVE",
"40 693 OFFCURVE",
"40 645 CURVE SMOOTH"
);
},
{
closed = 1;
nodes = (
"431 300 OFFCURVE",
"373 278 OFFCURVE",
"343 278 CURVE SMOOTH",
"217 278 LINE",
"217 455 LINE",
"342 455 LINE SMOOTH",
"375 455 OFFCURVE",
"431 431 OFFCURVE",
"431 367 CURVE SMOOTH"
);
}
);
width = 634;
}
);
note = Thorn;
rightKerningGroup = d;
unicode = 00DE;
},
{
glyphname = Q;
layers = (
{
layerId = "05A6575B-AA27-4212-BC78-A0BDA398BBDE";
name = Bold;
paths = (
{
closed = 1;
nodes = (
"749 175 OFFCURVE",
"731 187 OFFCURVE",
"713 199 CURVE",
"736 250 OFFCURVE",
"750 306 OFFCURVE",
"750 364 CURVE SMOOTH",
"750 588 OFFCURVE",
"576 742 OFFCURVE",
"384 742 CURVE SMOOTH",
"200 742 OFFCURVE",
"25 588 OFFCURVE",
"25 360 CURVE SMOOTH",
"25 160 OFFCURVE",
"184 -12 OFFCURVE",
"393 -12 CURVE SMOOTH",
"472 -12 OFFCURVE",
"544 15 OFFCURVE",
"602 60 CURVE",
"624 46 OFFCURVE",
"645 31 OFFCURVE",
"666 17 CURVE SMOOTH",
"686 3 OFFCURVE",
"704 -10 OFFCURVE",
"724 -10 CURVE SMOOTH",
"743 -10 OFFCURVE",
"764 3 OFFCURVE",
"789 39 CURVE SMOOTH",
"807 66 OFFCURVE",
"815 86 OFFCURVE",
"815 102 CURVE SMOOTH",
"815 130 OFFCURVE",
"792 145 OFFCURVE",
"767 162 CURVE SMOOTH"
);
},
{
closed = 1;
nodes = (
"300 165 OFFCURVE",
"202 240 OFFCURVE",
"202 364 CURVE SMOOTH",
"202 491 OFFCURVE",
"299 565 OFFCURVE",
"388 565 CURVE SMOOTH",
"474 565 OFFCURVE",
"573 492 OFFCURVE",
"573 365 CURVE SMOOTH",
"573 235 OFFCURVE",
"474 165 OFFCURVE",
"387 165 CURVE SMOOTH"
);
}
);
width = 830;
}
);
note = Q;
rightKerningGroup = d;
unicode = 0051;
},
{
glyphname = R;
layers = (
{
layerId = "05A6575B-AA27-4212-BC78-A0BDA398BBDE";
name = Bold;
paths = (
{
closed = 1;
nodes = (
"578 176 OFFCURVE",
"555 228 OFFCURVE",
"533 281 CURVE",
"577 324 OFFCURVE",
"608 385 OFFCURVE",
"608 467 CURVE SMOOTH",
"608 649 OFFCURVE",
"451 733 OFFCURVE",
"345 733 CURVE SMOOTH",
"129 733 LINE SMOOTH",
"40 733 OFFCURVE",
"40 693 OFFCURVE",
"40 645 CURVE SMOOTH",
"40 90 LINE SMOOTH",
"40 42 OFFCURVE",
"40 1 OFFCURVE",
"128 1 CURVE SMOOTH",
"217 1 OFFCURVE",
"217 41 OFFCURVE",
"217 89 CURVE SMOOTH",
"217 202 LINE",
"343 202 LINE",
"374 204 LINE",
"395 154 OFFCURVE",
"416 104 OFFCURVE",
"438 54 CURVE SMOOTH",
"452 22 OFFCURVE",
"464 -6 OFFCURVE",
"500 -6 CURVE SMOOTH",
"514 -6 OFFCURVE",
"531 -2 OFFCURVE",
"554 8 CURVE SMOOTH",
"602 28 OFFCURVE",
"616 49 OFFCURVE",
"616 72 CURVE SMOOTH",
"616 88 OFFCURVE",
"609 105 OFFCURVE",
"601 124 CURVE SMOOTH"
);
},
{
closed = 1;
nodes = (
"217 379 LINE",
"217 556 LINE",
"343 556 LINE SMOOTH",
"376 556 OFFCURVE",
"432 532 OFFCURVE",
"432 468 CURVE SMOOTH",
"432 401 OFFCURVE",
"374 379 OFFCURVE",
"345 379 CURVE SMOOTH"
);
}
);
width = 631;
}
);
note = R;
rightKerningGroup = d;
unicode = 0052;
},
{
glyphname = S;
layers = (
{
layerId = "05A6575B-AA27-4212-BC78-A0BDA398BBDE";
name = Bold;
paths = (
{
closed = 1;
nodes = (
"51 103 OFFCURVE",
"123 -10 OFFCURVE",
"291 -10 CURVE SMOOTH",
"400 -10 OFFCURVE",
"558 53 OFFCURVE",
"558 233 CURVE SMOOTH",
"558 516 OFFCURVE",
"214 396 OFFCURVE",
"214 525 CURVE SMOOTH",
"214 561 OFFCURVE",
"252 581 OFFCURVE",
"281 581 CURVE SMOOTH",
"344 581 OFFCURVE",
"354 556 OFFCURVE",
"370 545 CURVE SMOOTH",
"387 534 OFFCURVE",
"404 525 OFFCURVE",
"422 525 CURVE SMOOTH",
"443 525 OFFCURVE",
"466 537 OFFCURVE",
"492 575 CURVE SMOOTH",
"509 600 OFFCURVE",
"516 617 OFFCURVE",
"516 631 CURVE SMOOTH",
"516 649 OFFCURVE",
"503 662 OFFCURVE",
"485 679 CURVE",
"480 683 LINE",
"480 683 OFFCURVE",
"417 745 OFFCURVE",
"282 745 CURVE SMOOTH",
"123 745 OFFCURVE",
"38 635 OFFCURVE",
"38 526 CURVE SMOOTH",
"38 252 OFFCURVE",
"380 332 OFFCURVE",
"380 230 CURVE SMOOTH",
"380 191 OFFCURVE",
"364 154 OFFCURVE",
"287 154 CURVE SMOOTH",
"238 154 OFFCURVE",
"199 202 OFFCURVE",
"199 202 CURVE",
"194 207 LINE SMOOTH",
"176 225 OFFCURVE",
"150 252 OFFCURVE",
"118 252 CURVE SMOOTH",
"102 252 OFFCURVE",
"86 245 OFFCURVE",
"68 228 CURVE SMOOTH",
"36 197 OFFCURVE",
"25 175 OFFCURVE",
"25 156 CURVE SMOOTH",
"25 135 OFFCURVE",
"38 119 OFFCURVE",
"51 103 CURVE"
);
}
);
width = 583;
}
);
leftKerningGroup = S;
note = S;
rightKerningGroup = S;
unicode = 0053;
},
{
glyphname = Scaron;
layers = (
{
layerId = "05A6575B-AA27-4212-BC78-A0BDA398BBDE";
name = Bold;
paths = (
{
closed = 1;
nodes = (
"51 103 OFFCURVE",
"123 -10 OFFCURVE",
"291 -10 CURVE SMOOTH",
"400 -10 OFFCURVE",
"558 53 OFFCURVE",
"558 233 CURVE SMOOTH",
"558 516 OFFCURVE",
"214 396 OFFCURVE",
"214 525 CURVE SMOOTH",
"214 561 OFFCURVE",
"252 581 OFFCURVE",
"281 581 CURVE SMOOTH",
"344 581 OFFCURVE",
"354 556 OFFCURVE",
"370 545 CURVE SMOOTH",
"387 534 OFFCURVE",
"404 525 OFFCURVE",
"422 525 CURVE SMOOTH",
"443 525 OFFCURVE",
"466 537 OFFCURVE",
"492 575 CURVE SMOOTH",
"509 600 OFFCURVE",
"516 617 OFFCURVE",
"516 631 CURVE SMOOTH",
"516 649 OFFCURVE",
"503 662 OFFCURVE",
"485 679 CURVE",
"480 683 LINE",
"480 683 OFFCURVE",
"417 745 OFFCURVE",
"282 745 CURVE SMOOTH",
"123 745 OFFCURVE",
"38 635 OFFCURVE",
"38 526 CURVE SMOOTH",
"38 252 OFFCURVE",
"380 332 OFFCURVE",
"380 230 CURVE SMOOTH",
"380 191 OFFCURVE",
"364 154 OFFCURVE",
"287 154 CURVE SMOOTH",
"238 154 OFFCURVE",
"199 202 OFFCURVE",
"199 202 CURVE",
"194 207 LINE SMOOTH",
"176 225 OFFCURVE",
"150 252 OFFCURVE",
"118 252 CURVE SMOOTH",
"102 252 OFFCURVE",
"86 245 OFFCURVE",
"68 228 CURVE SMOOTH",
"36 197 OFFCURVE",
"25 175 OFFCURVE",
"25 156 CURVE SMOOTH",
"25 135 OFFCURVE",
"38 119 OFFCURVE",
"51 103 CURVE"
);
},
{
closed = 1;
nodes = (
"175 819 OFFCURVE",
"268 788 OFFCURVE",
"268 788 CURVE",
"273 787 OFFCURVE",
"282 783 OFFCURVE",
"291 783 CURVE SMOOTH",
"299 783 OFFCURVE",
"309 787 OFFCURVE",
"314 788 CURVE",
"314 788 OFFCURVE",
"407 819 OFFCURVE",
"453 834 CURVE SMOOTH",
"479 842 OFFCURVE",
"508 863 OFFCURVE",
"480 921 CURVE SMOOTH",
"446 991 OFFCURVE",
"404 972 OFFCURVE",
"377 963 CURVE",
"291 925 LINE",
"194 967 LINE",
"168 976 OFFCURVE",
"137 989 OFFCURVE",
"102 921 CURVE SMOOTH",
"76 869 OFFCURVE",
"102 842 OFFCURVE",
"129 834 CURVE SMOOTH"
);
}
);
width = 583;
}
);
leftKerningGroup = S;
note = Scaron;
rightKerningGroup = S;
unicode = 0160;
},
{
glyphname = T;
layers = (
{
layerId = "05A6575B-AA27-4212-BC78-A0BDA398BBDE";
name = Bold;
paths = (
{
closed = 1;
nodes = (
"88 734 LINE SMOOTH",
"48 734 OFFCURVE",
"15 734 OFFCURVE",
"15 662 CURVE SMOOTH",
"15 589 OFFCURVE",
"47 589 OFFCURVE",
"87 589 CURVE SMOOTH",
"279 589 LINE",
"279 87 LINE SMOOTH",
"279 40 OFFCURVE",
"279 0 OFFCURVE",
"365 0 CURVE SMOOTH",
"452 0 OFFCURVE",
"452 39 OFFCURVE",
"452 86 CURVE SMOOTH",
"452 589 LINE",
"643 589 LINE SMOOTH",
"683 589 OFFCURVE",
"716 589 OFFCURVE",
"716 661 CURVE SMOOTH",
"716 734 OFFCURVE",
"684 734 OFFCURVE",
"644 734 CURVE SMOOTH"
);
}
);
width = 731;
}
);
note = T;
rightKerningGroup = d;
unicode = 0054;
},
{
glyphname = U;
layers = (
{
layerId = "05A6575B-AA27-4212-BC78-A0BDA398BBDE";
name = Bold;
paths = (
{
closed = 1;
nodes = (
"511 734 OFFCURVE",
"509 697 OFFCURVE",
"509 651 CURVE SMOOTH",
"509 345 LINE SMOOTH",
"509 264 OFFCURVE",
"470 166 OFFCURVE",
"364 166 CURVE SMOOTH",
"249 166 OFFCURVE",
"218 272 OFFCURVE",
"218 344 CURVE SMOOTH",
"218 644 LINE SMOOTH",
"218 694 OFFCURVE",
"217 734 OFFCURVE",
"129 734 CURVE SMOOTH",
"40 734 OFFCURVE",
"40 694 OFFCURVE",
"40 645 CURVE SMOOTH",
"40 344 LINE SMOOTH",
"40 177 OFFCURVE",
"150 -12 OFFCURVE",
"361 -12 CURVE SMOOTH",
"574 -12 OFFCURVE",
"686 174 OFFCURVE",
"686 342 CURVE SMOOTH",
"686 644 LINE SMOOTH",
"686 693 OFFCURVE",
"686 734 OFFCURVE",
"598 734 CURVE SMOOTH"
);
}
);
width = 726;
}
);
leftKerningGroup = U;
note = U;
rightKerningGroup = U;
unicode = 0055;
},
{
glyphname = Uacute;
layers = (
{
layerId = "05A6575B-AA27-4212-BC78-A0BDA398BBDE";
name = Bold;
paths = (
{
closed = 1;
nodes = (
"511 734 OFFCURVE",
"509 697 OFFCURVE",
"509 651 CURVE SMOOTH",
"509 345 LINE SMOOTH",
"509 264 OFFCURVE",
"470 166 OFFCURVE",
"364 166 CURVE SMOOTH",
"249 166 OFFCURVE",
"218 272 OFFCURVE",
"218 344 CURVE SMOOTH",
"218 644 LINE SMOOTH",
"218 694 OFFCURVE",
"217 734 OFFCURVE",
"129 734 CURVE SMOOTH",
"40 734 OFFCURVE",
"40 694 OFFCURVE",
"40 645 CURVE SMOOTH",
"40 344 LINE SMOOTH",
"40 177 OFFCURVE",
"150 -12 OFFCURVE",
"361 -12 CURVE SMOOTH",
"574 -12 OFFCURVE",
"686 174 OFFCURVE",
"686 342 CURVE SMOOTH",
"686 644 LINE SMOOTH",
"686 693 OFFCURVE",
"686 734 OFFCURVE",
"598 734 CURVE SMOOTH"
);
},
{
closed = 1;
nodes = (
"513 828 LINE SMOOTH",
"536 835 OFFCURVE",
"556 842 OFFCURVE",
"556 873 CURVE SMOOTH",
"556 884 OFFCURVE",
"554 897 OFFCURVE",
"548 915 CURVE SMOOTH",
"534 962 OFFCURVE",
"518 974 OFFCURVE",
"500 974 CURVE SMOOTH",
"491 974 OFFCURVE",
"481 970 OFFCURVE",
"470 967 CURVE SMOOTH",
"305 916 LINE SMOOTH",
"282 909 OFFCURVE",
"262 902 OFFCURVE",
"262 871 CURVE SMOOTH",
"262 860 OFFCURVE",
"264 846 OFFCURVE",
"270 828 CURVE SMOOTH",
"285 781 OFFCURVE",
"301 769 OFFCURVE",
"319 769 CURVE SMOOTH",
"328 769 OFFCURVE",
"336 772 OFFCURVE",
"346 775 CURVE",
"347 775 OFFCURVE",
"348 776 OFFCURVE",
"349 776 CURVE"
);
}
);
width = 726;
}
);
leftKerningGroup = U;
note = Uacute;
rightKerningGroup = U;
unicode = 00DA;
},
{
glyphname = Ucircumflex;
layers = (
{
layerId = "05A6575B-AA27-4212-BC78-A0BDA398BBDE";
name = Bold;
paths = (
{
closed = 1;
nodes = (
"511 734 OFFCURVE",
"509 697 OFFCURVE",
"509 651 CURVE SMOOTH",
"509 345 LINE SMOOTH",
"509 264 OFFCURVE",
"470 166 OFFCURVE",
"364 166 CURVE SMOOTH",
"249 166 OFFCURVE",
"218 272 OFFCURVE",
"218 344 CURVE SMOOTH",
"218 644 LINE SMOOTH",
"218 694 OFFCURVE",
"217 734 OFFCURVE",
"129 734 CURVE SMOOTH",
"40 734 OFFCURVE",
"40 694 OFFCURVE",
"40 645 CURVE SMOOTH",
"40 344 LINE SMOOTH",
"40 177 OFFCURVE",
"150 -12 OFFCURVE",
"361 -12 CURVE SMOOTH",
"574 -12 OFFCURVE",
"686 174 OFFCURVE",
"686 342 CURVE SMOOTH",
"686 644 LINE SMOOTH",
"686 693 OFFCURVE",
"686 734 OFFCURVE",
"598 734 CURVE SMOOTH"
);
},
{
closed = 1;
nodes = (
"493 939 OFFCURVE",
"400 969 OFFCURVE",
"400 969 CURVE",
"395 970 OFFCURVE",
"385 974 OFFCURVE",
"377 974 CURVE SMOOTH",
"368 974 OFFCURVE",
"358 970 OFFCURVE",
"353 969 CURVE",
"353 969 OFFCURVE",
"261 939 OFFCURVE",
"214 923 CURVE SMOOTH",
"196 917 OFFCURVE",
"176 905 OFFCURVE",
"176 878 CURVE SMOOTH",
"176 867 OFFCURVE",
"180 853 OFFCURVE",
"188 836 CURVE SMOOTH",
"207 795 OFFCURVE",
"230 785 OFFCURVE",
"250 785 CURVE SMOOTH",
"261 785 OFFCURVE",
"272 788 OFFCURVE",
"281 791 CURVE",
"282 791 OFFCURVE",
"283 792 OFFCURVE",
"284 792 CURVE",
"377 832 LINE",
"473 790 LINE",
"483 787 OFFCURVE",
"494 783 OFFCURVE",
"505 783 CURVE SMOOTH",
"524 783 OFFCURVE",
"544 794 OFFCURVE",
"565 836 CURVE SMOOTH",
"573 851 OFFCURVE",
"576 865 OFFCURVE",
"576 876 CURVE SMOOTH",
"576 903 OFFCURVE",
"557 917 OFFCURVE",
"539 923 CURVE SMOOTH"
);
}
);
width = 726;
}
);
leftKerningGroup = U;
note = Ucircumflex;
rightKerningGroup = U;
unicode = 00DB;
},
{
glyphname = Udieresis;
layers = (
{
layerId = "05A6575B-AA27-4212-BC78-A0BDA398BBDE";
name = Bold;
paths = (
{
closed = 1;
nodes = (
"511 734 OFFCURVE",
"509 697 OFFCURVE",
"509 651 CURVE SMOOTH",
"509 345 LINE SMOOTH",
"509 264 OFFCURVE",
"470 166 OFFCURVE",
"364 166 CURVE SMOOTH",
"249 166 OFFCURVE",
"218 272 OFFCURVE",
"218 344 CURVE SMOOTH",
"218 644 LINE SMOOTH",
"218 694 OFFCURVE",
"217 734 OFFCURVE",
"129 734 CURVE SMOOTH",
"40 734 OFFCURVE",
"40 694 OFFCURVE",
"40 645 CURVE SMOOTH",
"40 344 LINE SMOOTH",
"40 177 OFFCURVE",
"150 -12 OFFCURVE",
"361 -12 CURVE SMOOTH",
"574 -12 OFFCURVE",
"686 174 OFFCURVE",
"686 342 CURVE SMOOTH",
"686 644 LINE SMOOTH",
"686 693 OFFCURVE",
"686 734 OFFCURVE",
"598 734 CURVE SMOOTH"
);
},
{
closed = 1;
nodes = (
"588 795 OFFCURVE",
"588 835 OFFCURVE",
"588 883 CURVE SMOOTH",
"588 932 OFFCURVE",
"588 973 OFFCURVE",
"499 973 CURVE SMOOTH",
"409 973 OFFCURVE",
"409 934 OFFCURVE",
"409 885 CURVE SMOOTH",
"409 836 OFFCURVE",
"409 795 OFFCURVE",
"498 795 CURVE SMOOTH"
);
},
{
closed = 1;
nodes = (
"318 795 OFFCURVE",
"318 835 OFFCURVE",
"318 883 CURVE SMOOTH",
"318 932 OFFCURVE",
"318 973 OFFCURVE",
"229 973 CURVE SMOOTH",
"139 973 OFFCURVE",
"140 934 OFFCURVE",
"139 885 CURVE SMOOTH",
"139 836 OFFCURVE",
"139 795 OFFCURVE",
"228 795 CURVE SMOOTH"
);
}
);
width = 726;
}
);
leftKerningGroup = U;
note = Udieresis;
rightKerningGroup = U;
unicode = 00DC;
},
{
glyphname = Ugrave;
layers = (
{
layerId = "05A6575B-AA27-4212-BC78-A0BDA398BBDE";
name = Bold;
paths = (
{
closed = 1;
nodes = (
"511 734 OFFCURVE",
"509 697 OFFCURVE",
"509 651 CURVE SMOOTH",
"509 345 LINE SMOOTH",
"509 264 OFFCURVE",
"470 166 OFFCURVE",
"364 166 CURVE SMOOTH",
"249 166 OFFCURVE",
"218 272 OFFCURVE",
"218 344 CURVE SMOOTH",
"218 644 LINE SMOOTH",
"218 694 OFFCURVE",
"217 734 OFFCURVE",
"129 734 CURVE SMOOTH",
"40 734 OFFCURVE",
"40 694 OFFCURVE",
"40 645 CURVE SMOOTH",
"40 344 LINE SMOOTH",
"40 177 OFFCURVE",
"150 -12 OFFCURVE",
"361 -12 CURVE SMOOTH",
"574 -12 OFFCURVE",
"686 174 OFFCURVE",
"686 342 CURVE SMOOTH",
"686 644 LINE SMOOTH",
"686 693 OFFCURVE",
"686 734 OFFCURVE",
"598 734 CURVE SMOOTH"
);
},
{
closed = 1;
nodes = (
"367 763 LINE",
"368 763 OFFCURVE",
"369 762 OFFCURVE",
"370 762 CURVE",
"380 759 OFFCURVE",
"388 756 OFFCURVE",
"397 756 CURVE SMOOTH",
"415 756 OFFCURVE",
"431 768 OFFCURVE",
"446 815 CURVE SMOOTH",
"452 833 OFFCURVE",
"454 846 OFFCURVE",
"454 857 CURVE SMOOTH",
"454 889 OFFCURVE",
"433 896 OFFCURVE",
"411 903 CURVE SMOOTH",
"246 954 LINE SMOOTH",
"235 957 OFFCURVE",
"225 961 OFFCURVE",
"216 961 CURVE SMOOTH",
"198 961 OFFCURVE",
"182 949 OFFCURVE",
"167 902 CURVE SMOOTH",
"161 884 OFFCURVE",
"159 871 OFFCURVE",
"159 860 CURVE SMOOTH",
"159 829 OFFCURVE",
"179 822 OFFCURVE",
"202 815 CURVE SMOOTH"
);
}
);
width = 726;
}
);
leftKerningGroup = U;
note = Ugrave;
rightKerningGroup = U;
unicode = 00D9;
},
{
glyphname = V;
layers = (
{
layerId = "05A6575B-AA27-4212-BC78-A0BDA398BBDE";
name = Bold;
paths = (
{
closed = 1;
nodes = (
"686 734 OFFCURVE",
"667 739 OFFCURVE",
"653 739 CURVE SMOOTH",
"620 739 OFFCURVE",
"606 713 OFFCURVE",
"592 682 CURVE SMOOTH",
"392 244 LINE",
"381 266 OFFCURVE",
"197 669 OFFCURVE",
"191 682 CURVE SMOOTH",
"176 712 OFFCURVE",
"163 739 OFFCURVE",
"130 739 CURVE SMOOTH",
"116 739 OFFCURVE",
"97 734 OFFCURVE",
"74 722 CURVE SMOOTH",
"29 700 OFFCURVE",
"15 679 OFFCURVE",
"15 658 CURVE SMOOTH",
"15 643 OFFCURVE",
"22 627 OFFCURVE",
"30 610 CURVE SMOOTH",
"306 50 LINE SMOOTH",
"321 20 OFFCURVE",
"354 1 OFFCURVE",
"387 1 CURVE SMOOTH",
"397 1 LINE SMOOTH",
"429 1 OFFCURVE",
"462 20 OFFCURVE",
"477 50 CURVE SMOOTH",
"753 610 LINE SMOOTH",
"761 627 OFFCURVE",
"768 643 OFFCURVE",
"768 658 CURVE SMOOTH",
"768 679 OFFCURVE",
"754 700 OFFCURVE",
"709 722 CURVE SMOOTH"
);
}
);
width = 783;
}
);
note = V;
rightKerningGroup = d;
unicode = 0056;
},
{
glyphname = W;
layers = (
{
layerId = "05A6575B-AA27-4212-BC78-A0BDA398BBDE";
name = Bold;
paths = (
{
closed = 1;
nodes = (
"898 736 OFFCURVE",
"882 739 OFFCURVE",
"869 739 CURVE SMOOTH",
"828 739 OFFCURVE",
"817 708 OFFCURVE",
"805 673 CURVE SMOOTH",
"695 337 LINE",
"586 668 LINE",
"586 668 OFFCURVE",
"571 733 OFFCURVE",
"497 733 CURVE SMOOTH",
"431 733 OFFCURVE",
"412 668 OFFCURVE",
"412 668 CURVE",
"303 339 LINE",
"193 673 LINE SMOOTH",
"182 708 OFFCURVE",
"171 738 OFFCURVE",
"131 738 CURVE SMOOTH",
"118 738 OFFCURVE",
"102 735 OFFCURVE",
"82 728 CURVE SMOOTH",
"29 710 OFFCURVE",
"15 689 OFFCURVE",
"15 665 CURVE SMOOTH",
"15 650 OFFCURVE",
"20 634 OFFCURVE",
"26 616 CURVE SMOOTH",
"219 61 LINE",
"219 61 OFFCURVE",
"240 1 OFFCURVE",
"302 1 CURVE SMOOTH",
"369 1 OFFCURVE",
"388 67 OFFCURVE",
"388 67 CURVE",
"499 395 LINE",
"610 67 LINE",
"610 67 OFFCURVE",
"629 1 OFFCURVE",
"696 1 CURVE SMOOTH",
"761 1 OFFCURVE",
"780 61 OFFCURVE",
"780 61 CURVE SMOOTH",
"780 61 OFFCURVE",
"946 539 OFFCURVE",
"972 616 CURVE SMOOTH",
"978 634 OFFCURVE",
"984 650 OFFCURVE",
"984 665 CURVE SMOOTH",
"984 689 OFFCURVE",
"969 710 OFFCURVE",
"917 729 CURVE SMOOTH"
);
}
);
width = 999;
}
);
note = W;
rightKerningGroup = d;
unicode = 0057;
},
{
glyphname = X;
layers = (
{
layerId = "05A6575B-AA27-4212-BC78-A0BDA398BBDE";
name = Bold;
paths = (
{
closed = 1;
nodes = (
"491 371 LINE",
"692 592 LINE SMOOTH",
"710 611 OFFCURVE",
"726 629 OFFCURVE",
"726 652 CURVE SMOOTH",
"726 670 OFFCURVE",
"716 691 OFFCURVE",
"687 717 CURVE SMOOTH",
"659 742 OFFCURVE",
"638 752 OFFCURVE",
"621 752 CURVE SMOOTH",
"597 752 OFFCURVE",
"580 733 OFFCURVE",
"561 712 CURVE SMOOTH",
"371 494 LINE",
"181 712 LINE SMOOTH",
"162 734 OFFCURVE",
"145 752 OFFCURVE",
"121 752 CURVE SMOOTH",
"104 752 OFFCURVE",
"83 743 OFFCURVE",
"55 717 CURVE SMOOTH",
"26 691 OFFCURVE",
"15 670 OFFCURVE",
"15 652 CURVE SMOOTH",
"15 630 OFFCURVE",
"32 611 OFFCURVE",
"50 592 CURVE SMOOTH",
"251 371 LINE",
"50 150 LINE SMOOTH",
"31 129 OFFCURVE",
"15 111 OFFCURVE",
"15 90 CURVE SMOOTH",
"15 72 OFFCURVE",
"26 51 OFFCURVE",
"55 25 CURVE SMOOTH",
"83 0 OFFCURVE",
"104 -10 OFFCURVE",
"121 -10 CURVE SMOOTH",
"145 -10 OFFCURVE",
"162 9 OFFCURVE",
"181 30 CURVE SMOOTH",
"371 248 LINE",
"561 30 LINE SMOOTH",
"580 8 OFFCURVE",
"597 -10 OFFCURVE",
"621 -10 CURVE SMOOTH",
"638 -10 OFFCURVE",
"659 -1 OFFCURVE",
"687 25 CURVE SMOOTH",
"716 51 OFFCURVE",
"726 71 OFFCURVE",
"726 89 CURVE SMOOTH",
"726 111 OFFCURVE",
"710 130 OFFCURVE",
"692 150 CURVE SMOOTH"
);
}
);
width = 741;
}
);
note = X;
rightKerningGroup = d;
unicode = 0058;
},
{
glyphname = Y;
layers = (
{
layerId = "05A6575B-AA27-4212-BC78-A0BDA398BBDE";
name = Bold;
paths = (
{
closed = 1;
nodes = (
"595 736 OFFCURVE",
"575 744 OFFCURVE",
"559 744 CURVE SMOOTH",
"530 744 OFFCURVE",
"515 721 OFFCURVE",
"498 695 CURVE SMOOTH",
"343 447 LINE",
"188 695 LINE SMOOTH",
"171 721 OFFCURVE",
"156 744 OFFCURVE",
"128 744 CURVE SMOOTH",
"112 744 OFFCURVE",
"92 737 OFFCURVE",
"65 719 CURVE SMOOTH",
"28 694 OFFCURVE",
"15 673 OFFCURVE",
"15 653 CURVE SMOOTH",
"15 635 OFFCURVE",
"26 618 OFFCURVE",
"38 600 CURVE SMOOTH",
"254 277 LINE",
"254 88 LINE SMOOTH",
"254 39 OFFCURVE",
"254 -2 OFFCURVE",
"343 -2 CURVE SMOOTH",
"432 -2 OFFCURVE",
"432 38 OFFCURVE",
"432 86 CURVE SMOOTH",
"432 277 LINE",
"648 600 LINE SMOOTH",
"660 618 OFFCURVE",
"671 635 OFFCURVE",
"671 653 CURVE SMOOTH",
"671 673 OFFCURVE",
"658 694 OFFCURVE",
"622 719 CURVE"
);
}
);
width = 686;
}
);
leftKerningGroup = Y;
note = Y;
rightKerningGroup = Y;
unicode = 0059;
},
{
glyphname = Yacute;
layers = (
{
layerId = "05A6575B-AA27-4212-BC78-A0BDA398BBDE";
name = Bold;
paths = (
{
closed = 1;
nodes = (
"595 736 OFFCURVE",
"575 744 OFFCURVE",
"559 744 CURVE SMOOTH",
"530 744 OFFCURVE",
"515 721 OFFCURVE",
"498 695 CURVE SMOOTH",
"343 447 LINE",
"188 695 LINE SMOOTH",
"171 721 OFFCURVE",
"156 744 OFFCURVE",
"128 744 CURVE SMOOTH",
"112 744 OFFCURVE",
"92 737 OFFCURVE",
"65 719 CURVE SMOOTH",
"28 694 OFFCURVE",
"15 673 OFFCURVE",
"15 653 CURVE SMOOTH",
"15 635 OFFCURVE",
"26 618 OFFCURVE",
"38 600 CURVE SMOOTH",
"254 277 LINE",
"254 88 LINE SMOOTH",
"254 39 OFFCURVE",
"254 -2 OFFCURVE",
"343 -2 CURVE SMOOTH",
"432 -2 OFFCURVE",
"432 38 OFFCURVE",
"432 86 CURVE SMOOTH",
"432 277 LINE",
"648 600 LINE SMOOTH",
"660 618 OFFCURVE",
"671 635 OFFCURVE",
"671 653 CURVE SMOOTH",
"671 673 OFFCURVE",
"658 694 OFFCURVE",
"622 719 CURVE"
);
},
{
closed = 1;
nodes = (
"466 828 LINE SMOOTH",
"489 835 OFFCURVE",
"509 842 OFFCURVE",
"509 873 CURVE SMOOTH",
"509 884 OFFCURVE",
"507 897 OFFCURVE",
"501 915 CURVE SMOOTH",
"487 962 OFFCURVE",
"471 974 OFFCURVE",
"453 974 CURVE SMOOTH",
"444 974 OFFCURVE",
"434 970 OFFCURVE",
"423 967 CURVE SMOOTH",
"258 916 LINE SMOOTH",
"235 909 OFFCURVE",
"215 902 OFFCURVE",
"215 871 CURVE SMOOTH",
"215 860 OFFCURVE",
"217 846 OFFCURVE",
"223 828 CURVE SMOOTH",
"238 781 OFFCURVE",
"254 769 OFFCURVE",
"272 769 CURVE SMOOTH",
"281 769 OFFCURVE",
"289 772 OFFCURVE",
"299 775 CURVE",
"300 775 OFFCURVE",
"301 776 OFFCURVE",
"302 776 CURVE"
);
}
);
width = 686;
}
);
leftKerningGroup = Y;
note = Yacute;
rightKerningGroup = Y;
unicode = 00DD;
},
{
glyphname = Ydieresis;
layers = (
{
layerId = "05A6575B-AA27-4212-BC78-A0BDA398BBDE";
name = Bold;
paths = (
{
closed = 1;
nodes = (
"595 736 OFFCURVE",
"575 744 OFFCURVE",
"559 744 CURVE SMOOTH",
"530 744 OFFCURVE",
"515 721 OFFCURVE",
"498 695 CURVE SMOOTH",
"343 447 LINE",
"188 695 LINE SMOOTH",
"171 721 OFFCURVE",
"156 744 OFFCURVE",
"128 744 CURVE SMOOTH",
"112 744 OFFCURVE",
"92 737 OFFCURVE",
"65 719 CURVE SMOOTH",
"28 694 OFFCURVE",
"15 673 OFFCURVE",
"15 653 CURVE SMOOTH",
"15 635 OFFCURVE",
"26 618 OFFCURVE",
"38 600 CURVE SMOOTH",
"254 277 LINE",
"254 88 LINE SMOOTH",
"254 39 OFFCURVE",
"254 -2 OFFCURVE",
"343 -2 CURVE SMOOTH",
"432 -2 OFFCURVE",
"432 38 OFFCURVE",
"432 86 CURVE SMOOTH",
"432 277 LINE",
"648 600 LINE SMOOTH",
"660 618 OFFCURVE",
"671 635 OFFCURVE",
"671 653 CURVE SMOOTH",
"671 673 OFFCURVE",
"658 694 OFFCURVE",
"622 719 CURVE"
);
},
{
closed = 1;
nodes = (
"297 795 OFFCURVE",
"297 835 OFFCURVE",
"297 883 CURVE SMOOTH",
"297 932 OFFCURVE",
"297 973 OFFCURVE",
"208 973 CURVE SMOOTH",
"118 973 OFFCURVE",
"119 934 OFFCURVE",
"118 885 CURVE SMOOTH",
"118 836 OFFCURVE",
"118 795 OFFCURVE",
"207 795 CURVE SMOOTH"
);
},
{
closed = 1;
nodes = (
"567 795 OFFCURVE",
"567 835 OFFCURVE",
"567 883 CURVE SMOOTH",
"567 932 OFFCURVE",
"567 973 OFFCURVE",
"478 973 CURVE SMOOTH",
"388 973 OFFCURVE",
"388 934 OFFCURVE",
"388 885 CURVE SMOOTH",
"388 836 OFFCURVE",
"388 795 OFFCURVE",
"477 795 CURVE SMOOTH"
);
}
);
width = 686;
}
);
leftKerningGroup = Y;
note = Ydieresis;
rightKerningGroup = Y;
unicode = 0178;
},
{
glyphname = Z;
layers = (
{
layerId = "05A6575B-AA27-4212-BC78-A0BDA398BBDE";
name = Bold;
paths = (
{
closed = 1;
nodes = (
"282 171 LINE",
"592 600 LINE SMOOTH",
"601 612 OFFCURVE",
"604 627 OFFCURVE",
"604 643 CURVE SMOOTH",
"604 660 OFFCURVE",
"600 677 OFFCURVE",
"592 690 CURVE SMOOTH",
"577 716 OFFCURVE",
"547 734 OFFCURVE",
"516 734 CURVE SMOOTH",
"114 734 LINE SMOOTH",
"66 734 OFFCURVE",
"25 734 OFFCURVE",
"25 645 CURVE SMOOTH",
"25 560 OFFCURVE",
"69 560 OFFCURVE",
"117 560 CURVE SMOOTH",
"347 560 LINE",
"37 131 LINE SMOOTH",
"28 119 OFFCURVE",
"25 104 OFFCURVE",
"25 89 CURVE SMOOTH",
"25 72 OFFCURVE",
"29 55 OFFCURVE",
"37 42 CURVE SMOOTH",
"52 16 OFFCURVE",
"82 -2 OFFCURVE",
"113 -2 CURVE SMOOTH",
"529 -2 LINE SMOOTH",
"577 -2 OFFCURVE",
"618 -2 OFFCURVE",
"618 86 CURVE SMOOTH",
"618 169 OFFCURVE",
"577 171 OFFCURVE",
"531 171 CURVE SMOOTH"
);
}
);
width = 643;
}
);
leftKerningGroup = Z;
note = Z;
rightKerningGroup = Z;
unicode = 005A;
},
{
glyphname = Zcaron;
layers = (
{
layerId = "05A6575B-AA27-4212-BC78-A0BDA398BBDE";
name = Bold;
paths = (
{
closed = 1;
nodes = (
"282 171 LINE",
"592 600 LINE SMOOTH",
"601 612 OFFCURVE",
"604 627 OFFCURVE",
"604 643 CURVE SMOOTH",
"604 660 OFFCURVE",
"600 677 OFFCURVE",
"592 690 CURVE SMOOTH",
"577 716 OFFCURVE",
"547 734 OFFCURVE",
"516 734 CURVE SMOOTH",
"114 734 LINE SMOOTH",
"66 734 OFFCURVE",
"25 734 OFFCURVE",
"25 645 CURVE SMOOTH",
"25 560 OFFCURVE",
"69 560 OFFCURVE",
"117 560 CURVE SMOOTH",
"347 560 LINE",
"37 131 LINE SMOOTH",
"28 119 OFFCURVE",
"25 104 OFFCURVE",
"25 89 CURVE SMOOTH",
"25 72 OFFCURVE",
"29 55 OFFCURVE",
"37 42 CURVE SMOOTH",
"52 16 OFFCURVE",
"82 -2 OFFCURVE",
"113 -2 CURVE SMOOTH",
"529 -2 LINE SMOOTH",
"577 -2 OFFCURVE",
"618 -2 OFFCURVE",
"618 86 CURVE SMOOTH",
"618 169 OFFCURVE",
"577 171 OFFCURVE",
"531 171 CURVE SMOOTH"
);
},
{
closed = 1;
nodes = (
"204 819 OFFCURVE",
"297 788 OFFCURVE",
"297 788 CURVE",
"302 787 OFFCURVE",
"311 783 OFFCURVE",
"320 783 CURVE SMOOTH",
"328 783 OFFCURVE",
"338 787 OFFCURVE",
"343 788 CURVE",
"343 788 OFFCURVE",
"436 819 OFFCURVE",
"482 834 CURVE SMOOTH",
"508 842 OFFCURVE",
"537 863 OFFCURVE",
"509 921 CURVE SMOOTH",
"475 991 OFFCURVE",
"433 972 OFFCURVE",
"406 963 CURVE",
"320 925 LINE",
"223 967 LINE",
"197 976 OFFCURVE",
"166 989 OFFCURVE",
"131 921 CURVE SMOOTH",
"105 869 OFFCURVE",
"131 842 OFFCURVE",
"158 834 CURVE SMOOTH"
);
}
);
width = 643;
}
);
leftKerningGroup = Z;
note = Zcaron;
rightKerningGroup = Z;
unicode = 017D;
},
{
glyphname = a;
layers = (
{
layerId = "05A6575B-AA27-4212-BC78-A0BDA398BBDE";
name = Bold;
paths = (
{
closed = 1;
nodes = (
"401 527 OFFCURVE",
"386 504 OFFCURVE",
"382 471 CURVE",
"373 484 OFFCURVE",
"337 526 OFFCURVE",
"263 526 CURVE SMOOTH",
"147 526 OFFCURVE",
"25 406 OFFCURVE",
"25 266 CURVE SMOOTH",
"25 121 OFFCURVE",
"146 2 OFFCURVE",
"263 2 CURVE SMOOTH",
"341 2 OFFCURVE",
"374 42 OFFCURVE",
"383 55 CURVE",
"387 24 OFFCURVE",
"404 2 OFFCURVE",
"468 2 CURVE SMOOTH",
"556 2 OFFCURVE",
"556 41 OFFCURVE",
"556 89 CURVE SMOOTH",
"556 439 LINE SMOOTH",
"556 486 OFFCURVE",
"556 527 OFFCURVE",
"469 527 CURVE SMOOTH"
);
},
{
closed = 1;
nodes = (
"238 177 OFFCURVE",
"200 221 OFFCURVE",
"200 263 CURVE SMOOTH",
"200 304 OFFCURVE",
"233 352 OFFCURVE",
"288 352 CURVE SMOOTH",
"346 352 OFFCURVE",
"375 301 OFFCURVE",
"375 264 CURVE SMOOTH",
"375 223 OFFCURVE",
"341 177 OFFCURVE",
"290 177 CURVE SMOOTH"
);
}
);
width = 596;
}
);
leftKerningGroup = a;
note = a;
rightKerningGroup = a;
unicode = 0061;
},
{
glyphname = aacute;
layers = (
{
layerId = "05A6575B-AA27-4212-BC78-A0BDA398BBDE";
name = Bold;
paths = (
{
closed = 1;
nodes = (
"401 527 OFFCURVE",
"386 504 OFFCURVE",
"382 471 CURVE",
"373 484 OFFCURVE",
"337 526 OFFCURVE",
"263 526 CURVE SMOOTH",
"147 526 OFFCURVE",
"25 406 OFFCURVE",
"25 266 CURVE SMOOTH",
"25 121 OFFCURVE",
"146 2 OFFCURVE",
"263 2 CURVE SMOOTH",
"341 2 OFFCURVE",
"374 42 OFFCURVE",
"383 55 CURVE",
"387 24 OFFCURVE",
"404 2 OFFCURVE",
"468 2 CURVE SMOOTH",
"556 2 OFFCURVE",
"556 41 OFFCURVE",
"556 89 CURVE SMOOTH",
"556 439 LINE SMOOTH",
"556 486 OFFCURVE",
"556 527 OFFCURVE",
"469 527 CURVE SMOOTH"
);
},
{
closed = 1;
nodes = (
"429 628 LINE SMOOTH",
"452 635 OFFCURVE",
"472 642 OFFCURVE",
"472 673 CURVE SMOOTH",
"472 684 OFFCURVE",
"470 697 OFFCURVE",
"464 715 CURVE SMOOTH",
"450 762 OFFCURVE",
"434 774 OFFCURVE",
"416 774 CURVE SMOOTH",
"407 774 OFFCURVE",
"397 770 OFFCURVE",
"386 767 CURVE SMOOTH",
"221 716 LINE SMOOTH",
"198 709 OFFCURVE",
"178 702 OFFCURVE",
"178 671 CURVE SMOOTH",
"178 660 OFFCURVE",
"180 646 OFFCURVE",
"186 628 CURVE SMOOTH",
"201 581 OFFCURVE",
"217 569 OFFCURVE",
"235 569 CURVE SMOOTH",
"244 569 OFFCURVE",
"252 572 OFFCURVE",
"262 575 CURVE",
"263 575 OFFCURVE",
"264 576 OFFCURVE",
"265 576 CURVE"
);
},
{
closed = 1;
nodes = (
"238 177 OFFCURVE",
"200 221 OFFCURVE",
"200 263 CURVE SMOOTH",
"200 304 OFFCURVE",
"233 352 OFFCURVE",
"288 352 CURVE SMOOTH",
"346 352 OFFCURVE",
"375 301 OFFCURVE",
"375 264 CURVE SMOOTH",
"375 223 OFFCURVE",
"341 177 OFFCURVE",
"290 177 CURVE SMOOTH"
);
}
);
width = 596;
}
);
leftKerningGroup = a;
note = aacute;
rightKerningGroup = a;
unicode = 00E1;
},
{
glyphname = acircumflex;
layers = (
{
layerId = "05A6575B-AA27-4212-BC78-A0BDA398BBDE";
name = Bold;
paths = (
{
closed = 1;
nodes = (
"401 527 OFFCURVE",
"386 504 OFFCURVE",
"382 471 CURVE",
"373 484 OFFCURVE",
"337 526 OFFCURVE",
"263 526 CURVE SMOOTH",
"147 526 OFFCURVE",
"25 406 OFFCURVE",
"25 266 CURVE SMOOTH",
"25 121 OFFCURVE",
"146 2 OFFCURVE",
"263 2 CURVE SMOOTH",
"341 2 OFFCURVE",
"374 42 OFFCURVE",
"383 55 CURVE",
"387 24 OFFCURVE",
"404 2 OFFCURVE",
"468 2 CURVE SMOOTH",
"556 2 OFFCURVE",
"556 41 OFFCURVE",
"556 89 CURVE SMOOTH",
"556 439 LINE SMOOTH",
"556 486 OFFCURVE",
"556 527 OFFCURVE",
"469 527 CURVE SMOOTH"
);
},
{
closed = 1;
nodes = (
"238 177 OFFCURVE",
"200 221 OFFCURVE",
"200 263 CURVE SMOOTH",
"200 304 OFFCURVE",
"233 352 OFFCURVE",
"288 352 CURVE SMOOTH",
"346 352 OFFCURVE",
"375 301 OFFCURVE",
"375 264 CURVE SMOOTH",
"375 223 OFFCURVE",
"341 177 OFFCURVE",
"290 177 CURVE SMOOTH"
);
},
{
closed = 1;
nodes = (
"443 739 OFFCURVE",
"350 769 OFFCURVE",
"350 769 CURVE",
"345 770 OFFCURVE",
"335 774 OFFCURVE",
"327 774 CURVE SMOOTH",
"318 774 OFFCURVE",
"308 770 OFFCURVE",
"303 769 CURVE",
"303 769 OFFCURVE",
"211 739 OFFCURVE",
"164 723 CURVE SMOOTH",
"146 717 OFFCURVE",
"126 705 OFFCURVE",
"126 678 CURVE SMOOTH",
"126 667 OFFCURVE",
"130 653 OFFCURVE",
"138 636 CURVE SMOOTH",
"157 595 OFFCURVE",
"180 585 OFFCURVE",
"200 585 CURVE SMOOTH",
"211 585 OFFCURVE",
"222 588 OFFCURVE",
"231 591 CURVE",
"232 591 OFFCURVE",
"233 592 OFFCURVE",
"234 592 CURVE",
"327 632 LINE",
"423 590 LINE",
"433 587 OFFCURVE",
"444 583 OFFCURVE",
"455 583 CURVE SMOOTH",
"474 583 OFFCURVE",
"494 594 OFFCURVE",
"515 636 CURVE SMOOTH",
"523 651 OFFCURVE",
"526 665 OFFCURVE",
"526 676 CURVE SMOOTH",
"526 703 OFFCURVE",
"507 717 OFFCURVE",
"489 723 CURVE SMOOTH"
);
}
);
width = 596;
}
);
leftKerningGroup = a;
note = acircumflex;
rightKerningGroup = a;
unicode = 00E2;
},
{
glyphname = adieresis;
layers = (
{
layerId = "05A6575B-AA27-4212-BC78-A0BDA398BBDE";
name = Bold;
paths = (
{
closed = 1;
nodes = (
"401 527 OFFCURVE",
"386 504 OFFCURVE",
"382 471 CURVE",
"373 484 OFFCURVE",
"337 526 OFFCURVE",
"263 526 CURVE SMOOTH",
"147 526 OFFCURVE",
"25 406 OFFCURVE",
"25 266 CURVE SMOOTH",
"25 121 OFFCURVE",
"146 2 OFFCURVE",
"263 2 CURVE SMOOTH",
"341 2 OFFCURVE",
"374 42 OFFCURVE",
"383 55 CURVE",
"387 24 OFFCURVE",
"404 2 OFFCURVE",
"468 2 CURVE SMOOTH",
"556 2 OFFCURVE",
"556 41 OFFCURVE",
"556 89 CURVE SMOOTH",
"556 439 LINE SMOOTH",
"556 486 OFFCURVE",
"556 527 OFFCURVE",
"469 527 CURVE SMOOTH"
);
},
{
closed = 1;
nodes = (
"238 177 OFFCURVE",
"200 221 OFFCURVE",
"200 263 CURVE SMOOTH",
"200 304 OFFCURVE",
"233 352 OFFCURVE",
"288 352 CURVE SMOOTH",
"346 352 OFFCURVE",
"375 301 OFFCURVE",
"375 264 CURVE SMOOTH",
"375 223 OFFCURVE",
"341 177 OFFCURVE",
"290 177 CURVE SMOOTH"
);
},
{
closed = 1;
nodes = (
"280 595 OFFCURVE",
"280 635 OFFCURVE",
"280 683 CURVE SMOOTH",
"280 732 OFFCURVE",
"280 773 OFFCURVE",
"191 773 CURVE SMOOTH",
"101 773 OFFCURVE",
"102 734 OFFCURVE",
"101 685 CURVE SMOOTH",
"101 636 OFFCURVE",
"101 595 OFFCURVE",
"190 595 CURVE SMOOTH"
);
},
{
closed = 1;
nodes = (
"550 595 OFFCURVE",
"550 635 OFFCURVE",
"550 683 CURVE SMOOTH",
"550 732 OFFCURVE",
"550 773 OFFCURVE",
"461 773 CURVE SMOOTH",
"371 773 OFFCURVE",
"371 734 OFFCURVE",
"371 685 CURVE SMOOTH",
"371 636 OFFCURVE",
"371 595 OFFCURVE",
"460 595 CURVE SMOOTH"
);
}
);
width = 596;
}
);
leftKerningGroup = a;
note = adieresis;
rightKerningGroup = a;
unicode = 00E4;
},
{
glyphname = agrave;
layers = (
{
layerId = "05A6575B-AA27-4212-BC78-A0BDA398BBDE";
name = Bold;
paths = (
{
closed = 1;
nodes = (
"401 527 OFFCURVE",
"386 504 OFFCURVE",
"382 471 CURVE",
"373 484 OFFCURVE",
"337 526 OFFCURVE",
"263 526 CURVE SMOOTH",
"147 526 OFFCURVE",
"25 406 OFFCURVE",
"25 266 CURVE SMOOTH",
"25 121 OFFCURVE",
"146 2 OFFCURVE",
"263 2 CURVE SMOOTH",
"341 2 OFFCURVE",
"374 42 OFFCURVE",
"383 55 CURVE",
"387 24 OFFCURVE",
"404 2 OFFCURVE",
"468 2 CURVE SMOOTH",
"556 2 OFFCURVE",
"556 41 OFFCURVE",
"556 89 CURVE SMOOTH",
"556 439 LINE SMOOTH",
"556 486 OFFCURVE",
"556 527 OFFCURVE",
"469 527 CURVE SMOOTH"
);
},
{
closed = 1;
nodes = (
"372 576 LINE",
"373 576 OFFCURVE",
"374 575 OFFCURVE",
"375 575 CURVE",
"385 572 OFFCURVE",
"393 569 OFFCURVE",
"402 569 CURVE SMOOTH",
"420 569 OFFCURVE",
"436 581 OFFCURVE",
"451 628 CURVE SMOOTH",
"457 646 OFFCURVE",
"459 659 OFFCURVE",
"459 670 CURVE SMOOTH",
"459 702 OFFCURVE",
"438 709 OFFCURVE",
"416 716 CURVE SMOOTH",
"251 767 LINE SMOOTH",
"240 770 OFFCURVE",
"230 774 OFFCURVE",
"221 774 CURVE SMOOTH",
"203 774 OFFCURVE",
"187 762 OFFCURVE",
"172 715 CURVE SMOOTH",
"166 697 OFFCURVE",
"164 684 OFFCURVE",
"164 673 CURVE SMOOTH",
"164 642 OFFCURVE",
"184 635 OFFCURVE",
"207 628 CURVE SMOOTH"
);
},
{
closed = 1;
nodes = (
"238 177 OFFCURVE",
"200 221 OFFCURVE",
"200 263 CURVE SMOOTH",
"200 304 OFFCURVE",
"233 352 OFFCURVE",
"288 352 CURVE SMOOTH",
"346 352 OFFCURVE",
"375 301 OFFCURVE",
"375 264 CURVE SMOOTH",
"375 223 OFFCURVE",
"341 177 OFFCURVE",
"290 177 CURVE SMOOTH"
);
}
);
width = 596;
}
);
leftKerningGroup = a;
note = agrave;
rightKerningGroup = a;
unicode = 00E0;
},
{
glyphname = aring;
layers = (
{
layerId = "05A6575B-AA27-4212-BC78-A0BDA398BBDE";
name = Bold;
paths = (
{
closed = 1;
nodes = (
"279 751 OFFCURVE",
"226 711 OFFCURVE",
"226 649 CURVE SMOOTH",
"226 587 OFFCURVE",
"281 548 OFFCURVE",
"329 548 CURVE SMOOTH",
"375 548 OFFCURVE",
"430 585 OFFCURVE",
"430 649 CURVE SMOOTH",
"430 711 OFFCURVE",
"380 751 OFFCURVE",
"328 751 CURVE SMOOTH"
);
},
{
closed = 1;
nodes = (
"311 602 OFFCURVE",
"280 614 OFFCURVE",
"280 650 CURVE SMOOTH",
"280 684 OFFCURVE",
"310 698 OFFCURVE",
"328 698 CURVE SMOOTH",
"348 698 OFFCURVE",
"376 685 OFFCURVE",
"376 650 CURVE SMOOTH",
"376 614 OFFCURVE",
"345 602 OFFCURVE",
"328 602 CURVE SMOOTH"
);
},
{
closed = 1;
nodes = (
"401 527 OFFCURVE",
"386 504 OFFCURVE",
"382 471 CURVE",
"373 484 OFFCURVE",
"337 526 OFFCURVE",
"263 526 CURVE SMOOTH",
"147 526 OFFCURVE",
"25 406 OFFCURVE",
"25 266 CURVE SMOOTH",
"25 121 OFFCURVE",
"146 2 OFFCURVE",
"263 2 CURVE SMOOTH",
"341 2 OFFCURVE",
"374 42 OFFCURVE",
"383 55 CURVE",
"387 24 OFFCURVE",
"404 2 OFFCURVE",
"468 2 CURVE SMOOTH",
"556 2 OFFCURVE",
"556 41 OFFCURVE",
"556 89 CURVE SMOOTH",
"556 439 LINE SMOOTH",
"556 486 OFFCURVE",
"556 527 OFFCURVE",
"469 527 CURVE SMOOTH"
);
},
{
closed = 1;
nodes = (
"238 177 OFFCURVE",
"200 221 OFFCURVE",
"200 263 CURVE SMOOTH",
"200 304 OFFCURVE",
"233 352 OFFCURVE",
"288 352 CURVE SMOOTH",
"346 352 OFFCURVE",
"375 301 OFFCURVE",
"375 264 CURVE SMOOTH",
"375 223 OFFCURVE",
"341 177 OFFCURVE",
"290 177 CURVE SMOOTH"
);
}
);
width = 596;
}
);
leftKerningGroup = a;
note = aring;
rightKerningGroup = a;
unicode = 00E5;
},
{
glyphname = atilde;
layers = (
{
layerId = "05A6575B-AA27-4212-BC78-A0BDA398BBDE";
name = Bold;
paths = (
{
closed = 1;
nodes = (
"401 527 OFFCURVE",
"386 504 OFFCURVE",
"382 471 CURVE",
"373 484 OFFCURVE",
"337 526 OFFCURVE",
"263 526 CURVE SMOOTH",
"147 526 OFFCURVE",
"25 406 OFFCURVE",
"25 266 CURVE SMOOTH",
"25 121 OFFCURVE",
"146 2 OFFCURVE",
"263 2 CURVE SMOOTH",
"341 2 OFFCURVE",
"374 42 OFFCURVE",
"383 55 CURVE",
"387 24 OFFCURVE",
"404 2 OFFCURVE",
"468 2 CURVE SMOOTH",
"556 2 OFFCURVE",
"556 41 OFFCURVE",
"556 89 CURVE SMOOTH",
"556 439 LINE SMOOTH",
"556 486 OFFCURVE",
"556 527 OFFCURVE",
"469 527 CURVE SMOOTH"
);
},
{
closed = 1;
nodes = (
"238 177 OFFCURVE",
"200 221 OFFCURVE",
"200 263 CURVE SMOOTH",
"200 304 OFFCURVE",
"233 352 OFFCURVE",
"288 352 CURVE SMOOTH",
"346 352 OFFCURVE",
"375 301 OFFCURVE",
"375 264 CURVE SMOOTH",
"375 223 OFFCURVE",
"341 177 OFFCURVE",
"290 177 CURVE SMOOTH"
);
},
{
closed = 1;
nodes = (
"475 768 OFFCURVE",
"463 773 OFFCURVE",
"453 773 CURVE SMOOTH",
"432 773 OFFCURVE",
"419 755 OFFCURVE",
"408 735 CURVE",
"408 735 OFFCURVE",
"401 723 OFFCURVE",
"383 723 CURVE SMOOTH",
"357 723 OFFCURVE",
"339 773 OFFCURVE",
"271 773 CURVE SMOOTH",
"177 773 OFFCURVE",
"139 694 OFFCURVE",
"139 694 CURVE",
"131 681 OFFCURVE",
"125 670 OFFCURVE",
"125 659 CURVE SMOOTH",
"125 646 OFFCURVE",
"133 633 OFFCURVE",
"157 612 CURVE SMOOTH",
"173 598 OFFCURVE",
"185 592 OFFCURVE",
"196 592 CURVE SMOOTH",
"217 592 OFFCURVE",
"231 613 OFFCURVE",
"242 632 CURVE",
"243 632 OFFCURVE",
"250 644 OFFCURVE",
"266 644 CURVE SMOOTH",
"294 644 OFFCURVE",
"312 592 OFFCURVE",
"381 592 CURVE SMOOTH",
"474 592 OFFCURVE",
"511 673 OFFCURVE",
"511 673 CURVE",
"519 686 OFFCURVE",
"525 698 OFFCURVE",
"525 710 CURVE SMOOTH",
"525 724 OFFCURVE",
"516 739 OFFCURVE",
"489 758 CURVE SMOOTH"
);
}
);
width = 596;
}
);
note = atilde;
rightKerningGroup = a;
unicode = 00E3;
},
{
glyphname = ae;
layers = (
{
layerId = "05A6575B-AA27-4212-BC78-A0BDA398BBDE";
name = Bold;
paths = (
{
closed = 1;
nodes = (
"752 159 OFFCURVE",
"716 143 OFFCURVE",
"657 143 CURVE SMOOTH",
"610 143 OFFCURVE",
"554 170 OFFCURVE",
"554 209 CURVE",
"787 209 LINE SMOOTH",
"826 209 OFFCURVE",
"885 234 OFFCURVE",
"885 331 CURVE SMOOTH",
"885 414 OFFCURVE",
"813 532 OFFCURVE",
"649 532 CURVE SMOOTH",
"572 532 OFFCURVE",
"503 508 OFFCURVE",
"453 463 CURVE",
"408 506 OFFCURVE",
"347 535 OFFCURVE",
"274 535 CURVE SMOOTH",
"178 535 OFFCURVE",
"106 497 OFFCURVE",
"75 468 CURVE SMOOTH",
"54 449 OFFCURVE",
"39 432 OFFCURVE",
"39 410 CURVE SMOOTH",
"39 392 OFFCURVE",
"49 371 OFFCURVE",
"76 339 CURVE SMOOTH",
"98 313 OFFCURVE",
"118 303 OFFCURVE",
"137 303 CURVE SMOOTH",
"162 303 OFFCURVE",
"184 321 OFFCURVE",
"202 340 CURVE SMOOTH",
"220 359 OFFCURVE",
"241 373 OFFCURVE",
"277 373 CURVE SMOOTH",
"344 373 OFFCURVE",
"357 303 OFFCURVE",
"361 255 CURVE",
"361 249 LINE",
"333 268 OFFCURVE",
"288 280 OFFCURVE",
"230 280 CURVE SMOOTH",
"120 280 OFFCURVE",
"25 241 OFFCURVE",
"25 149 CURVE SMOOTH",
"25 26 OFFCURVE",
"108 -9 OFFCURVE",
"207 -9 CURVE SMOOTH",
"342 -9 OFFCURVE",
"393 32 OFFCURVE",
"434 74 CURVE",
"436 78 LINE",
"481 28 OFFCURVE",
"550 -7 OFFCURVE",
"649 -7 CURVE SMOOTH",
"710 -7 OFFCURVE",
"760 5 OFFCURVE",
"796 18 CURVE",
"797 19 OFFCURVE",
"799 19 OFFCURVE",
"801 20 CURVE",
"823 28 OFFCURVE",
"859 41 OFFCURVE",
"859 80 CURVE SMOOTH",
"859 92 OFFCURVE",
"855 108 OFFCURVE",
"846 126 CURVE SMOOTH",
"829 159 OFFCURVE",
"810 169 OFFCURVE",
"791 169 CURVE SMOOTH",
"778 169 OFFCURVE",
"765 164 OFFCURVE",
"752 159 CURVE"
);
},
{
closed = 1;
nodes = (
"199 109 OFFCURVE",
"178 124 OFFCURVE",
"178 155 CURVE SMOOTH",
"178 181 OFFCURVE",
"211 189 OFFCURVE",
"260 189 CURVE SMOOTH",
"313 189 OFFCURVE",
"354 178 OFFCURVE",
"372 171 CURVE",
"375 162 LINE",
"349 129 OFFCURVE",
"295 109 OFFCURVE",
"245 109 CURVE SMOOTH"
);
},
{
closed = 1;
nodes = (
"691 380 OFFCURVE",
"714 358 OFFCURVE",
"714 329 CURVE SMOOTH",
"714 300 OFFCURVE",
"687 298 OFFCURVE",
"679 298 CURVE SMOOTH",
"553 298 LINE",
"553 339 OFFCURVE",
"607 380 OFFCURVE",
"647 380 CURVE SMOOTH"
);
}
);
width = 910;
}
);
leftKerningGroup = a;
note = ae;
rightKerningGroup = e;
unicode = 00E6;
},
{
glyphname = b;
layers = (
{
layerId = "05A6575B-AA27-4212-BC78-A0BDA398BBDE";
name = Bold;
paths = (
{
closed = 1;
nodes = (
"265 526 OFFCURVE",
"229 494 OFFCURVE",
"215 477 CURVE",
"215 685 LINE SMOOTH",
"215 732 OFFCURVE",
"215 773 OFFCURVE",
"128 773 CURVE SMOOTH",
"40 773 OFFCURVE",
"40 734 OFFCURVE",
"40 686 CURVE SMOOTH",
"40 89 LINE SMOOTH",
"40 42 OFFCURVE",
"40 1 OFFCURVE",
"127 1 CURVE SMOOTH",
"190 1 OFFCURVE",
"208 21 OFFCURVE",
"213 50 CURVE",
"225 34 OFFCURVE",
"259 2 OFFCURVE",
"329 2 CURVE SMOOTH",
"446 2 OFFCURVE",
"567 120 OFFCURVE",
"567 266 CURVE SMOOTH",
"567 405 OFFCURVE",
"445 526 OFFCURVE",
"329 526 CURVE SMOOTH"
);
},
{
closed = 1;
nodes = (
"251 176 OFFCURVE",
"217 222 OFFCURVE",
"217 263 CURVE SMOOTH",
"217 301 OFFCURVE",
"246 351 OFFCURVE",
"304 351 CURVE SMOOTH",
"360 351 OFFCURVE",
"392 304 OFFCURVE",
"392 263 CURVE SMOOTH",
"392 220 OFFCURVE",
"354 176 OFFCURVE",
"303 176 CURVE SMOOTH"
);
}
);
width = 592;
}
);
note = b;
rightKerningGroup = d;
unicode = 0062;
},
{
glyphname = c;
layers = (
{
layerId = "05A6575B-AA27-4212-BC78-A0BDA398BBDE";
name = Bold;
paths = (
{
closed = 1;
nodes = (
"346 190 OFFCURVE",
"328 174 OFFCURVE",
"293 174 CURVE SMOOTH",
"257 174 OFFCURVE",
"205 202 OFFCURVE",
"205 264 CURVE SMOOTH",
"205 326 OFFCURVE",
"259 354 OFFCURVE",
"295 354 CURVE SMOOTH",
"330 354 OFFCURVE",
"348 337 OFFCURVE",
"348 337 CURVE",
"367 325 OFFCURVE",
"384 315 OFFCURVE",
"402 315 CURVE SMOOTH",
"423 315 OFFCURVE",
"444 329 OFFCURVE",
"471 370 CURVE SMOOTH",
"486 393 OFFCURVE",
"492 411 OFFCURVE",
"492 426 CURVE SMOOTH",
"492 457 OFFCURVE",
"466 474 OFFCURVE",
"438 492 CURVE",
"438 492 OFFCURVE",
"381 533 OFFCURVE",
"295 533 CURVE SMOOTH",
"181 533 OFFCURVE",
"25 444 OFFCURVE",
"25 266 CURVE SMOOTH",
"25 84 OFFCURVE",
"181 -5 OFFCURVE",
"297 -5 CURVE SMOOTH",
"380 -5 OFFCURVE",
"437 35 OFFCURVE",
"437 35 CURVE",
"465 52 OFFCURVE",
"492 75 OFFCURVE",
"492 106 CURVE SMOOTH",
"492 121 OFFCURVE",
"485 138 OFFCURVE",
"469 158 CURVE SMOOTH",
"437 197 OFFCURVE",
"416 211 OFFCURVE",
"396 211 CURVE SMOOTH",
"380 211 OFFCURVE",
"365 202 OFFCURVE",
"346 190 CURVE"
);
}
);
width = 517;
}
);
leftKerningGroup = c;
note = c;
rightKerningGroup = c;
unicode = 0063;
},
{
glyphname = ccedilla;
layers = (
{
layerId = "05A6575B-AA27-4212-BC78-A0BDA398BBDE";
name = Bold;
paths = (
{
closed = 1;
nodes = (
"351 190 OFFCURVE",
"332 174 OFFCURVE",
"297 174 CURVE SMOOTH",
"260 174 OFFCURVE",
"208 202 OFFCURVE",
"208 265 CURVE SMOOTH",
"208 329 OFFCURVE",
"262 356 OFFCURVE",
"298 356 CURVE SMOOTH",
"334 356 OFFCURVE",
"353 339 OFFCURVE",
"353 339 CURVE",
"372 327 OFFCURVE",
"389 317 OFFCURVE",
"407 317 CURVE SMOOTH",
"428 317 OFFCURVE",
"450 331 OFFCURVE",
"477 372 CURVE SMOOTH",
"492 396 OFFCURVE",
"499 415 OFFCURVE",
"499 430 CURVE SMOOTH",
"499 462 OFFCURVE",
"472 479 OFFCURVE",
"444 497 CURVE",
"444 497 OFFCURVE",
"386 538 OFFCURVE",
"299 538 CURVE SMOOTH",
"183 538 OFFCURVE",
"25 447 OFFCURVE",
"25 267 CURVE SMOOTH",
"25 124 OFFCURVE",
"119 37 OFFCURVE",
"217 6 CURVE",
"210 1 OFFCURVE",
"204 -6 OFFCURVE",
"202 -15 CURVE",
"202 -17 OFFCURVE",
"201 -19 OFFCURVE",
"201 -21 CURVE SMOOTH",
"201 -29 OFFCURVE",
"205 -38 OFFCURVE",
"211 -48 CURVE",
"218 -58 OFFCURVE",
"229 -73 OFFCURVE",
"245 -73 CURVE SMOOTH",
"255 -73 OFFCURVE",
"263 -68 OFFCURVE",
"271 -63 CURVE",
"273 -61 OFFCURVE",
"277 -58 OFFCURVE",
"285 -58 CURVE SMOOTH",
"293 -58 OFFCURVE",
"308 -64 OFFCURVE",
"308 -82 CURVE SMOOTH",
"308 -99 OFFCURVE",
"293 -105 OFFCURVE",
"286 -105 CURVE SMOOTH",
"278 -105 OFFCURVE",
"273 -102 OFFCURVE",
"272 -101 CURVE",
"263 -99 OFFCURVE",
"258 -91 OFFCURVE",
"248 -91 CURVE SMOOTH",
"236 -91 OFFCURVE",
"226 -98 OFFCURVE",
"212 -115 CURVE SMOOTH",
"205 -123 OFFCURVE",
"201 -132 OFFCURVE",
"201 -140 CURVE SMOOTH",
"201 -142 OFFCURVE",
"202 -143 OFFCURVE",
"202 -145 CURVE",
"204 -160 OFFCURVE",
"217 -169 OFFCURVE",
"227 -175 CURVE",
"229 -177 OFFCURVE",
"252 -192 OFFCURVE",
"284 -192 CURVE SMOOTH",
"310 -192 OFFCURVE",
"337 -182 OFFCURVE",
"358 -164 CURVE SMOOTH",
"375 -150 OFFCURVE",
"396 -123 OFFCURVE",
"396 -81 CURVE SMOOTH",
"396 -46 OFFCURVE",
"381 -19 OFFCURVE",
"361 -1 CURVE",
"412 10 OFFCURVE",
"444 32 OFFCURVE",
"444 32 CURVE",
"472 50 OFFCURVE",
"499 73 OFFCURVE",
"499 104 CURVE SMOOTH",
"499 119 OFFCURVE",
"492 137 OFFCURVE",
"476 157 CURVE SMOOTH",
"443 197 OFFCURVE",
"421 211 OFFCURVE",
"401 211 CURVE SMOOTH",
"385 211 OFFCURVE",
"370 202 OFFCURVE",
"351 190 CURVE"
);
}
);
width = 524;
}
);
leftKerningGroup = c;
note = ccedilla;
rightKerningGroup = c;
unicode = 00E7;
},
{
glyphname = d;
layers = (
{
layerId = "05A6575B-AA27-4212-BC78-A0BDA398BBDE";
name = Bold;
paths = (
{
closed = 1;
nodes = (
"383 773 OFFCURVE",
"383 734 OFFCURVE",
"383 686 CURVE SMOOTH",
"383 476 LINE",
"369 493 OFFCURVE",
"333 526 OFFCURVE",
"268 526 CURVE SMOOTH",
"152 526 OFFCURVE",
"30 405 OFFCURVE",
"30 266 CURVE SMOOTH",
"30 120 OFFCURVE",
"151 2 OFFCURVE",
"268 2 CURVE SMOOTH",
"339 2 OFFCURVE",
"372 35 OFFCURVE",
"385 50 CURVE",
"390 21 OFFCURVE",
"408 1 OFFCURVE",
"469 1 CURVE SMOOTH",
"558 1 OFFCURVE",
"558 40 OFFCURVE",
"558 88 CURVE SMOOTH",
"558 685 LINE SMOOTH",
"558 733 OFFCURVE",
"558 773 OFFCURVE",
"471 773 CURVE SMOOTH"
);
},
{
closed = 1;
nodes = (
"243 176 OFFCURVE",
"205 220 OFFCURVE",
"205 263 CURVE SMOOTH",
"205 304 OFFCURVE",
"237 351 OFFCURVE",
"293 351 CURVE SMOOTH",
"351 351 OFFCURVE",
"380 301 OFFCURVE",
"380 263 CURVE SMOOTH",
"380 222 OFFCURVE",
"346 176 OFFCURVE",
"294 176 CURVE SMOOTH"
);
}
);
width = 598;
}
);
note = d;
rightKerningGroup = d;
unicode = 0064;
},
{
glyphname = eth;
layers = (
{
layerId = "05A6575B-AA27-4212-BC78-A0BDA398BBDE";
name = Bold;
paths = (
{
closed = 1;
nodes = (
"386 735 LINE",
"392 744 OFFCURVE",
"397 753 OFFCURVE",
"397 762 CURVE SMOOTH",
"397 773 OFFCURVE",
"390 783 OFFCURVE",
"370 795 CURVE",
"358 803 OFFCURVE",
"349 806 OFFCURVE",
"342 806 CURVE SMOOTH",
"327 806 OFFCURVE",
"320 792 OFFCURVE",
"310 779 CURVE SMOOTH",
"286 747 LINE",
"277 751 OFFCURVE",
"271 754 OFFCURVE",
"269 754 CURVE",
"254 760 OFFCURVE",
"238 769 OFFCURVE",
"221 769 CURVE SMOOTH",
"204 769 OFFCURVE",
"186 760 OFFCURVE",
"169 727 CURVE SMOOTH",
"159 708 OFFCURVE",
"155 694 OFFCURVE",
"155 683 CURVE SMOOTH",
"155 655 OFFCURVE",
"182 649 OFFCURVE",
"200 637 CURVE",
"200 637 OFFCURVE",
"201 636 OFFCURVE",
"203 636 CURVE",
"180 605 LINE SMOOTH",
"173 596 OFFCURVE",
"167 588 OFFCURVE",
"167 579 CURVE SMOOTH",
"167 569 OFFCURVE",
"174 558 OFFCURVE",
"196 545 CURVE SMOOTH",
"207 538 OFFCURVE",
"215 535 OFFCURVE",
"222 535 CURVE SMOOTH",
"236 535 OFFCURVE",
"244 546 OFFCURVE",
"253 558 CURVE SMOOTH",
"284 599 LINE",
"340 569 OFFCURVE",
"380 523 OFFCURVE",
"412 468 CURVE",
"380 493 OFFCURVE",
"348 515 OFFCURVE",
"276 515 CURVE SMOOTH",
"166 515 OFFCURVE",
"25 410 OFFCURVE",
"25 255 CURVE SMOOTH",
"25 93 OFFCURVE",
"167 -9 OFFCURVE",
"292 -9 CURVE SMOOTH",
"445 -9 OFFCURVE",
"551 123 OFFCURVE",
"558 242 CURVE SMOOTH",
"559 258 OFFCURVE",
"560 275 OFFCURVE",
"560 290 CURVE SMOOTH",
"560 520 OFFCURVE",
"446 642 OFFCURVE",
"362 703 CURVE"
);
},
{
closed = 1;
nodes = (
"258 163 OFFCURVE",
"197 186 OFFCURVE",
"197 257 CURVE SMOOTH",
"197 326 OFFCURVE",
"255 352 OFFCURVE",
"290 352 CURVE SMOOTH",
"331 352 OFFCURVE",
"387 328 OFFCURVE",
"387 258 CURVE SMOOTH",
"387 186 OFFCURVE",
"324 163 OFFCURVE",
"291 163 CURVE SMOOTH"
);
}
);
width = 585;
}
);
note = eth;
rightKerningGroup = d;
unicode = 00F0;
},
{
glyphname = e;
layers = (
{
layerId = "05A6575B-AA27-4212-BC78-A0BDA398BBDE";
name = Bold;
paths = (
{
closed = 1;
nodes = (
"548 415 OFFCURVE",
"481 538 OFFCURVE",
"310 538 CURVE SMOOTH",
"152 538 OFFCURVE",
"25 434 OFFCURVE",
"25 261 CURVE SMOOTH",
"25 140 OFFCURVE",
"101 -13 OFFCURVE",
"309 -13 CURVE SMOOTH",
"378 -13 OFFCURVE",
"522 -6 OFFCURVE",
"522 76 CURVE SMOOTH",
"522 89 OFFCURVE",
"518 103 OFFCURVE",
"509 122 CURVE SMOOTH",
"492 156 OFFCURVE",
"473 167 OFFCURVE",
"454 167 CURVE SMOOTH",
"441 167 OFFCURVE",
"427 162 OFFCURVE",
"414 156 CURVE",
"414 156 OFFCURVE",
"377 140 OFFCURVE",
"317 140 CURVE SMOOTH",
"270 140 OFFCURVE",
"213 167 OFFCURVE",
"213 206 CURVE",
"450 206 LINE SMOOTH",
"489 206 OFFCURVE",
"548 233 OFFCURVE",
"548 331 CURVE SMOOTH"
);
},
{
closed = 1;
nodes = (
"211 297 LINE",
"211 339 OFFCURVE",
"266 380 OFFCURVE",
"307 380 CURVE SMOOTH",
"352 380 OFFCURVE",
"375 358 OFFCURVE",
"375 329 CURVE SMOOTH",
"375 299 OFFCURVE",
"347 297 OFFCURVE",
"337 297 CURVE SMOOTH"
);
}
);
width = 573;
}
);
leftKerningGroup = e;
note = e;
rightKerningGroup = e;
unicode = 0065;
},
{
glyphname = eacute;
layers = (
{
layerId = "05A6575B-AA27-4212-BC78-A0BDA398BBDE";
name = Bold;
paths = (
{
closed = 1;
nodes = (
"420 628 LINE SMOOTH",
"443 635 OFFCURVE",
"463 642 OFFCURVE",
"463 673 CURVE SMOOTH",
"463 684 OFFCURVE",
"461 697 OFFCURVE",
"455 715 CURVE SMOOTH",
"441 762 OFFCURVE",
"425 774 OFFCURVE",
"407 774 CURVE SMOOTH",
"398 774 OFFCURVE",
"388 770 OFFCURVE",
"377 767 CURVE SMOOTH",
"212 716 LINE SMOOTH",
"189 709 OFFCURVE",
"169 702 OFFCURVE",
"169 671 CURVE SMOOTH",
"169 660 OFFCURVE",
"171 646 OFFCURVE",
"177 628 CURVE SMOOTH",
"192 581 OFFCURVE",
"208 569 OFFCURVE",
"226 569 CURVE SMOOTH",
"235 569 OFFCURVE",
"243 572 OFFCURVE",
"253 575 CURVE",
"254 575 OFFCURVE",
"255 576 OFFCURVE",
"256 576 CURVE"
);
},
{
closed = 1;
nodes = (
"548 415 OFFCURVE",
"481 538 OFFCURVE",
"310 538 CURVE SMOOTH",
"152 538 OFFCURVE",
"25 434 OFFCURVE",
"25 261 CURVE SMOOTH",
"25 140 OFFCURVE",
"101 -13 OFFCURVE",
"309 -13 CURVE SMOOTH",
"378 -13 OFFCURVE",
"522 -6 OFFCURVE",
"522 76 CURVE SMOOTH",
"522 89 OFFCURVE",
"518 103 OFFCURVE",
"509 122 CURVE SMOOTH",
"492 156 OFFCURVE",
"473 167 OFFCURVE",
"454 167 CURVE SMOOTH",
"441 167 OFFCURVE",
"427 162 OFFCURVE",
"414 156 CURVE",
"414 156 OFFCURVE",
"377 140 OFFCURVE",
"317 140 CURVE SMOOTH",
"270 140 OFFCURVE",
"213 167 OFFCURVE",
"213 206 CURVE",
"450 206 LINE SMOOTH",
"489 206 OFFCURVE",
"548 233 OFFCURVE",
"548 331 CURVE SMOOTH"
);
},
{
closed = 1;
nodes = (
"211 297 LINE",
"211 339 OFFCURVE",
"266 380 OFFCURVE",
"307 380 CURVE SMOOTH",
"352 380 OFFCURVE",
"375 358 OFFCURVE",
"375 329 CURVE SMOOTH",
"375 299 OFFCURVE",
"347 297 OFFCURVE",
"337 297 CURVE SMOOTH"
);
}
);
width = 573;
}
);
leftKerningGroup = e;
note = eacute;
rightKerningGroup = e;
unicode = 00E9;
},
{
glyphname = ecircumflex;
layers = (
{
layerId = "05A6575B-AA27-4212-BC78-A0BDA398BBDE";
name = Bold;
paths = (
{
closed = 1;
nodes = (
"413 739 OFFCURVE",
"320 769 OFFCURVE",
"320 769 CURVE",
"315 770 OFFCURVE",
"305 774 OFFCURVE",
"297 774 CURVE SMOOTH",
"288 774 OFFCURVE",
"278 770 OFFCURVE",
"273 769 CURVE",
"273 769 OFFCURVE",
"181 739 OFFCURVE",
"134 723 CURVE SMOOTH",
"116 717 OFFCURVE",
"96 705 OFFCURVE",
"96 678 CURVE SMOOTH",
"96 667 OFFCURVE",
"100 653 OFFCURVE",
"108 636 CURVE SMOOTH",
"127 595 OFFCURVE",
"150 585 OFFCURVE",
"170 585 CURVE SMOOTH",
"181 585 OFFCURVE",
"192 588 OFFCURVE",
"201 591 CURVE",
"202 591 OFFCURVE",
"203 592 OFFCURVE",
"204 592 CURVE",
"297 632 LINE",
"393 590 LINE",
"403 587 OFFCURVE",
"414 583 OFFCURVE",
"425 583 CURVE SMOOTH",
"444 583 OFFCURVE",
"464 594 OFFCURVE",
"485 636 CURVE SMOOTH",
"493 651 OFFCURVE",
"496 665 OFFCURVE",
"496 676 CURVE SMOOTH",
"496 703 OFFCURVE",
"477 717 OFFCURVE",
"459 723 CURVE SMOOTH"
);
},
{
closed = 1;
nodes = (
"548 415 OFFCURVE",
"481 538 OFFCURVE",
"310 538 CURVE SMOOTH",
"152 538 OFFCURVE",
"25 434 OFFCURVE",
"25 261 CURVE SMOOTH",
"25 140 OFFCURVE",
"101 -13 OFFCURVE",
"309 -13 CURVE SMOOTH",
"378 -13 OFFCURVE",
"522 -6 OFFCURVE",
"522 76 CURVE SMOOTH",
"522 89 OFFCURVE",
"518 103 OFFCURVE",
"509 122 CURVE SMOOTH",
"492 156 OFFCURVE",
"473 167 OFFCURVE",
"454 167 CURVE SMOOTH",
"441 167 OFFCURVE",
"427 162 OFFCURVE",
"414 156 CURVE",
"414 156 OFFCURVE",
"377 140 OFFCURVE",
"317 140 CURVE SMOOTH",
"270 140 OFFCURVE",
"213 167 OFFCURVE",
"213 206 CURVE",
"450 206 LINE SMOOTH",
"489 206 OFFCURVE",
"548 233 OFFCURVE",
"548 331 CURVE SMOOTH"
);
},
{
closed = 1;
nodes = (
"211 297 LINE",
"211 339 OFFCURVE",
"266 380 OFFCURVE",
"307 380 CURVE SMOOTH",
"352 380 OFFCURVE",
"375 358 OFFCURVE",
"375 329 CURVE SMOOTH",
"375 299 OFFCURVE",
"347 297 OFFCURVE",
"337 297 CURVE SMOOTH"
);
}
);
width = 573;
}
);
leftKerningGroup = e;
note = ecircumflex;
rightKerningGroup = e;
unicode = 00EA;
},
{
glyphname = edieresis;
layers = (
{
layerId = "05A6575B-AA27-4212-BC78-A0BDA398BBDE";
name = Bold;
paths = (
{
closed = 1;
nodes = (
"513 595 OFFCURVE",
"513 635 OFFCURVE",
"513 683 CURVE SMOOTH",
"513 732 OFFCURVE",
"513 773 OFFCURVE",
"424 773 CURVE SMOOTH",
"334 773 OFFCURVE",
"334 734 OFFCURVE",
"334 685 CURVE SMOOTH",
"334 636 OFFCURVE",
"334 595 OFFCURVE",
"423 595 CURVE SMOOTH"
);
},
{
closed = 1;
nodes = (
"243 595 OFFCURVE",
"243 635 OFFCURVE",
"243 683 CURVE SMOOTH",
"243 732 OFFCURVE",
"243 773 OFFCURVE",
"154 773 CURVE SMOOTH",
"64 773 OFFCURVE",
"65 734 OFFCURVE",
"64 685 CURVE SMOOTH",
"64 636 OFFCURVE",
"64 595 OFFCURVE",
"153 595 CURVE SMOOTH"
);
},
{
closed = 1;
nodes = (
"548 415 OFFCURVE",
"481 538 OFFCURVE",
"310 538 CURVE SMOOTH",
"152 538 OFFCURVE",
"25 434 OFFCURVE",
"25 261 CURVE SMOOTH",
"25 140 OFFCURVE",
"101 -13 OFFCURVE",
"309 -13 CURVE SMOOTH",
"378 -13 OFFCURVE",
"522 -6 OFFCURVE",
"522 76 CURVE SMOOTH",
"522 89 OFFCURVE",
"518 103 OFFCURVE",
"509 122 CURVE SMOOTH",
"492 156 OFFCURVE",
"473 167 OFFCURVE",
"454 167 CURVE SMOOTH",
"441 167 OFFCURVE",
"427 162 OFFCURVE",
"414 156 CURVE",
"414 156 OFFCURVE",
"377 140 OFFCURVE",
"317 140 CURVE SMOOTH",
"270 140 OFFCURVE",
"213 167 OFFCURVE",
"213 206 CURVE",
"450 206 LINE SMOOTH",
"489 206 OFFCURVE",
"548 233 OFFCURVE",
"548 331 CURVE SMOOTH"
);
},
{
closed = 1;
nodes = (
"211 297 LINE",
"211 339 OFFCURVE",
"266 380 OFFCURVE",
"307 380 CURVE SMOOTH",
"352 380 OFFCURVE",
"375 358 OFFCURVE",
"375 329 CURVE SMOOTH",
"375 299 OFFCURVE",
"347 297 OFFCURVE",
"337 297 CURVE SMOOTH"
);
}
);
width = 573;
}
);
leftKerningGroup = e;
note = edieresis;
rightKerningGroup = e;
unicode = 00EB;
},
{
glyphname = egrave;
layers = (
{
layerId = "05A6575B-AA27-4212-BC78-A0BDA398BBDE";
name = Bold;
paths = (
{
closed = 1;
nodes = (
"349 576 LINE",
"350 576 OFFCURVE",
"351 575 OFFCURVE",
"352 575 CURVE",
"362 572 OFFCURVE",
"370 569 OFFCURVE",
"379 569 CURVE SMOOTH",
"397 569 OFFCURVE",
"413 581 OFFCURVE",
"428 628 CURVE SMOOTH",
"434 646 OFFCURVE",
"436 659 OFFCURVE",
"436 670 CURVE SMOOTH",
"436 702 OFFCURVE",
"415 709 OFFCURVE",
"393 716 CURVE SMOOTH",
"228 767 LINE SMOOTH",
"217 770 OFFCURVE",
"207 774 OFFCURVE",
"198 774 CURVE SMOOTH",
"180 774 OFFCURVE",
"164 762 OFFCURVE",
"149 715 CURVE SMOOTH",
"143 697 OFFCURVE",
"141 684 OFFCURVE",
"141 673 CURVE SMOOTH",
"141 642 OFFCURVE",
"161 635 OFFCURVE",
"184 628 CURVE SMOOTH"
);
},
{
closed = 1;
nodes = (
"548 415 OFFCURVE",
"481 538 OFFCURVE",
"310 538 CURVE SMOOTH",
"152 538 OFFCURVE",
"25 434 OFFCURVE",
"25 261 CURVE SMOOTH",
"25 140 OFFCURVE",
"101 -13 OFFCURVE",
"309 -13 CURVE SMOOTH",
"378 -13 OFFCURVE",
"522 -6 OFFCURVE",
"522 76 CURVE SMOOTH",
"522 89 OFFCURVE",
"518 103 OFFCURVE",
"509 122 CURVE SMOOTH",
"492 156 OFFCURVE",
"473 167 OFFCURVE",
"454 167 CURVE SMOOTH",
"441 167 OFFCURVE",
"427 162 OFFCURVE",
"414 156 CURVE",
"414 156 OFFCURVE",
"377 140 OFFCURVE",
"317 140 CURVE SMOOTH",
"270 140 OFFCURVE",
"213 167 OFFCURVE",
"213 206 CURVE",
"450 206 LINE SMOOTH",
"489 206 OFFCURVE",
"548 233 OFFCURVE",
"548 331 CURVE SMOOTH"
);
},
{
closed = 1;
nodes = (
"211 297 LINE",
"211 339 OFFCURVE",
"266 380 OFFCURVE",
"307 380 CURVE SMOOTH",
"352 380 OFFCURVE",
"375 358 OFFCURVE",
"375 329 CURVE SMOOTH",
"375 299 OFFCURVE",
"347 297 OFFCURVE",
"337 297 CURVE SMOOTH"
);
}
);
width = 573;
}
);
leftKerningGroup = e;
note = egrave;
rightKerningGroup = e;
unicode = 00E8;
},
{
glyphname = f;
layers = (
{
layerId = "05A6575B-AA27-4212-BC78-A0BDA398BBDE";
name = Bold;
paths = (
{
closed = 1;
nodes = (
"283 520 LINE",
"283 575 LINE SMOOTH",
"283 597 OFFCURVE",
"304 600 OFFCURVE",
"320 600 CURVE SMOOTH",
"368 600 OFFCURVE",
"409 600 OFFCURVE",
"409 687 CURVE SMOOTH",
"409 775 OFFCURVE",
"369 775 OFFCURVE",
"321 775 CURVE SMOOTH",
"170 775 OFFCURVE",
"107 662 OFFCURVE",
"107 573 CURVE SMOOTH",
"107 520 LINE",
"74 520 LINE SMOOTH",
"47 520 OFFCURVE",
"15 509 OFFCURVE",
"15 438 CURVE SMOOTH",
"15 362 OFFCURVE",
"41 355 OFFCURVE",
"71 353 CURVE",
"107 353 LINE",
"107 88 LINE SMOOTH",
"107 40 OFFCURVE",
"108 -1 OFFCURVE",
"194 -1 CURVE SMOOTH",
"281 -1 OFFCURVE",
"283 39 OFFCURVE",
"283 86 CURVE SMOOTH",
"283 354 LINE",
"283 354 OFFCURVE",
"343 350 OFFCURVE",
"347 350 CURVE SMOOTH",
"395 350 OFFCURVE",
"435 354 OFFCURVE",
"435 437 CURVE SMOOTH",
"435 525 OFFCURVE",
"395 526 OFFCURVE",
"348 526 CURVE"
);
}
);
width = 450;
}
);
leftKerningGroup = f;
note = f;
rightKerningGroup = d;
unicode = 0066;
},
{
glyphname = g;
layers = (
{
layerId = "05A6575B-AA27-4212-BC78-A0BDA398BBDE";
name = Bold;
paths = (
{
closed = 1;
nodes = (
"392 529 OFFCURVE",
"378 505 OFFCURVE",
"375 472 CURVE",
"368 483 OFFCURVE",
"333 527 OFFCURVE",
"258 527 CURVE SMOOTH",
"145 527 OFFCURVE",
"25 410 OFFCURVE",
"25 273 CURVE SMOOTH",
"25 131 OFFCURVE",
"144 16 OFFCURVE",
"258 16 CURVE SMOOTH",
"342 16 OFFCURVE",
"372 64 OFFCURVE",
"374 66 CURVE",
"374 36 LINE SMOOTH",
"374 -17 OFFCURVE",
"341 -66 OFFCURVE",
"288 -66 CURVE SMOOTH",
"203 -66 OFFCURVE",
"191 -17 OFFCURVE",
"155 -17 CURVE SMOOTH",
"135 -17 OFFCURVE",
"123 -30 OFFCURVE",
"101 -54 CURVE",
"98 -57 LINE",
"74 -83 OFFCURVE",
"71 -106 OFFCURVE",
"71 -123 CURVE SMOOTH",
"71 -160 OFFCURVE",
"177 -227 OFFCURVE",
"285 -227 CURVE SMOOTH",
"408 -227 OFFCURVE",
"545 -134 OFFCURVE",
"545 29 CURVE SMOOTH",
"545 443 LINE SMOOTH",
"545 490 OFFCURVE",
"545 529 OFFCURVE",
"461 529 CURVE SMOOTH"
);
},
{
closed = 1;
nodes = (
"233 186 OFFCURVE",
"196 229 OFFCURVE",
"196 271 CURVE SMOOTH",
"196 310 OFFCURVE",
"228 357 OFFCURVE",
"282 357 CURVE SMOOTH",
"339 357 OFFCURVE",
"368 308 OFFCURVE",
"368 271 CURVE SMOOTH",
"368 231 OFFCURVE",
"334 186 OFFCURVE",
"284 186 CURVE SMOOTH"
);
}
);
width = 585;
}
);
note = g;
rightKerningGroup = d;
unicode = 0067;
},
{
glyphname = h;
layers = (
{
layerId = "05A6575B-AA27-4212-BC78-A0BDA398BBDE";
name = Bold;
paths = (
{
closed = 1;
nodes = (
"269 525 OFFCURVE",
"228 480 OFFCURVE",
"215 464 CURVE",
"215 685 LINE SMOOTH",
"215 733 OFFCURVE",
"215 773 OFFCURVE",
"128 773 CURVE SMOOTH",
"40 773 OFFCURVE",
"40 734 OFFCURVE",
"40 686 CURVE SMOOTH",
"40 88 LINE SMOOTH",
"40 40 OFFCURVE",
"40 0 OFFCURVE",
"127 0 CURVE SMOOTH",
"215 0 OFFCURVE",
"215 39 OFFCURVE",
"215 87 CURVE SMOOTH",
"215 281 LINE",
"220 315 OFFCURVE",
"260 351 OFFCURVE",
"308 351 CURVE SMOOTH",
"354 351 OFFCURVE",
"390 320 OFFCURVE",
"390 264 CURVE SMOOTH",
"390 89 LINE SMOOTH",
"390 39 OFFCURVE",
"391 0 OFFCURVE",
"477 0 CURVE SMOOTH",
"565 0 OFFCURVE",
"565 40 OFFCURVE",
"565 87 CURVE SMOOTH",
"565 263 LINE SMOOTH",
"565 408 OFFCURVE",
"467 525 OFFCURVE",
"332 525 CURVE SMOOTH"
);
}
);
width = 605;
}
);
note = h;
rightKerningGroup = d;
unicode = 0068;
},
{
glyphname = i;
layers = (
{
layerId = "05A6575B-AA27-4212-BC78-A0BDA398BBDE";
name = Bold;
paths = (
{
closed = 1;
nodes = (
"40 88 LINE SMOOTH",
"40 40 OFFCURVE",
"40 0 OFFCURVE",
"127 0 CURVE SMOOTH",
"215 0 OFFCURVE",
"215 39 OFFCURVE",
"215 87 CURVE SMOOTH",
"215 437 LINE SMOOTH",
"215 485 OFFCURVE",
"215 526 OFFCURVE",
"128 526 CURVE SMOOTH",
"40 526 OFFCURVE",
"40 486 OFFCURVE",
"40 439 CURVE SMOOTH"
);
},
{
closed = 1;
nodes = (
"215 598 OFFCURVE",
"215 637 OFFCURVE",
"215 685 CURVE SMOOTH",
"215 732 OFFCURVE",
"215 773 OFFCURVE",
"128 773 CURVE SMOOTH",
"40 773 OFFCURVE",
"40 734 OFFCURVE",
"40 686 CURVE SMOOTH",
"40 639 OFFCURVE",
"40 598 OFFCURVE",
"127 598 CURVE SMOOTH"
);
}
);
width = 255;
}
);
leftKerningGroup = i;
note = i;
rightKerningGroup = d;
unicode = 0069;
},
{
glyphname = dotlessi;
layers = (
{
layerId = "05A6575B-AA27-4212-BC78-A0BDA398BBDE";
name = Bold;
paths = (
{
closed = 1;
nodes = (
"40 88 LINE SMOOTH",
"40 40 OFFCURVE",
"40 0 OFFCURVE",
"127 0 CURVE SMOOTH",
"215 0 OFFCURVE",
"215 39 OFFCURVE",
"215 87 CURVE SMOOTH",
"215 437 LINE SMOOTH",
"215 485 OFFCURVE",
"215 526 OFFCURVE",
"128 526 CURVE SMOOTH",
"40 526 OFFCURVE",
"40 486 OFFCURVE",
"40 439 CURVE SMOOTH"
);
}
);
width = 255;
}
);
leftKerningGroup = i;
note = dotlessi;
rightKerningGroup = d;
unicode = 0131;
},
{
glyphname = iacute;
layers = (
{
layerId = "05A6575B-AA27-4212-BC78-A0BDA398BBDE";
name = Bold;
paths = (
{
closed = 1;
nodes = (
"40 88 LINE SMOOTH",
"40 40 OFFCURVE",
"40 0 OFFCURVE",
"127 0 CURVE SMOOTH",
"215 0 OFFCURVE",
"215 39 OFFCURVE",
"215 87 CURVE SMOOTH",
"215 437 LINE SMOOTH",
"215 485 OFFCURVE",
"215 526 OFFCURVE",
"128 526 CURVE SMOOTH",
"40 526 OFFCURVE",
"40 486 OFFCURVE",
"40 439 CURVE SMOOTH"
);
},
{
closed = 1;
nodes = (
"267 628 LINE SMOOTH",
"290 635 OFFCURVE",
"310 642 OFFCURVE",
"310 673 CURVE SMOOTH",
"310 684 OFFCURVE",
"308 697 OFFCURVE",
"302 715 CURVE SMOOTH",
"288 762 OFFCURVE",
"272 774 OFFCURVE",
"254 774 CURVE SMOOTH",
"245 774 OFFCURVE",
"235 770 OFFCURVE",
"224 767 CURVE SMOOTH",
"59 716 LINE SMOOTH",
"36 709 OFFCURVE",
"16 702 OFFCURVE",
"16 671 CURVE SMOOTH",
"16 660 OFFCURVE",
"18 646 OFFCURVE",
"24 628 CURVE SMOOTH",
"39 581 OFFCURVE",
"55 569 OFFCURVE",
"73 569 CURVE SMOOTH",
"82 569 OFFCURVE",
"90 572 OFFCURVE",
"100 575 CURVE",
"101 575 OFFCURVE",
"102 576 OFFCURVE",
"103 576 CURVE"
);
}
);
width = 255;
}
);
leftKerningGroup = i;
note = iacute;
rightKerningGroup = d;
unicode = 00ED;
},
{
glyphname = icircumflex;
layers = (
{
layerId = "05A6575B-AA27-4212-BC78-A0BDA398BBDE";
name = Bold;
paths = (
{
closed = 1;
nodes = (
"40 88 LINE SMOOTH",
"40 40 OFFCURVE",
"40 0 OFFCURVE",
"127 0 CURVE SMOOTH",
"215 0 OFFCURVE",
"215 39 OFFCURVE",
"215 87 CURVE SMOOTH",
"215 437 LINE SMOOTH",
"215 485 OFFCURVE",
"215 526 OFFCURVE",
"128 526 CURVE SMOOTH",
"40 526 OFFCURVE",
"40 486 OFFCURVE",
"40 439 CURVE SMOOTH"
);
},
{
closed = 1;
nodes = (
"245 739 OFFCURVE",
"152 769 OFFCURVE",
"152 769 CURVE",
"147 770 OFFCURVE",
"137 774 OFFCURVE",
"129 774 CURVE SMOOTH",
"120 774 OFFCURVE",
"110 770 OFFCURVE",
"105 769 CURVE",
"105 769 OFFCURVE",
"13 739 OFFCURVE",
"-34 723 CURVE SMOOTH",
"-52 717 OFFCURVE",
"-72 705 OFFCURVE",
"-72 678 CURVE SMOOTH",
"-72 667 OFFCURVE",
"-68 653 OFFCURVE",
"-60 636 CURVE SMOOTH",
"-41 595 OFFCURVE",
"-18 585 OFFCURVE",
"2 585 CURVE SMOOTH",
"13 585 OFFCURVE",
"24 588 OFFCURVE",
"33 591 CURVE",
"34 591 OFFCURVE",
"35 592 OFFCURVE",
"36 592 CURVE",
"129 632 LINE",
"225 590 LINE",
"235 587 OFFCURVE",
"246 583 OFFCURVE",
"257 583 CURVE SMOOTH",
"276 583 OFFCURVE",
"296 594 OFFCURVE",
"317 636 CURVE SMOOTH",
"325 651 OFFCURVE",
"328 665 OFFCURVE",
"328 676 CURVE SMOOTH",
"328 703 OFFCURVE",
"309 717 OFFCURVE",
"291 723 CURVE SMOOTH"
);
}
);
width = 255;
}
);
leftKerningGroup = i;
note = icircumflex;
rightKerningGroup = d;
unicode = 00EE;
},
{
glyphname = idieresis;
layers = (
{
layerId = "05A6575B-AA27-4212-BC78-A0BDA398BBDE";
name = Bold;
paths = (
{
closed = 1;
nodes = (
"40 88 LINE SMOOTH",
"40 40 OFFCURVE",
"40 0 OFFCURVE",
"127 0 CURVE SMOOTH",
"215 0 OFFCURVE",
"215 39 OFFCURVE",
"215 87 CURVE SMOOTH",
"215 437 LINE SMOOTH",
"215 485 OFFCURVE",
"215 526 OFFCURVE",
"128 526 CURVE SMOOTH",
"40 526 OFFCURVE",
"40 486 OFFCURVE",
"40 439 CURVE SMOOTH"
);
},
{
closed = 1;
nodes = (
"82 595 OFFCURVE",
"82 635 OFFCURVE",
"82 683 CURVE SMOOTH",
"82 732 OFFCURVE",
"82 773 OFFCURVE",
"-7 773 CURVE SMOOTH",
"-97 773 OFFCURVE",
"-96 734 OFFCURVE",
"-97 685 CURVE SMOOTH",
"-97 636 OFFCURVE",
"-97 595 OFFCURVE",
"-8 595 CURVE SMOOTH"
);
},
{
closed = 1;
nodes = (
"352 595 OFFCURVE",
"352 635 OFFCURVE",
"352 683 CURVE SMOOTH",
"352 732 OFFCURVE",
"352 773 OFFCURVE",
"263 773 CURVE SMOOTH",
"173 773 OFFCURVE",
"173 734 OFFCURVE",
"173 685 CURVE SMOOTH",
"173 636 OFFCURVE",
"173 595 OFFCURVE",
"262 595 CURVE SMOOTH"
);
}
);
width = 255;
}
);
leftKerningGroup = i;
note = idieresis;
rightKerningGroup = d;
unicode = 00EF;
},
{
glyphname = igrave;
layers = (
{
layerId = "05A6575B-AA27-4212-BC78-A0BDA398BBDE";
name = Bold;
paths = (
{
closed = 1;
nodes = (
"40 88 LINE SMOOTH",
"40 40 OFFCURVE",
"40 0 OFFCURVE",
"127 0 CURVE SMOOTH",
"215 0 OFFCURVE",
"215 39 OFFCURVE",
"215 87 CURVE SMOOTH",
"215 437 LINE SMOOTH",
"215 485 OFFCURVE",
"215 526 OFFCURVE",
"128 526 CURVE SMOOTH",
"40 526 OFFCURVE",
"40 486 OFFCURVE",
"40 439 CURVE SMOOTH"
);
},
{
closed = 1;
nodes = (
"161 576 LINE",
"162 576 OFFCURVE",
"163 575 OFFCURVE",
"164 575 CURVE",
"174 572 OFFCURVE",
"182 569 OFFCURVE",
"191 569 CURVE SMOOTH",
"209 569 OFFCURVE",
"225 581 OFFCURVE",
"240 628 CURVE SMOOTH",
"246 646 OFFCURVE",
"248 659 OFFCURVE",
"248 670 CURVE SMOOTH",
"248 702 OFFCURVE",
"227 709 OFFCURVE",
"205 716 CURVE SMOOTH",
"40 767 LINE SMOOTH",
"29 770 OFFCURVE",
"19 774 OFFCURVE",
"10 774 CURVE SMOOTH",
"-8 774 OFFCURVE",
"-24 762 OFFCURVE",
"-39 715 CURVE SMOOTH",
"-45 697 OFFCURVE",
"-47 684 OFFCURVE",
"-47 673 CURVE SMOOTH",
"-47 642 OFFCURVE",
"-27 635 OFFCURVE",
"-4 628 CURVE SMOOTH"
);
}
);
width = 255;
}
);
leftKerningGroup = i;
note = igrave;
rightKerningGroup = d;
unicode = 00EC;
},
{
glyphname = j;
layers = (
{
layerId = "05A6575B-AA27-4212-BC78-A0BDA398BBDE";
name = Bold;
paths = (
{
closed = 1;
nodes = (
"211 600 OFFCURVE",
"212 637 OFFCURVE",
"212 683 CURVE SMOOTH",
"212 689 LINE SMOOTH",
"212 734 OFFCURVE",
"211 772 OFFCURVE",
"127 772 CURVE SMOOTH",
"40 772 OFFCURVE",
"40 734 OFFCURVE",
"40 687 CURVE SMOOTH",
"40 640 OFFCURVE",
"40 600 OFFCURVE",
"125 600 CURVE SMOOTH"
);
},
{
closed = 1;
nodes = (
"42 530 OFFCURVE",
"40 493 OFFCURVE",
"40 450 CURVE SMOOTH",
"40 38 LINE SMOOTH",
"40 -41 OFFCURVE",
"-20 -54 OFFCURVE",
"-45 -54 CURVE SMOOTH",
"-92 -54 OFFCURVE",
"-132 -58 OFFCURVE",
"-132 -139 CURVE SMOOTH",
"-132 -226 OFFCURVE",
"-93 -226 OFFCURVE",
"-47 -226 CURVE SMOOTH",
"70 -226 OFFCURVE",
"212 -136 OFFCURVE",
"212 31 CURVE SMOOTH",
"212 443 LINE SMOOTH",
"212 490 OFFCURVE",
"212 530 OFFCURVE",
"127 530 CURVE SMOOTH"
);
}
);
width = 252;
}
);
note = j;
unicode = 006A;
},
{
glyphname = k;
layers = (
{
layerId = "05A6575B-AA27-4212-BC78-A0BDA398BBDE";
name = Bold;
paths = (
{
closed = 1;
nodes = (
"350 264 LINE",
"449 348 LINE SMOOTH",
"469 365 OFFCURVE",
"486 380 OFFCURVE",
"486 402 CURVE SMOOTH",
"486 418 OFFCURVE",
"476 438 OFFCURVE",
"453 467 CURVE SMOOTH",
"429 496 OFFCURVE",
"409 506 OFFCURVE",
"391 506 CURVE SMOOTH",
"371 506 OFFCURVE",
"354 493 OFFCURVE",
"336 479 CURVE",
"324 471 LINE",
"288 441 OFFCURVE",
"252 400 OFFCURVE",
"215 369 CURVE",
"215 686 LINE SMOOTH",
"215 734 OFFCURVE",
"215 775 OFFCURVE",
"128 775 CURVE SMOOTH",
"40 775 OFFCURVE",
"40 735 OFFCURVE",
"40 687 CURVE SMOOTH",
"40 88 LINE SMOOTH",
"40 41 OFFCURVE",
"40 0 OFFCURVE",
"127 0 CURVE SMOOTH",
"215 0 OFFCURVE",
"215 39 OFFCURVE",
"215 87 CURVE SMOOTH",
"215 164 LINE",
"263 125 OFFCURVE",
"311 70 OFFCURVE",
"359 30 CURVE",
"359 30 OFFCURVE",
"366 25 OFFCURVE",
"369 23 CURVE",
"373 20 LINE",
"389 7 OFFCURVE",
"406 -6 OFFCURVE",
"426 -6 CURVE SMOOTH",
"444 -6 OFFCURVE",
"465 5 OFFCURVE",
"490 36 CURVE SMOOTH",
"512 65 OFFCURVE",
"521 85 OFFCURVE",
"521 101 CURVE SMOOTH",
"521 123 OFFCURVE",
"504 137 OFFCURVE",
"483 154 CURVE SMOOTH"
);
}
);
width = 536;
}
);
note = k;
unicode = 006B;
},
{
glyphname = l;
layers = (
{
layerId = "05A6575B-AA27-4212-BC78-A0BDA398BBDE";
name = Bold;
paths = (
{
closed = 1;
nodes = (
"40 211 LINE SMOOTH",
"40 22 OFFCURVE",
"90 0 OFFCURVE",
"253 0 CURVE SMOOTH",
"281 0 OFFCURVE",
"312 0 OFFCURVE",
"312 87 CURVE SMOOTH",
"312 168 OFFCURVE",
"281 168 OFFCURVE",
"254 168 CURVE SMOOTH",
"217 168 OFFCURVE",
"215 176 OFFCURVE",
"215 223 CURVE SMOOTH",
"215 686 LINE SMOOTH",
"215 734 OFFCURVE",
"214 775 OFFCURVE",
"128 775 CURVE SMOOTH",
"40 775 OFFCURVE",
"40 735 OFFCURVE",
"40 687 CURVE SMOOTH"
);
}
);
width = 327;
}
);
note = l;
rightKerningGroup = l;
unicode = 006C;
},
{
glyphname = lslash;
layers = (
{
layerId = "05A6575B-AA27-4212-BC78-A0BDA398BBDE";
name = Bold;
paths = (
{
closed = 1;
nodes = (
"132 424 LINE",
"64 405 LINE SMOOTH",
"41 399 OFFCURVE",
"15 392 OFFCURVE",
"15 357 CURVE SMOOTH",
"15 349 OFFCURVE",
"17 339 OFFCURVE",
"20 327 CURVE",
"32 287 OFFCURVE",
"49 276 OFFCURVE",
"68 276 CURVE SMOOTH",
"78 276 OFFCURVE",
"88 279 OFFCURVE",
"98 282 CURVE SMOOTH",
"132 291 LINE",
"132 211 LINE SMOOTH",
"132 22 OFFCURVE",
"182 0 OFFCURVE",
"345 0 CURVE SMOOTH",
"373 0 OFFCURVE",
"404 0 OFFCURVE",
"404 87 CURVE SMOOTH",
"404 168 OFFCURVE",
"373 168 OFFCURVE",
"346 168 CURVE SMOOTH",
"309 168 OFFCURVE",
"307 176 OFFCURVE",
"307 223 CURVE SMOOTH",
"307 341 LINE",
"405 369 LINE SMOOTH",
"430 376 OFFCURVE",
"453 382 OFFCURVE",
"453 415 CURVE SMOOTH",
"453 424 OFFCURVE",
"451 434 OFFCURVE",
"448 447 CURVE",
"437 487 OFFCURVE",
"420 498 OFFCURVE",
"401 498 CURVE SMOOTH",
"391 498 OFFCURVE",
"381 495 OFFCURVE",
"371 492 CURVE SMOOTH",
"307 474 LINE",
"307 686 LINE SMOOTH",
"307 734 OFFCURVE",
"306 775 OFFCURVE",
"220 775 CURVE SMOOTH",
"132 775 OFFCURVE",
"132 735 OFFCURVE",
"132 687 CURVE SMOOTH"
);
}
);
width = 468;
}
);
note = lslash;
rightKerningGroup = l;
unicode = 0142;
},
{
glyphname = m;
layers = (
{
layerId = "05A6575B-AA27-4212-BC78-A0BDA398BBDE";
name = Bold;
paths = (
{
closed = 1;
nodes = (
"544 528 OFFCURVE",
"490 460 OFFCURVE",
"477 441 CURVE",
"440 506 OFFCURVE",
"382 528 OFFCURVE",
"325 528 CURVE SMOOTH",
"253 528 OFFCURVE",
"212 457 OFFCURVE",
"212 457 CURVE",
"212 497 OFFCURVE",
"199 527 OFFCURVE",
"129 527 CURVE SMOOTH",
"40 527 OFFCURVE",
"40 488 OFFCURVE",
"40 440 CURVE SMOOTH",
"40 88 LINE SMOOTH",
"40 40 OFFCURVE",
"40 0 OFFCURVE",
"127 0 CURVE SMOOTH",
"216 0 OFFCURVE",
"216 39 OFFCURVE",
"216 87 CURVE SMOOTH",
"216 264 LINE SMOOTH",
"216 305 OFFCURVE",
"225 351 OFFCURVE",
"276 351 CURVE SMOOTH",
"329 351 OFFCURVE",
"338 304 OFFCURVE",
"338 264 CURVE SMOOTH",
"338 89 LINE SMOOTH",
"338 42 OFFCURVE",
"338 0 OFFCURVE",
"425 0 CURVE SMOOTH",
"514 0 OFFCURVE",
"514 40 OFFCURVE",
"514 88 CURVE SMOOTH",
"514 263 LINE SMOOTH",
"514 311 OFFCURVE",
"523 351 OFFCURVE",
"574 351 CURVE SMOOTH",
"624 351 OFFCURVE",
"636 306 OFFCURVE",
"636 264 CURVE SMOOTH",
"636 89 LINE SMOOTH",
"636 42 OFFCURVE",
"636 0 OFFCURVE",
"723 0 CURVE SMOOTH",
"811 0 OFFCURVE",
"811 40 OFFCURVE",
"811 88 CURVE SMOOTH",
"811 263 LINE SMOOTH",
"811 470 OFFCURVE",
"714 528 OFFCURVE",
"623 528 CURVE SMOOTH"
);
}
);
width = 851;
}
);
leftKerningGroup = n;
note = m;
rightKerningGroup = n;
unicode = 006D;
},
{
glyphname = n;
layers = (
{
layerId = "05A6575B-AA27-4212-BC78-A0BDA398BBDE";
name = Bold;
paths = (
{
closed = 1;
nodes = (
"257 527 OFFCURVE",
"213 463 OFFCURVE",
"213 463 CURVE",
"213 487 OFFCURVE",
"213 527 OFFCURVE",
"128 527 CURVE SMOOTH",
"41 527 OFFCURVE",
"40 490 OFFCURVE",
"40 443 CURVE SMOOTH",
"40 89 LINE SMOOTH",
"40 41 OFFCURVE",
"40 1 OFFCURVE",
"127 1 CURVE SMOOTH",
"215 1 OFFCURVE",
"215 40 OFFCURVE",
"215 88 CURVE SMOOTH",
"215 265 LINE SMOOTH",
"215 318 OFFCURVE",
"251 352 OFFCURVE",
"303 352 CURVE SMOOTH",
"356 352 OFFCURVE",
"390 321 OFFCURVE",
"390 265 CURVE SMOOTH",
"390 89 LINE SMOOTH",
"390 42 OFFCURVE",
"390 1 OFFCURVE",
"478 1 CURVE SMOOTH",
"566 1 OFFCURVE",
"566 40 OFFCURVE",
"566 88 CURVE SMOOTH",
"566 264 LINE SMOOTH",
"566 409 OFFCURVE",
"468 527 OFFCURVE",
"333 527 CURVE SMOOTH"
);
}
);
width = 606;
}
);
leftKerningGroup = n;
note = n;
rightKerningGroup = n;
unicode = 006E;
},
{
glyphname = ntilde;
layers = (
{
layerId = "05A6575B-AA27-4212-BC78-A0BDA398BBDE";
name = Bold;
paths = (
{
closed = 1;
nodes = (
"257 527 OFFCURVE",
"213 463 OFFCURVE",
"213 463 CURVE",
"213 487 OFFCURVE",
"213 527 OFFCURVE",
"128 527 CURVE SMOOTH",
"41 527 OFFCURVE",
"40 490 OFFCURVE",
"40 443 CURVE SMOOTH",
"40 89 LINE SMOOTH",
"40 41 OFFCURVE",
"40 1 OFFCURVE",
"127 1 CURVE SMOOTH",
"215 1 OFFCURVE",
"215 40 OFFCURVE",
"215 88 CURVE SMOOTH",
"215 265 LINE SMOOTH",
"215 318 OFFCURVE",
"251 352 OFFCURVE",
"303 352 CURVE SMOOTH",
"356 352 OFFCURVE",
"390 321 OFFCURVE",
"390 265 CURVE SMOOTH",
"390 89 LINE SMOOTH",
"390 42 OFFCURVE",
"390 1 OFFCURVE",
"478 1 CURVE SMOOTH",
"566 1 OFFCURVE",
"566 40 OFFCURVE",
"566 88 CURVE SMOOTH",
"566 264 LINE SMOOTH",
"566 409 OFFCURVE",
"468 527 OFFCURVE",
"333 527 CURVE SMOOTH"
);
},
{
closed = 1;
nodes = (
"456 768 OFFCURVE",
"444 773 OFFCURVE",
"434 773 CURVE SMOOTH",
"413 773 OFFCURVE",
"400 755 OFFCURVE",
"389 735 CURVE",
"389 735 OFFCURVE",
"382 723 OFFCURVE",
"364 723 CURVE SMOOTH",
"338 723 OFFCURVE",
"320 773 OFFCURVE",
"252 773 CURVE SMOOTH",
"158 773 OFFCURVE",
"120 694 OFFCURVE",
"120 694 CURVE",
"112 681 OFFCURVE",
"106 670 OFFCURVE",
"106 659 CURVE SMOOTH",
"106 646 OFFCURVE",
"114 633 OFFCURVE",
"138 612 CURVE SMOOTH",
"154 598 OFFCURVE",
"166 592 OFFCURVE",
"177 592 CURVE SMOOTH",
"198 592 OFFCURVE",
"212 613 OFFCURVE",
"223 632 CURVE",
"224 632 OFFCURVE",
"231 644 OFFCURVE",
"247 644 CURVE SMOOTH",
"275 644 OFFCURVE",
"293 592 OFFCURVE",
"362 592 CURVE SMOOTH",
"455 592 OFFCURVE",
"492 673 OFFCURVE",
"492 673 CURVE",
"500 686 OFFCURVE",
"506 698 OFFCURVE",
"506 710 CURVE SMOOTH",
"506 724 OFFCURVE",
"497 739 OFFCURVE",
"470 758 CURVE SMOOTH"
);
}
);
width = 606;
}
);
leftKerningGroup = n;
note = ntilde;
rightKerningGroup = n;
unicode = 00F1;
},
{
glyphname = o;
layers = (
{
layerId = "05A6575B-AA27-4212-BC78-A0BDA398BBDE";
name = Bold;
paths = (
{
closed = 1;
nodes = (
"166 539 OFFCURVE",
"25 430 OFFCURVE",
"25 263 CURVE SMOOTH",
"25 96 OFFCURVE",
"171 -9 OFFCURVE",
"301 -9 CURVE SMOOTH",
"427 -9 OFFCURVE",
"575 89 OFFCURVE",
"575 264 CURVE SMOOTH",
"575 430 OFFCURVE",
"439 539 OFFCURVE",
"299 539 CURVE SMOOTH"
);
},
{
closed = 1;
nodes = (
"265 167 OFFCURVE",
"202 192 OFFCURVE",
"202 265 CURVE SMOOTH",
"202 336 OFFCURVE",
"262 363 OFFCURVE",
"298 363 CURVE SMOOTH",
"340 363 OFFCURVE",
"398 338 OFFCURVE",
"398 266 CURVE SMOOTH",
"398 192 OFFCURVE",
"333 167 OFFCURVE",
"299 167 CURVE SMOOTH"
);
}
);
width = 600;
}
);
leftKerningGroup = o;
note = o;
rightKerningGroup = o;
unicode = 006F;
},
{
glyphname = oacute;
layers = (
{
layerId = "05A6575B-AA27-4212-BC78-A0BDA398BBDE";
name = Bold;
paths = (
{
closed = 1;
nodes = (
"166 539 OFFCURVE",
"25 430 OFFCURVE",
"25 263 CURVE SMOOTH",
"25 96 OFFCURVE",
"171 -9 OFFCURVE",
"301 -9 CURVE SMOOTH",
"427 -9 OFFCURVE",
"575 89 OFFCURVE",
"575 264 CURVE SMOOTH",
"575 430 OFFCURVE",
"439 539 OFFCURVE",
"299 539 CURVE SMOOTH"
);
},
{
closed = 1;
nodes = (
"427 628 LINE SMOOTH",
"450 635 OFFCURVE",
"470 642 OFFCURVE",
"470 673 CURVE SMOOTH",
"470 684 OFFCURVE",
"468 697 OFFCURVE",
"462 715 CURVE SMOOTH",
"448 762 OFFCURVE",
"432 774 OFFCURVE",
"414 774 CURVE SMOOTH",
"405 774 OFFCURVE",
"395 770 OFFCURVE",
"384 767 CURVE SMOOTH",
"219 716 LINE SMOOTH",
"196 709 OFFCURVE",
"176 702 OFFCURVE",
"176 671 CURVE SMOOTH",
"176 660 OFFCURVE",
"178 646 OFFCURVE",
"184 628 CURVE SMOOTH",
"199 581 OFFCURVE",
"215 569 OFFCURVE",
"233 569 CURVE SMOOTH",
"242 569 OFFCURVE",
"250 572 OFFCURVE",
"260 575 CURVE",
"261 575 OFFCURVE",
"262 576 OFFCURVE",
"263 576 CURVE"
);
},
{
closed = 1;
nodes = (
"265 167 OFFCURVE",
"202 192 OFFCURVE",
"202 265 CURVE SMOOTH",
"202 336 OFFCURVE",
"262 363 OFFCURVE",
"298 363 CURVE SMOOTH",
"340 363 OFFCURVE",
"398 338 OFFCURVE",
"398 266 CURVE SMOOTH",
"398 192 OFFCURVE",
"333 167 OFFCURVE",
"299 167 CURVE SMOOTH"
);
}
);
width = 600;
}
);
leftKerningGroup = o;
note = oacute;
rightKerningGroup = o;
unicode = 00F3;
},
{
glyphname = ocircumflex;
layers = (
{
layerId = "05A6575B-AA27-4212-BC78-A0BDA398BBDE";
name = Bold;
paths = (
{
closed = 1;
nodes = (
"166 539 OFFCURVE",
"25 430 OFFCURVE",
"25 263 CURVE SMOOTH",
"25 96 OFFCURVE",
"171 -9 OFFCURVE",
"301 -9 CURVE SMOOTH",
"427 -9 OFFCURVE",
"575 89 OFFCURVE",
"575 264 CURVE SMOOTH",
"575 430 OFFCURVE",
"439 539 OFFCURVE",
"299 539 CURVE SMOOTH"
);
},
{
closed = 1;
nodes = (
"265 167 OFFCURVE",
"202 192 OFFCURVE",
"202 265 CURVE SMOOTH",
"202 336 OFFCURVE",
"262 363 OFFCURVE",
"298 363 CURVE SMOOTH",
"340 363 OFFCURVE",
"398 338 OFFCURVE",
"398 266 CURVE SMOOTH",
"398 192 OFFCURVE",
"333 167 OFFCURVE",
"299 167 CURVE SMOOTH"
);
},
{
closed = 1;
nodes = (
"420 739 OFFCURVE",
"327 769 OFFCURVE",
"327 769 CURVE",
"322 770 OFFCURVE",
"312 774 OFFCURVE",
"304 774 CURVE SMOOTH",
"295 774 OFFCURVE",
"285 770 OFFCURVE",
"280 769 CURVE",
"280 769 OFFCURVE",
"188 739 OFFCURVE",
"141 723 CURVE SMOOTH",
"123 717 OFFCURVE",
"103 705 OFFCURVE",
"103 678 CURVE SMOOTH",
"103 667 OFFCURVE",
"107 653 OFFCURVE",
"115 636 CURVE SMOOTH",
"134 595 OFFCURVE",
"157 585 OFFCURVE",
"177 585 CURVE SMOOTH",
"188 585 OFFCURVE",
"199 588 OFFCURVE",
"208 591 CURVE",
"209 591 OFFCURVE",
"210 592 OFFCURVE",
"211 592 CURVE",
"304 632 LINE",
"400 590 LINE",
"410 587 OFFCURVE",
"421 583 OFFCURVE",
"432 583 CURVE SMOOTH",
"451 583 OFFCURVE",
"471 594 OFFCURVE",
"492 636 CURVE SMOOTH",
"500 651 OFFCURVE",
"503 665 OFFCURVE",
"503 676 CURVE SMOOTH",
"503 703 OFFCURVE",
"484 717 OFFCURVE",
"466 723 CURVE SMOOTH"
);
}
);
width = 600;
}
);
leftKerningGroup = o;
note = ocircumflex;
rightKerningGroup = o;
unicode = 00F4;
},
{
glyphname = odieresis;
layers = (
{
layerId = "05A6575B-AA27-4212-BC78-A0BDA398BBDE";
name = Bold;
paths = (
{
closed = 1;
nodes = (
"166 539 OFFCURVE",
"25 430 OFFCURVE",
"25 263 CURVE SMOOTH",
"25 96 OFFCURVE",
"171 -9 OFFCURVE",
"301 -9 CURVE SMOOTH",
"427 -9 OFFCURVE",
"575 89 OFFCURVE",
"575 264 CURVE SMOOTH",
"575 430 OFFCURVE",
"439 539 OFFCURVE",
"299 539 CURVE SMOOTH"
);
},
{
closed = 1;
nodes = (
"265 167 OFFCURVE",
"202 192 OFFCURVE",
"202 265 CURVE SMOOTH",
"202 336 OFFCURVE",
"262 363 OFFCURVE",
"298 363 CURVE SMOOTH",
"340 363 OFFCURVE",
"398 338 OFFCURVE",
"398 266 CURVE SMOOTH",
"398 192 OFFCURVE",
"333 167 OFFCURVE",
"299 167 CURVE SMOOTH"
);
},
{
closed = 1;
nodes = (
"250 595 OFFCURVE",
"250 635 OFFCURVE",
"250 683 CURVE SMOOTH",
"250 732 OFFCURVE",
"250 773 OFFCURVE",
"161 773 CURVE SMOOTH",
"71 773 OFFCURVE",
"72 734 OFFCURVE",
"71 685 CURVE SMOOTH",
"71 636 OFFCURVE",
"71 595 OFFCURVE",
"160 595 CURVE SMOOTH"
);
},
{
closed = 1;
nodes = (
"520 595 OFFCURVE",
"520 635 OFFCURVE",
"520 683 CURVE SMOOTH",
"520 732 OFFCURVE",
"520 773 OFFCURVE",
"431 773 CURVE SMOOTH",
"341 773 OFFCURVE",
"341 734 OFFCURVE",
"341 685 CURVE SMOOTH",
"341 636 OFFCURVE",
"341 595 OFFCURVE",
"430 595 CURVE SMOOTH"
);
}
);
width = 600;
}
);
leftKerningGroup = o;
note = odieresis;
rightKerningGroup = o;
unicode = 00F6;
},
{
glyphname = ograve;
layers = (
{
layerId = "05A6575B-AA27-4212-BC78-A0BDA398BBDE";
name = Bold;
paths = (
{
closed = 1;
nodes = (
"166 539 OFFCURVE",
"25 430 OFFCURVE",
"25 263 CURVE SMOOTH",
"25 96 OFFCURVE",
"171 -9 OFFCURVE",
"301 -9 CURVE SMOOTH",
"427 -9 OFFCURVE",
"575 89 OFFCURVE",
"575 264 CURVE SMOOTH",
"575 430 OFFCURVE",
"439 539 OFFCURVE",
"299 539 CURVE SMOOTH"
);
},
{
closed = 1;
nodes = (
"359 576 LINE",
"360 576 OFFCURVE",
"361 575 OFFCURVE",
"362 575 CURVE",
"372 572 OFFCURVE",
"380 569 OFFCURVE",
"389 569 CURVE SMOOTH",
"407 569 OFFCURVE",
"423 581 OFFCURVE",
"438 628 CURVE SMOOTH",
"444 646 OFFCURVE",
"446 659 OFFCURVE",
"446 670 CURVE SMOOTH",
"446 702 OFFCURVE",
"425 709 OFFCURVE",
"403 716 CURVE SMOOTH",
"238 767 LINE SMOOTH",
"227 770 OFFCURVE",
"217 774 OFFCURVE",
"208 774 CURVE SMOOTH",
"190 774 OFFCURVE",
"174 762 OFFCURVE",
"159 715 CURVE SMOOTH",
"153 697 OFFCURVE",
"151 684 OFFCURVE",
"151 673 CURVE SMOOTH",
"151 642 OFFCURVE",
"171 635 OFFCURVE",
"194 628 CURVE SMOOTH"
);
},
{
closed = 1;
nodes = (
"265 167 OFFCURVE",
"202 192 OFFCURVE",
"202 265 CURVE SMOOTH",
"202 336 OFFCURVE",
"262 363 OFFCURVE",
"298 363 CURVE SMOOTH",
"340 363 OFFCURVE",
"398 338 OFFCURVE",
"398 266 CURVE SMOOTH",
"398 192 OFFCURVE",
"333 167 OFFCURVE",
"299 167 CURVE SMOOTH"
);
}
);
width = 600;
}
);
leftKerningGroup = o;
note = ograve;
rightKerningGroup = o;
unicode = 00F2;
},
{
glyphname = oslash;
layers = (
{
layerId = "05A6575B-AA27-4212-BC78-A0BDA398BBDE";
name = Bold;
paths = (
{
closed = 1;
nodes = (
"534 560 LINE",
"542 581 OFFCURVE",
"548 597 OFFCURVE",
"548 610 CURVE SMOOTH",
"548 633 OFFCURVE",
"533 648 OFFCURVE",
"494 667 CURVE SMOOTH",
"470 678 OFFCURVE",
"453 683 OFFCURVE",
"439 683 CURVE SMOOTH",
"409 683 OFFCURVE",
"398 660 OFFCURVE",
"386 635 CURVE SMOOTH",
"338 535 LINE",
"325 537 OFFCURVE",
"312 538 OFFCURVE",
"299 538 CURVE SMOOTH",
"166 538 OFFCURVE",
"25 429 OFFCURVE",
"25 262 CURVE SMOOTH",
"25 179 OFFCURVE",
"61 111 OFFCURVE",
"113 64 CURVE",
"64 -38 LINE SMOOTH",
"54 -58 OFFCURVE",
"52 -75 OFFCURVE",
"52 -87 CURVE SMOOTH",
"52 -107 OFFCURVE",
"65 -120 OFFCURVE",
"106 -139 CURVE SMOOTH",
"130 -150 OFFCURVE",
"147 -155 OFFCURVE",
"161 -155 CURVE SMOOTH",
"191 -155 OFFCURVE",
"201 -133 OFFCURVE",
"213 -107 CURVE SMOOTH",
"261 -7 LINE",
"274 -9 OFFCURVE",
"288 -10 OFFCURVE",
"301 -10 CURVE SMOOTH",
"427 -10 OFFCURVE",
"575 88 OFFCURVE",
"575 263 CURVE SMOOTH",
"575 347 OFFCURVE",
"540 416 OFFCURVE",
"488 464 CURVE"
);
},
{
closed = 1;
nodes = (
"265 166 OFFCURVE",
"202 191 OFFCURVE",
"202 264 CURVE SMOOTH",
"202 335 OFFCURVE",
"262 362 OFFCURVE",
"298 362 CURVE SMOOTH",
"340 362 OFFCURVE",
"398 337 OFFCURVE",
"398 265 CURVE SMOOTH",
"398 191 OFFCURVE",
"333 166 OFFCURVE",
"299 166 CURVE SMOOTH"
);
}
);
width = 600;
}
);
leftKerningGroup = o;
note = oslash;
rightKerningGroup = o;
unicode = 00F8;
},
{
glyphname = otilde;
layers = (
{
layerId = "05A6575B-AA27-4212-BC78-A0BDA398BBDE";
name = Bold;
paths = (
{
closed = 1;
nodes = (
"166 539 OFFCURVE",
"25 430 OFFCURVE",
"25 263 CURVE SMOOTH",
"25 96 OFFCURVE",
"171 -9 OFFCURVE",
"301 -9 CURVE SMOOTH",
"427 -9 OFFCURVE",
"575 89 OFFCURVE",
"575 264 CURVE SMOOTH",
"575 430 OFFCURVE",
"439 539 OFFCURVE",
"299 539 CURVE SMOOTH"
);
},
{
closed = 1;
nodes = (
"265 167 OFFCURVE",
"202 192 OFFCURVE",
"202 265 CURVE SMOOTH",
"202 336 OFFCURVE",
"262 363 OFFCURVE",
"298 363 CURVE SMOOTH",
"340 363 OFFCURVE",
"398 338 OFFCURVE",
"398 266 CURVE SMOOTH",
"398 192 OFFCURVE",
"333 167 OFFCURVE",
"299 167 CURVE SMOOTH"
);
},
{
closed = 1;
nodes = (
"452 768 OFFCURVE",
"440 773 OFFCURVE",
"430 773 CURVE SMOOTH",
"409 773 OFFCURVE",
"396 755 OFFCURVE",
"385 735 CURVE",
"385 735 OFFCURVE",
"378 723 OFFCURVE",
"360 723 CURVE SMOOTH",
"334 723 OFFCURVE",
"316 773 OFFCURVE",
"248 773 CURVE SMOOTH",
"154 773 OFFCURVE",
"116 694 OFFCURVE",
"116 694 CURVE",
"108 681 OFFCURVE",
"102 670 OFFCURVE",
"102 659 CURVE SMOOTH",
"102 646 OFFCURVE",
"110 633 OFFCURVE",
"134 612 CURVE SMOOTH",
"150 598 OFFCURVE",
"162 592 OFFCURVE",
"173 592 CURVE SMOOTH",
"194 592 OFFCURVE",
"208 613 OFFCURVE",
"219 632 CURVE",
"220 632 OFFCURVE",
"227 644 OFFCURVE",
"243 644 CURVE SMOOTH",
"271 644 OFFCURVE",
"289 592 OFFCURVE",
"358 592 CURVE SMOOTH",
"451 592 OFFCURVE",
"488 673 OFFCURVE",
"488 673 CURVE",
"496 686 OFFCURVE",
"502 698 OFFCURVE",
"502 710 CURVE SMOOTH",
"502 724 OFFCURVE",
"493 739 OFFCURVE",
"466 758 CURVE SMOOTH"
);
}
);
width = 600;
}
);
leftKerningGroup = o;
note = otilde;
rightKerningGroup = o;
unicode = 00F5;
},
{
glyphname = oe;
layers = (
{
layerId = "05A6575B-AA27-4212-BC78-A0BDA398BBDE";
name = Bold;
paths = (
{
closed = 1;
nodes = (
"786 159 OFFCURVE",
"750 143 OFFCURVE",
"691 143 CURVE SMOOTH",
"644 143 OFFCURVE",
"589 170 OFFCURVE",
"589 209 CURVE",
"821 209 LINE SMOOTH",
"860 209 OFFCURVE",
"919 234 OFFCURVE",
"919 331 CURVE SMOOTH",
"919 414 OFFCURVE",
"847 532 OFFCURVE",
"683 532 CURVE SMOOTH",
"606 532 OFFCURVE",
"537 508 OFFCURVE",
"487 463 CURVE",
"436 510 OFFCURVE",
"367 537 OFFCURVE",
"298 537 CURVE SMOOTH",
"165 537 OFFCURVE",
"24 428 OFFCURVE",
"24 261 CURVE SMOOTH",
"24 94 OFFCURVE",
"170 -11 OFFCURVE",
"300 -11 CURVE SMOOTH",
"364 -11 OFFCURVE",
"433 14 OFFCURVE",
"486 62 CURVE",
"531 21 OFFCURVE",
"595 -7 OFFCURVE",
"683 -7 CURVE SMOOTH",
"744 -7 OFFCURVE",
"794 5 OFFCURVE",
"830 18 CURVE",
"831 19 OFFCURVE",
"833 19 OFFCURVE",
"835 20 CURVE",
"857 28 OFFCURVE",
"893 41 OFFCURVE",
"893 80 CURVE SMOOTH",
"893 92 OFFCURVE",
"889 108 OFFCURVE",
"880 126 CURVE SMOOTH",
"863 159 OFFCURVE",
"844 169 OFFCURVE",
"825 169 CURVE SMOOTH",
"812 169 OFFCURVE",
"799 164 OFFCURVE",
"786 159 CURVE"
);
},
{
closed = 1;
nodes = (
"264 165 OFFCURVE",
"201 190 OFFCURVE",
"201 263 CURVE SMOOTH",
"201 334 OFFCURVE",
"261 361 OFFCURVE",
"297 361 CURVE SMOOTH",
"339 361 OFFCURVE",
"397 336 OFFCURVE",
"397 264 CURVE SMOOTH",
"397 190 OFFCURVE",
"332 165 OFFCURVE",
"298 165 CURVE SMOOTH"
);
},
{
closed = 1;
nodes = (
"725 380 OFFCURVE",
"748 358 OFFCURVE",
"748 329 CURVE SMOOTH",
"748 300 OFFCURVE",
"721 298 OFFCURVE",
"713 298 CURVE SMOOTH",
"587 298 LINE",
"587 339 OFFCURVE",
"641 380 OFFCURVE",
"681 380 CURVE SMOOTH"
);
}
);
width = 944;
}
);
leftKerningGroup = o;
note = oe;
rightKerningGroup = e;
unicode = 0153;
},
{
glyphname = p;
layers = (
{
layerId = "05A6575B-AA27-4212-BC78-A0BDA398BBDE";
name = Bold;
paths = (
{
closed = 1;
nodes = (
"40 -143 LINE SMOOTH",
"40 -190 OFFCURVE",
"40 -228 OFFCURVE",
"126 -228 CURVE SMOOTH",
"211 -228 OFFCURVE",
"211 -189 OFFCURVE",
"211 -142 CURVE SMOOTH",
"211 60 LINE",
"223 45 OFFCURVE",
"257 14 OFFCURVE",
"324 14 CURVE SMOOTH",
"438 14 OFFCURVE",
"557 130 OFFCURVE",
"557 272 CURVE SMOOTH",
"557 408 OFFCURVE",
"438 526 OFFCURVE",
"324 526 CURVE SMOOTH",
"256 526 OFFCURVE",
"221 489 OFFCURVE",
"210 474 CURVE",
"206 505 OFFCURVE",
"190 527 OFFCURVE",
"125 527 CURVE SMOOTH",
"40 527 OFFCURVE",
"40 487 OFFCURVE",
"40 441 CURVE SMOOTH"
);
},
{
closed = 1;
nodes = (
"215 306 OFFCURVE",
"243 355 OFFCURVE",
"300 355 CURVE SMOOTH",
"354 355 OFFCURVE",
"386 309 OFFCURVE",
"386 269 CURVE SMOOTH",
"386 227 OFFCURVE",
"349 184 OFFCURVE",
"298 184 CURVE SMOOTH",
"248 184 OFFCURVE",
"215 229 OFFCURVE",
"215 269 CURVE SMOOTH"
);
}
);
width = 582;
}
);
note = p;
rightKerningGroup = p;
unicode = 0070;
},
{
glyphname = thorn;
layers = (
{
layerId = "05A6575B-AA27-4212-BC78-A0BDA398BBDE";
name = Bold;
paths = (
{
closed = 1;
nodes = (
"253 526 OFFCURVE",
"217 494 OFFCURVE",
"203 477 CURVE",
"203 700 LINE SMOOTH",
"203 747 OFFCURVE",
"202 787 OFFCURVE",
"122 787 CURVE SMOOTH",
"40 787 OFFCURVE",
"40 748 OFFCURVE",
"40 701 CURVE SMOOTH",
"40 -139 LINE SMOOTH",
"40 -186 OFFCURVE",
"40 -226 OFFCURVE",
"120 -226 CURVE SMOOTH",
"202 -226 OFFCURVE",
"202 -188 OFFCURVE",
"202 -141 CURVE SMOOTH",
"202 48 LINE",
"215 32 OFFCURVE",
"249 2 OFFCURVE",
"317 2 CURVE SMOOTH",
"434 2 OFFCURVE",
"555 120 OFFCURVE",
"555 266 CURVE SMOOTH",
"555 405 OFFCURVE",
"433 526 OFFCURVE",
"317 526 CURVE SMOOTH"
);
},
{
closed = 1;
nodes = (
"239 176 OFFCURVE",
"205 222 OFFCURVE",
"205 263 CURVE SMOOTH",
"205 301 OFFCURVE",
"234 351 OFFCURVE",
"292 351 CURVE SMOOTH",
"348 351 OFFCURVE",
"380 304 OFFCURVE",
"380 263 CURVE SMOOTH",
"380 220 OFFCURVE",
"342 176 OFFCURVE",
"291 176 CURVE SMOOTH"
);
}
);
width = 580;
}
);
note = thorn;
rightKerningGroup = p;
unicode = 00FE;
},
{
glyphname = q;
layers = (
{
layerId = "05A6575B-AA27-4212-BC78-A0BDA398BBDE";
name = Bold;
paths = (
{
closed = 1;
nodes = (
"392 527 OFFCURVE",
"376 505 OFFCURVE",
"372 474 CURVE",
"361 489 OFFCURVE",
"325 526 OFFCURVE",
"258 526 CURVE SMOOTH",
"144 526 OFFCURVE",
"25 408 OFFCURVE",
"25 272 CURVE SMOOTH",
"25 130 OFFCURVE",
"143 14 OFFCURVE",
"258 14 CURVE SMOOTH",
"325 14 OFFCURVE",
"358 45 OFFCURVE",
"371 60 CURVE",
"371 -142 LINE SMOOTH",
"371 -189 OFFCURVE",
"371 -228 OFFCURVE",
"456 -228 CURVE SMOOTH",
"542 -228 OFFCURVE",
"542 -190 OFFCURVE",
"542 -143 CURVE SMOOTH",
"542 441 LINE SMOOTH",
"542 487 OFFCURVE",
"542 527 OFFCURVE",
"457 527 CURVE SMOOTH"
);
},
{
closed = 1;
nodes = (
"233 184 OFFCURVE",
"196 227 OFFCURVE",
"196 269 CURVE SMOOTH",
"196 309 OFFCURVE",
"228 355 OFFCURVE",
"282 355 CURVE SMOOTH",
"338 355 OFFCURVE",
"367 306 OFFCURVE",
"367 269 CURVE SMOOTH",
"367 229 OFFCURVE",
"334 184 OFFCURVE",
"283 184 CURVE SMOOTH"
);
}
);
width = 582;
}
);
note = q;
rightKerningGroup = d;
unicode = 0071;
},
{
glyphname = r;
layers = (
{
layerId = "05A6575B-AA27-4212-BC78-A0BDA398BBDE";
name = Bold;
paths = (
{
closed = 1;
nodes = (
"442 524 OFFCURVE",
"363 532 OFFCURVE",
"332 532 CURVE SMOOTH",
"260 532 OFFCURVE",
"214 471 OFFCURVE",
"214 471 CURVE",
"214 487 OFFCURVE",
"213 527 OFFCURVE",
"128 527 CURVE SMOOTH",
"40 527 OFFCURVE",
"40 488 OFFCURVE",
"40 440 CURVE SMOOTH",
"40 89 LINE SMOOTH",
"40 41 OFFCURVE",
"40 0 OFFCURVE",
"127 0 CURVE SMOOTH",
"216 0 OFFCURVE",
"216 39 OFFCURVE",
"216 87 CURVE SMOOTH",
"216 297 LINE SMOOTH",
"216 333 OFFCURVE",
"250 362 OFFCURVE",
"300 362 CURVE SMOOTH",
"334 362 OFFCURVE",
"333 346 OFFCURVE",
"368 346 CURVE SMOOTH",
"421 346 OFFCURVE",
"442 417 OFFCURVE",
"442 465 CURVE SMOOTH"
);
}
);
width = 457;
}
);
note = r;
rightKerningGroup = d;
unicode = 0072;
},
{
glyphname = s;
layers = (
{
layerId = "05A6575B-AA27-4212-BC78-A0BDA398BBDE";
name = Bold;
paths = (
{
closed = 1;
nodes = (
"344 -9 OFFCURVE",
"464 17 OFFCURVE",
"464 167 CURVE SMOOTH",
"464 380 OFFCURVE",
"200 305 OFFCURVE",
"200 377 CURVE SMOOTH",
"200 390 OFFCURVE",
"210 399 OFFCURVE",
"259 399 CURVE SMOOTH",
"299 399 OFFCURVE",
"325 386 OFFCURVE",
"340 379 CURVE SMOOTH",
"351 374 OFFCURVE",
"362 369 OFFCURVE",
"374 369 CURVE SMOOTH",
"387 369 OFFCURVE",
"402 377 OFFCURVE",
"420 405 CURVE SMOOTH",
"435 429 OFFCURVE",
"441 446 OFFCURVE",
"441 459 CURVE SMOOTH",
"441 478 OFFCURVE",
"424 495 OFFCURVE",
"406 503 CURVE SMOOTH",
"375 517 OFFCURVE",
"336 537 OFFCURVE",
"260 537 CURVE SMOOTH",
"116 537 OFFCURVE",
"43 488 OFFCURVE",
"43 379 CURVE SMOOTH",
"43 153 OFFCURVE",
"302 203 OFFCURVE",
"302 156 CURVE SMOOTH",
"302 135 OFFCURVE",
"274 132 OFFCURVE",
"241 132 CURVE SMOOTH",
"212 132 OFFCURVE",
"179 148 OFFCURVE",
"158 160 CURVE SMOOTH",
"143 169 OFFCURVE",
"119 181 OFFCURVE",
"97 181 CURVE SMOOTH",
"84 181 OFFCURVE",
"71 176 OFFCURVE",
"63 164 CURVE SMOOTH",
"35 125 OFFCURVE",
"25 100 OFFCURVE",
"25 82 CURVE SMOOTH",
"25 67 OFFCURVE",
"31 55 OFFCURVE",
"44 47 CURVE SMOOTH",
"87 20 OFFCURVE",
"161 -9 OFFCURVE",
"234 -9 CURVE SMOOTH"
);
}
);
width = 489;
}
);
leftKerningGroup = s;
note = s;
rightKerningGroup = s;
unicode = 0073;
},
{
glyphname = scaron;
layers = (
{
layerId = "05A6575B-AA27-4212-BC78-A0BDA398BBDE";
name = Bold;
paths = (
{
closed = 1;
nodes = (
"118 619 OFFCURVE",
"211 588 OFFCURVE",
"211 588 CURVE",
"216 587 OFFCURVE",
"225 583 OFFCURVE",
"234 583 CURVE SMOOTH",
"242 583 OFFCURVE",
"252 587 OFFCURVE",
"257 588 CURVE",
"257 588 OFFCURVE",
"350 619 OFFCURVE",
"396 634 CURVE SMOOTH",
"422 642 OFFCURVE",
"451 663 OFFCURVE",
"423 721 CURVE SMOOTH",
"389 791 OFFCURVE",
"347 772 OFFCURVE",
"320 763 CURVE",
"234 725 LINE",
"137 767 LINE",
"111 776 OFFCURVE",
"80 789 OFFCURVE",
"45 721 CURVE SMOOTH",
"19 669 OFFCURVE",
"45 642 OFFCURVE",
"72 634 CURVE SMOOTH"
);
},
{
closed = 1;
nodes = (
"344 -9 OFFCURVE",
"464 17 OFFCURVE",
"464 167 CURVE SMOOTH",
"464 380 OFFCURVE",
"200 305 OFFCURVE",
"200 377 CURVE SMOOTH",
"200 390 OFFCURVE",
"210 399 OFFCURVE",
"259 399 CURVE SMOOTH",
"299 399 OFFCURVE",
"325 386 OFFCURVE",
"340 379 CURVE SMOOTH",
"351 374 OFFCURVE",
"362 369 OFFCURVE",
"374 369 CURVE SMOOTH",
"387 369 OFFCURVE",
"402 377 OFFCURVE",
"420 405 CURVE SMOOTH",
"435 429 OFFCURVE",
"441 446 OFFCURVE",
"441 459 CURVE SMOOTH",
"441 478 OFFCURVE",
"424 495 OFFCURVE",
"406 503 CURVE SMOOTH",
"375 517 OFFCURVE",
"336 537 OFFCURVE",
"260 537 CURVE SMOOTH",
"116 537 OFFCURVE",
"43 488 OFFCURVE",
"43 379 CURVE SMOOTH",
"43 153 OFFCURVE",
"302 203 OFFCURVE",
"302 156 CURVE SMOOTH",
"302 135 OFFCURVE",
"274 132 OFFCURVE",
"241 132 CURVE SMOOTH",
"212 132 OFFCURVE",
"179 148 OFFCURVE",
"158 160 CURVE SMOOTH",
"143 169 OFFCURVE",
"119 181 OFFCURVE",
"97 181 CURVE SMOOTH",
"84 181 OFFCURVE",
"71 176 OFFCURVE",
"63 164 CURVE SMOOTH",
"35 125 OFFCURVE",
"25 100 OFFCURVE",
"25 82 CURVE SMOOTH",
"25 67 OFFCURVE",
"31 55 OFFCURVE",
"44 47 CURVE SMOOTH",
"87 20 OFFCURVE",
"161 -9 OFFCURVE",
"234 -9 CURVE SMOOTH"
);
}
);
width = 489;
}
);
leftKerningGroup = s;
note = scaron;
rightKerningGroup = s;
unicode = 0161;
},
{
glyphname = germandbls;
layers = (
{
layerId = "05A6575B-AA27-4212-BC78-A0BDA398BBDE";
name = Bold;
paths = (
{
closed = 1;
nodes = (
"434 460 OFFCURVE",
"519 491 OFFCURVE",
"519 614 CURVE SMOOTH",
"519 726 OFFCURVE",
"406 752 OFFCURVE",
"301 752 CURVE SMOOTH",
"246 752 OFFCURVE",
"188 743 OFFCURVE",
"138 720 CURVE SMOOTH",
"58 683 OFFCURVE",
"40 626 OFFCURVE",
"40 518 CURVE SMOOTH",
"40 55 LINE SMOOTH",
"40 8 OFFCURVE",
"40 -32 OFFCURVE",
"126 -32 CURVE SMOOTH",
"213 -32 OFFCURVE",
"213 6 OFFCURVE",
"213 53 CURVE SMOOTH",
"213 527 LINE SMOOTH",
"213 585 OFFCURVE",
"251 605 OFFCURVE",
"303 605 CURVE SMOOTH",
"332 605 OFFCURVE",
"351 600 OFFCURVE",
"351 580 CURVE SMOOTH",
"351 528 OFFCURVE",
"278 514 OFFCURVE",
"278 410 CURVE SMOOTH",
"278 282 OFFCURVE",
"444 251 OFFCURVE",
"444 204 CURVE SMOOTH",
"444 162 OFFCURVE",
"430 149 OFFCURVE",
"410 149 CURVE SMOOTH",
"394 149 OFFCURVE",
"374 158 OFFCURVE",
"354 166 CURVE SMOOTH",
"339 172 OFFCURVE",
"326 176 OFFCURVE",
"316 176 CURVE SMOOTH",
"292 176 OFFCURVE",
"279 157 OFFCURVE",
"267 109 CURVE SMOOTH",
"263 94 OFFCURVE",
"262 81 OFFCURVE",
"262 70 CURVE SMOOTH",
"262 22 OFFCURVE",
"295 12 OFFCURVE",
"339 5 CURVE SMOOTH",
"370 0 OFFCURVE",
"399 -3 OFFCURVE",
"425 -3 CURVE SMOOTH",
"538 -3 OFFCURVE",
"608 46 OFFCURVE",
"608 176 CURVE SMOOTH",
"608 351 OFFCURVE",
"434 355 OFFCURVE",
"434 426 CURVE SMOOTH"
);
}
);
width = 633;
}
);
note = germandbls;
rightKerningGroup = d;
unicode = 00DF;
},
{
glyphname = t;
layers = (
{
layerId = "05A6575B-AA27-4212-BC78-A0BDA398BBDE";
name = Bold;
paths = (
{
closed = 1;
nodes = (
"346 350 LINE",
"393 350 OFFCURVE",
"434 350 OFFCURVE",
"434 437 CURVE SMOOTH",
"434 525 OFFCURVE",
"395 525 OFFCURVE",
"347 525 CURVE SMOOTH",
"325 525 OFFCURVE",
"281 521 OFFCURVE",
"281 521 CURVE",
"281 619 LINE SMOOTH",
"281 667 OFFCURVE",
"280 707 OFFCURVE",
"195 707 CURVE SMOOTH",
"107 707 OFFCURVE",
"107 672 OFFCURVE",
"107 624 CURVE SMOOTH",
"107 521 LINE",
"107 521 OFFCURVE",
"87 525 OFFCURVE",
"74 525 CURVE SMOOTH",
"47 525 OFFCURVE",
"15 519 OFFCURVE",
"15 439 CURVE SMOOTH",
"15 360 OFFCURVE",
"41 351 OFFCURVE",
"71 351 CURVE SMOOTH",
"88 351 OFFCURVE",
"107 354 OFFCURVE",
"107 354 CURVE",
"107 206 LINE SMOOTH",
"107 50 OFFCURVE",
"189 0 OFFCURVE",
"319 0 CURVE SMOOTH",
"364 0 OFFCURVE",
"407 0 OFFCURVE",
"407 87 CURVE SMOOTH",
"407 163 OFFCURVE",
"376 165 OFFCURVE",
"320 165 CURVE SMOOTH",
"289 165 OFFCURVE",
"281 181 OFFCURVE",
"281 216 CURVE SMOOTH",
"281 354 LINE"
);
}
);
width = 449;
}
);
leftKerningGroup = t;
note = t;
rightKerningGroup = t;
unicode = 0074;
},
{
glyphname = u;
layers = (
{
layerId = "05A6575B-AA27-4212-BC78-A0BDA398BBDE";
name = Bold;
paths = (
{
closed = 1;
nodes = (
"349 2 OFFCURVE",
"393 66 OFFCURVE",
"393 66 CURVE",
"393 42 OFFCURVE",
"393 1 OFFCURVE",
"478 1 CURVE SMOOTH",
"565 1 OFFCURVE",
"566 39 OFFCURVE",
"566 86 CURVE SMOOTH",
"566 440 LINE SMOOTH",
"566 487 OFFCURVE",
"566 528 OFFCURVE",
"479 528 CURVE SMOOTH",
"391 528 OFFCURVE",
"391 489 OFFCURVE",
"391 441 CURVE SMOOTH",
"391 264 LINE SMOOTH",
"391 211 OFFCURVE",
"355 177 OFFCURVE",
"303 177 CURVE SMOOTH",
"251 177 OFFCURVE",
"216 208 OFFCURVE",
"216 264 CURVE SMOOTH",
"216 439 LINE SMOOTH",
"216 487 OFFCURVE",
"216 528 OFFCURVE",
"128 528 CURVE SMOOTH",
"40 528 OFFCURVE",
"40 488 OFFCURVE",
"40 440 CURVE SMOOTH",
"40 265 LINE SMOOTH",
"40 120 OFFCURVE",
"138 2 OFFCURVE",
"274 2 CURVE SMOOTH"
);
}
);
width = 606;
}
);
leftKerningGroup = u;
note = u;
rightKerningGroup = u;
unicode = 0075;
},
{
glyphname = uacute;
layers = (
{
layerId = "05A6575B-AA27-4212-BC78-A0BDA398BBDE";
name = Bold;
paths = (
{
closed = 1;
nodes = (
"349 2 OFFCURVE",
"393 66 OFFCURVE",
"393 66 CURVE",
"393 42 OFFCURVE",
"393 1 OFFCURVE",
"478 1 CURVE SMOOTH",
"565 1 OFFCURVE",
"566 39 OFFCURVE",
"566 86 CURVE SMOOTH",
"566 440 LINE SMOOTH",
"566 487 OFFCURVE",
"566 528 OFFCURVE",
"479 528 CURVE SMOOTH",
"391 528 OFFCURVE",
"391 489 OFFCURVE",
"391 441 CURVE SMOOTH",
"391 264 LINE SMOOTH",
"391 211 OFFCURVE",
"355 177 OFFCURVE",
"303 177 CURVE SMOOTH",
"251 177 OFFCURVE",
"216 208 OFFCURVE",
"216 264 CURVE SMOOTH",
"216 439 LINE SMOOTH",
"216 487 OFFCURVE",
"216 528 OFFCURVE",
"128 528 CURVE SMOOTH",
"40 528 OFFCURVE",
"40 488 OFFCURVE",
"40 440 CURVE SMOOTH",
"40 265 LINE SMOOTH",
"40 120 OFFCURVE",
"138 2 OFFCURVE",
"274 2 CURVE SMOOTH"
);
},
{
closed = 1;
nodes = (
"443 628 LINE SMOOTH",
"466 635 OFFCURVE",
"486 642 OFFCURVE",
"486 673 CURVE SMOOTH",
"486 684 OFFCURVE",
"484 697 OFFCURVE",
"478 715 CURVE SMOOTH",
"464 762 OFFCURVE",
"448 774 OFFCURVE",
"430 774 CURVE SMOOTH",
"421 774 OFFCURVE",
"411 770 OFFCURVE",
"400 767 CURVE SMOOTH",
"235 716 LINE SMOOTH",
"212 709 OFFCURVE",
"192 702 OFFCURVE",
"192 671 CURVE SMOOTH",
"192 660 OFFCURVE",
"194 646 OFFCURVE",
"200 628 CURVE SMOOTH",
"215 581 OFFCURVE",
"231 569 OFFCURVE",
"249 569 CURVE SMOOTH",
"258 569 OFFCURVE",
"266 572 OFFCURVE",
"276 575 CURVE",
"277 575 OFFCURVE",
"278 576 OFFCURVE",
"279 576 CURVE"
);
}
);
width = 606;
}
);
leftKerningGroup = u;
note = uacute;
rightKerningGroup = u;
unicode = 00FA;
},
{
glyphname = ucircumflex;
layers = (
{
layerId = "05A6575B-AA27-4212-BC78-A0BDA398BBDE";
name = Bold;
paths = (
{
closed = 1;
nodes = (
"349 2 OFFCURVE",
"393 66 OFFCURVE",
"393 66 CURVE",
"393 42 OFFCURVE",
"393 1 OFFCURVE",
"478 1 CURVE SMOOTH",
"565 1 OFFCURVE",
"566 39 OFFCURVE",
"566 86 CURVE SMOOTH",
"566 440 LINE SMOOTH",
"566 487 OFFCURVE",
"566 528 OFFCURVE",
"479 528 CURVE SMOOTH",
"391 528 OFFCURVE",
"391 489 OFFCURVE",
"391 441 CURVE SMOOTH",
"391 264 LINE SMOOTH",
"391 211 OFFCURVE",
"355 177 OFFCURVE",
"303 177 CURVE SMOOTH",
"251 177 OFFCURVE",
"216 208 OFFCURVE",
"216 264 CURVE SMOOTH",
"216 439 LINE SMOOTH",
"216 487 OFFCURVE",
"216 528 OFFCURVE",
"128 528 CURVE SMOOTH",
"40 528 OFFCURVE",
"40 488 OFFCURVE",
"40 440 CURVE SMOOTH",
"40 265 LINE SMOOTH",
"40 120 OFFCURVE",
"138 2 OFFCURVE",
"274 2 CURVE SMOOTH"
);
},
{
closed = 1;
nodes = (
"424 739 OFFCURVE",
"331 769 OFFCURVE",
"331 769 CURVE",
"326 770 OFFCURVE",
"316 774 OFFCURVE",
"308 774 CURVE SMOOTH",
"299 774 OFFCURVE",
"289 770 OFFCURVE",
"284 769 CURVE",
"284 769 OFFCURVE",
"192 739 OFFCURVE",
"145 723 CURVE SMOOTH",
"127 717 OFFCURVE",
"107 705 OFFCURVE",
"107 678 CURVE SMOOTH",
"107 667 OFFCURVE",
"111 653 OFFCURVE",
"119 636 CURVE SMOOTH",
"138 595 OFFCURVE",
"161 585 OFFCURVE",
"181 585 CURVE SMOOTH",
"192 585 OFFCURVE",
"203 588 OFFCURVE",
"212 591 CURVE",
"213 591 OFFCURVE",
"214 592 OFFCURVE",
"215 592 CURVE",
"308 632 LINE",
"404 590 LINE",
"414 587 OFFCURVE",
"425 583 OFFCURVE",
"436 583 CURVE SMOOTH",
"455 583 OFFCURVE",
"475 594 OFFCURVE",
"496 636 CURVE SMOOTH",
"504 651 OFFCURVE",
"507 665 OFFCURVE",
"507 676 CURVE SMOOTH",
"507 703 OFFCURVE",
"488 717 OFFCURVE",
"470 723 CURVE SMOOTH"
);
}
);
width = 606;
}
);
leftKerningGroup = u;
note = ucircumflex;
rightKerningGroup = u;
unicode = 00FB;
},
{
glyphname = udieresis;
layers = (
{
layerId = "05A6575B-AA27-4212-BC78-A0BDA398BBDE";
name = Bold;
paths = (
{
closed = 1;
nodes = (
"349 2 OFFCURVE",
"393 66 OFFCURVE",
"393 66 CURVE",
"393 42 OFFCURVE",
"393 1 OFFCURVE",
"478 1 CURVE SMOOTH",
"565 1 OFFCURVE",
"566 39 OFFCURVE",
"566 86 CURVE SMOOTH",
"566 440 LINE SMOOTH",
"566 487 OFFCURVE",
"566 528 OFFCURVE",
"479 528 CURVE SMOOTH",
"391 528 OFFCURVE",
"391 489 OFFCURVE",
"391 441 CURVE SMOOTH",
"391 264 LINE SMOOTH",
"391 211 OFFCURVE",
"355 177 OFFCURVE",
"303 177 CURVE SMOOTH",
"251 177 OFFCURVE",
"216 208 OFFCURVE",
"216 264 CURVE SMOOTH",
"216 439 LINE SMOOTH",
"216 487 OFFCURVE",
"216 528 OFFCURVE",
"128 528 CURVE SMOOTH",
"40 528 OFFCURVE",
"40 488 OFFCURVE",
"40 440 CURVE SMOOTH",
"40 265 LINE SMOOTH",
"40 120 OFFCURVE",
"138 2 OFFCURVE",
"274 2 CURVE SMOOTH"
);
},
{
closed = 1;
nodes = (
"525 595 OFFCURVE",
"525 635 OFFCURVE",
"525 683 CURVE SMOOTH",
"525 732 OFFCURVE",
"525 773 OFFCURVE",
"436 773 CURVE SMOOTH",
"346 773 OFFCURVE",
"346 734 OFFCURVE",
"346 685 CURVE SMOOTH",
"346 636 OFFCURVE",
"346 595 OFFCURVE",
"435 595 CURVE SMOOTH"
);
},
{
closed = 1;
nodes = (
"255 595 OFFCURVE",
"255 635 OFFCURVE",
"255 683 CURVE SMOOTH",
"255 732 OFFCURVE",
"255 773 OFFCURVE",
"166 773 CURVE SMOOTH",
"76 773 OFFCURVE",
"77 734 OFFCURVE",
"76 685 CURVE SMOOTH",
"76 636 OFFCURVE",
"76 595 OFFCURVE",
"165 595 CURVE SMOOTH"
);
}
);
width = 606;
}
);
leftKerningGroup = u;
note = udieresis;
rightKerningGroup = u;
unicode = 00FC;
},
{
glyphname = ugrave;
layers = (
{
layerId = "05A6575B-AA27-4212-BC78-A0BDA398BBDE";
name = Bold;
paths = (
{
closed = 1;
nodes = (
"349 2 OFFCURVE",
"393 66 OFFCURVE",
"393 66 CURVE",
"393 42 OFFCURVE",
"393 1 OFFCURVE",
"478 1 CURVE SMOOTH",
"565 1 OFFCURVE",
"566 39 OFFCURVE",
"566 86 CURVE SMOOTH",
"566 440 LINE SMOOTH",
"566 487 OFFCURVE",
"566 528 OFFCURVE",
"479 528 CURVE SMOOTH",
"391 528 OFFCURVE",
"391 489 OFFCURVE",
"391 441 CURVE SMOOTH",
"391 264 LINE SMOOTH",
"391 211 OFFCURVE",
"355 177 OFFCURVE",
"303 177 CURVE SMOOTH",
"251 177 OFFCURVE",
"216 208 OFFCURVE",
"216 264 CURVE SMOOTH",
"216 439 LINE SMOOTH",
"216 487 OFFCURVE",
"216 528 OFFCURVE",
"128 528 CURVE SMOOTH",
"40 528 OFFCURVE",
"40 488 OFFCURVE",
"40 440 CURVE SMOOTH",
"40 265 LINE SMOOTH",
"40 120 OFFCURVE",
"138 2 OFFCURVE",
"274 2 CURVE SMOOTH"
);
},
{
closed = 1;
nodes = (
"358 576 LINE",
"359 576 OFFCURVE",
"360 575 OFFCURVE",
"361 575 CURVE",
"371 572 OFFCURVE",
"379 569 OFFCURVE",
"388 569 CURVE SMOOTH",
"406 569 OFFCURVE",
"422 581 OFFCURVE",
"437 628 CURVE SMOOTH",
"443 646 OFFCURVE",
"445 659 OFFCURVE",
"445 670 CURVE SMOOTH",
"445 702 OFFCURVE",
"424 709 OFFCURVE",
"402 716 CURVE SMOOTH",
"237 767 LINE SMOOTH",
"226 770 OFFCURVE",
"216 774 OFFCURVE",
"207 774 CURVE SMOOTH",
"189 774 OFFCURVE",
"173 762 OFFCURVE",
"158 715 CURVE SMOOTH",
"152 697 OFFCURVE",
"150 684 OFFCURVE",
"150 673 CURVE SMOOTH",
"150 642 OFFCURVE",
"170 635 OFFCURVE",
"193 628 CURVE SMOOTH"
);
}
);
width = 606;
}
);
leftKerningGroup = u;
note = ugrave;
rightKerningGroup = u;
unicode = 00F9;
},
{
glyphname = v;
layers = (
{
layerId = "05A6575B-AA27-4212-BC78-A0BDA398BBDE";
name = Bold;
paths = (
{
closed = 1;
nodes = (
"546 530 OFFCURVE",
"526 536 OFFCURVE",
"511 536 CURVE SMOOTH",
"480 536 OFFCURVE",
"466 511 OFFCURVE",
"450 483 CURVE",
"319 231 LINE",
"188 483 LINE SMOOTH",
"173 512 OFFCURVE",
"159 537 OFFCURVE",
"128 537 CURVE SMOOTH",
"112 537 OFFCURVE",
"93 530 OFFCURVE",
"67 515 CURVE SMOOTH",
"29 492 OFFCURVE",
"15 470 OFFCURVE",
"15 448 CURVE SMOOTH",
"15 430 OFFCURVE",
"24 412 OFFCURVE",
"35 394 CURVE SMOOTH",
"243 38 LINE",
"243 38 OFFCURVE",
"272 -5 OFFCURVE",
"321 -5 CURVE SMOOTH",
"369 -5 OFFCURVE",
"396 39 OFFCURVE",
"396 39 CURVE",
"603 394 LINE SMOOTH",
"614 413 OFFCURVE",
"623 431 OFFCURVE",
"623 449 CURVE SMOOTH",
"623 471 OFFCURVE",
"610 492 OFFCURVE",
"571 515 CURVE SMOOTH"
);
}
);
width = 638;
}
);
note = v;
rightKerningGroup = d;
unicode = 0076;
},
{
glyphname = w;
layers = (
{
layerId = "05A6575B-AA27-4212-BC78-A0BDA398BBDE";
name = Bold;
paths = (
{
closed = 1;
nodes = (
"699 530 OFFCURVE",
"686 533 OFFCURVE",
"674 533 CURVE SMOOTH",
"629 533 OFFCURVE",
"610 490 OFFCURVE",
"602 469 CURVE",
"602 469 OFFCURVE",
"560 351 OFFCURVE",
"541 303 CURVE",
"532 323 OFFCURVE",
"482 463 OFFCURVE",
"482 463 CURVE SMOOTH",
"482 463 OFFCURVE",
"458 528 OFFCURVE",
"395 528 CURVE SMOOTH",
"337 528 OFFCURVE",
"312 464 OFFCURVE",
"312 464 CURVE SMOOTH",
"312 464 OFFCURVE",
"273 350 OFFCURVE",
"253 302 CURVE",
"245 322 OFFCURVE",
"188 478 OFFCURVE",
"185 485 CURVE SMOOTH",
"176 506 OFFCURVE",
"164 533 OFFCURVE",
"126 533 CURVE SMOOTH",
"112 533 OFFCURVE",
"94 529 OFFCURVE",
"72 520 CURVE SMOOTH",
"27 502 OFFCURVE",
"15 479 OFFCURVE",
"15 457 CURVE SMOOTH",
"15 443 OFFCURVE",
"21 430 OFFCURVE",
"25 418 CURVE",
"168 67 LINE",
"168 67 OFFCURVE",
"191 -3 OFFCURVE",
"253 -3 CURVE SMOOTH",
"318 -3 OFFCURVE",
"338 66 OFFCURVE",
"338 66 CURVE",
"358 114 OFFCURVE",
"377 175 OFFCURVE",
"397 223 CURVE",
"405 203 OFFCURVE",
"445 94 OFFCURVE",
"456 67 CURVE",
"456 67 OFFCURVE",
"480 -3 OFFCURVE",
"542 -3 CURVE SMOOTH",
"605 -3 OFFCURVE",
"625 66 OFFCURVE",
"625 66 CURVE",
"735 334 LINE SMOOTH",
"746 362 OFFCURVE",
"769 417 OFFCURVE",
"769 417 CURVE",
"774 428 OFFCURVE",
"778 441 OFFCURVE",
"778 454 CURVE SMOOTH",
"778 477 OFFCURVE",
"765 501 OFFCURVE",
"714 523 CURVE SMOOTH"
);
}
);
width = 793;
}
);
note = w;
rightKerningGroup = d;
unicode = 0077;
},
{
glyphname = x;
layers = (
{
layerId = "05A6575B-AA27-4212-BC78-A0BDA398BBDE";
name = Bold;
paths = (
{
closed = 1;
nodes = (
"405 264 LINE",
"516 376 LINE SMOOTH",
"535 395 OFFCURVE",
"552 412 OFFCURVE",
"552 435 CURVE SMOOTH",
"552 452 OFFCURVE",
"543 472 OFFCURVE",
"516 499 CURVE SMOOTH",
"490 525 OFFCURVE",
"470 535 OFFCURVE",
"453 535 CURVE SMOOTH",
"430 535 OFFCURVE",
"413 518 OFFCURVE",
"394 499 CURVE SMOOTH",
"284 387 LINE",
"173 499 LINE SMOOTH",
"154 518 OFFCURVE",
"137 535 OFFCURVE",
"115 535 CURVE SMOOTH",
"98 535 OFFCURVE",
"78 525 OFFCURVE",
"51 498 CURVE SMOOTH",
"24 472 OFFCURVE",
"15 452 OFFCURVE",
"15 435 CURVE SMOOTH",
"15 412 OFFCURVE",
"32 395 OFFCURVE",
"51 376 CURVE SMOOTH",
"162 264 LINE",
"51 152 LINE SMOOTH",
"32 133 OFFCURVE",
"15 116 OFFCURVE",
"15 93 CURVE SMOOTH",
"15 76 OFFCURVE",
"24 56 OFFCURVE",
"51 30 CURVE SMOOTH",
"78 4 OFFCURVE",
"98 -6 OFFCURVE",
"115 -6 CURVE SMOOTH",
"137 -6 OFFCURVE",
"154 11 OFFCURVE",
"173 30 CURVE SMOOTH",
"284 141 LINE",
"394 30 LINE SMOOTH",
"413 11 OFFCURVE",
"430 -6 OFFCURVE",
"452 -6 CURVE SMOOTH",
"469 -6 OFFCURVE",
"490 4 OFFCURVE",
"516 30 CURVE SMOOTH",
"543 56 OFFCURVE",
"552 76 OFFCURVE",
"552 93 CURVE SMOOTH",
"552 116 OFFCURVE",
"535 133 OFFCURVE",
"516 152 CURVE SMOOTH"
);
}
);
width = 567;
}
);
note = x;
rightKerningGroup = d;
unicode = 0078;
},
{
glyphname = y;
layers = (
{
layerId = "05A6575B-AA27-4212-BC78-A0BDA398BBDE";
name = Bold;
paths = (
{
closed = 1;
nodes = (
"507 531 OFFCURVE",
"490 535 OFFCURVE",
"476 535 CURVE SMOOTH",
"441 535 OFFCURVE",
"430 509 OFFCURVE",
"416 478 CURVE SMOOTH",
"385 410 OFFCURVE",
"321 266 OFFCURVE",
"320 263 CURVE",
"296 302 OFFCURVE",
"208 451 OFFCURVE",
"187 487 CURVE SMOOTH",
"171 514 OFFCURVE",
"157 538 OFFCURVE",
"127 538 CURVE SMOOTH",
"112 538 OFFCURVE",
"93 532 OFFCURVE",
"69 518 CURVE SMOOTH",
"28 494 OFFCURVE",
"15 473 OFFCURVE",
"15 454 CURVE SMOOTH",
"15 438 OFFCURVE",
"23 425 OFFCURVE",
"35 405 CURVE SMOOTH",
"234 70 LINE",
"216 32 OFFCURVE",
"163 -86 OFFCURVE",
"154 -107 CURVE SMOOTH",
"146 -125 OFFCURVE",
"138 -143 OFFCURVE",
"138 -159 CURVE SMOOTH",
"138 -181 OFFCURVE",
"152 -201 OFFCURVE",
"197 -221 CURVE SMOOTH",
"220 -231 OFFCURVE",
"238 -236 OFFCURVE",
"252 -236 CURVE SMOOTH",
"286 -236 OFFCURVE",
"298 -209 OFFCURVE",
"311 -179 CURVE SMOOTH",
"573 407 LINE",
"573 408 OFFCURVE",
"574 409 OFFCURVE",
"574 410 CURVE",
"582 427 OFFCURVE",
"589 443 OFFCURVE",
"589 458 CURVE SMOOTH",
"589 480 OFFCURVE",
"575 501 OFFCURVE",
"530 521 CURVE SMOOTH"
);
}
);
width = 604;
}
);
leftKerningGroup = y;
note = y;
rightKerningGroup = y;
unicode = 0079;
},
{
glyphname = yacute;
layers = (
{
layerId = "05A6575B-AA27-4212-BC78-A0BDA398BBDE";
name = Bold;
paths = (
{
closed = 1;
nodes = (
"507 531 OFFCURVE",
"490 535 OFFCURVE",
"476 535 CURVE SMOOTH",
"441 535 OFFCURVE",
"430 509 OFFCURVE",
"416 478 CURVE SMOOTH",
"385 410 OFFCURVE",
"321 266 OFFCURVE",
"320 263 CURVE",
"296 302 OFFCURVE",
"208 451 OFFCURVE",
"187 487 CURVE SMOOTH",
"171 514 OFFCURVE",
"157 538 OFFCURVE",
"127 538 CURVE SMOOTH",
"112 538 OFFCURVE",
"93 532 OFFCURVE",
"69 518 CURVE SMOOTH",
"28 494 OFFCURVE",
"15 473 OFFCURVE",
"15 454 CURVE SMOOTH",
"15 438 OFFCURVE",
"23 425 OFFCURVE",
"35 405 CURVE SMOOTH",
"234 70 LINE",
"216 32 OFFCURVE",
"163 -86 OFFCURVE",
"154 -107 CURVE SMOOTH",
"146 -125 OFFCURVE",
"138 -143 OFFCURVE",
"138 -159 CURVE SMOOTH",
"138 -181 OFFCURVE",
"152 -201 OFFCURVE",
"197 -221 CURVE SMOOTH",
"220 -231 OFFCURVE",
"238 -236 OFFCURVE",
"252 -236 CURVE SMOOTH",
"286 -236 OFFCURVE",
"298 -209 OFFCURVE",
"311 -179 CURVE SMOOTH",
"573 407 LINE",
"573 408 OFFCURVE",
"574 409 OFFCURVE",
"574 410 CURVE",
"582 427 OFFCURVE",
"589 443 OFFCURVE",
"589 458 CURVE SMOOTH",
"589 480 OFFCURVE",
"575 501 OFFCURVE",
"530 521 CURVE SMOOTH"
);
},
{
closed = 1;
nodes = (
"439 628 LINE SMOOTH",
"462 635 OFFCURVE",
"482 642 OFFCURVE",
"482 673 CURVE SMOOTH",
"482 684 OFFCURVE",
"480 697 OFFCURVE",
"474 715 CURVE SMOOTH",
"460 762 OFFCURVE",
"444 774 OFFCURVE",
"426 774 CURVE SMOOTH",
"417 774 OFFCURVE",
"407 770 OFFCURVE",
"396 767 CURVE SMOOTH",
"231 716 LINE SMOOTH",
"208 709 OFFCURVE",
"188 702 OFFCURVE",
"188 671 CURVE SMOOTH",
"188 660 OFFCURVE",
"190 646 OFFCURVE",
"196 628 CURVE SMOOTH",
"211 581 OFFCURVE",
"227 569 OFFCURVE",
"245 569 CURVE SMOOTH",
"254 569 OFFCURVE",
"262 572 OFFCURVE",
"272 575 CURVE",
"273 575 OFFCURVE",
"274 576 OFFCURVE",
"275 576 CURVE"
);
}
);
width = 604;
}
);
leftKerningGroup = y;
note = yacute;
rightKerningGroup = y;
unicode = 00FD;
},
{
glyphname = ydieresis;
layers = (
{
layerId = "05A6575B-AA27-4212-BC78-A0BDA398BBDE";
name = Bold;
paths = (
{
closed = 1;
nodes = (
"507 531 OFFCURVE",
"490 535 OFFCURVE",
"476 535 CURVE SMOOTH",
"441 535 OFFCURVE",
"430 509 OFFCURVE",
"416 478 CURVE SMOOTH",
"385 410 OFFCURVE",
"321 266 OFFCURVE",
"320 263 CURVE",
"296 302 OFFCURVE",
"208 451 OFFCURVE",
"187 487 CURVE SMOOTH",
"171 514 OFFCURVE",
"157 538 OFFCURVE",
"127 538 CURVE SMOOTH",
"112 538 OFFCURVE",
"93 532 OFFCURVE",
"69 518 CURVE SMOOTH",
"28 494 OFFCURVE",
"15 473 OFFCURVE",
"15 454 CURVE SMOOTH",
"15 438 OFFCURVE",
"23 425 OFFCURVE",
"35 405 CURVE SMOOTH",
"234 70 LINE",
"216 32 OFFCURVE",
"163 -86 OFFCURVE",
"154 -107 CURVE SMOOTH",
"146 -125 OFFCURVE",
"138 -143 OFFCURVE",
"138 -159 CURVE SMOOTH",
"138 -181 OFFCURVE",
"152 -201 OFFCURVE",
"197 -221 CURVE SMOOTH",
"220 -231 OFFCURVE",
"238 -236 OFFCURVE",
"252 -236 CURVE SMOOTH",
"286 -236 OFFCURVE",
"298 -209 OFFCURVE",
"311 -179 CURVE SMOOTH",
"573 407 LINE",
"573 408 OFFCURVE",
"574 409 OFFCURVE",
"574 410 CURVE",
"582 427 OFFCURVE",
"589 443 OFFCURVE",
"589 458 CURVE SMOOTH",
"589 480 OFFCURVE",
"575 501 OFFCURVE",
"530 521 CURVE SMOOTH"
);
},
{
closed = 1;
nodes = (
"266 595 OFFCURVE",
"266 635 OFFCURVE",
"266 683 CURVE SMOOTH",
"266 732 OFFCURVE",
"266 773 OFFCURVE",
"177 773 CURVE SMOOTH",
"87 773 OFFCURVE",
"88 734 OFFCURVE",
"87 685 CURVE SMOOTH",
"87 636 OFFCURVE",
"87 595 OFFCURVE",
"176 595 CURVE SMOOTH"
);
},
{
closed = 1;
nodes = (
"536 595 OFFCURVE",
"536 635 OFFCURVE",
"536 683 CURVE SMOOTH",
"536 732 OFFCURVE",
"536 773 OFFCURVE",
"447 773 CURVE SMOOTH",
"357 773 OFFCURVE",
"357 734 OFFCURVE",
"357 685 CURVE SMOOTH",
"357 636 OFFCURVE",
"357 595 OFFCURVE",
"446 595 CURVE SMOOTH"
);
}
);
width = 604;
}
);
leftKerningGroup = y;
note = ydieresis;
rightKerningGroup = y;
unicode = 00FF;
},
{
glyphname = z;
layers = (
{
layerId = "05A6575B-AA27-4212-BC78-A0BDA398BBDE";
name = Bold;
paths = (
{
closed = 1;
nodes = (
"303 176 LINE",
"314 186 OFFCURVE",
"464 321 OFFCURVE",
"523 378 CURVE SMOOTH",
"540 394 OFFCURVE",
"548 418 OFFCURVE",
"548 441 CURVE SMOOTH",
"548 490 OFFCURVE",
"507 527 OFFCURVE",
"461 527 CURVE SMOOTH",
"136 527 LINE SMOOTH",
"88 527 OFFCURVE",
"47 527 OFFCURVE",
"47 440 CURVE SMOOTH",
"47 352 OFFCURVE",
"88 352 OFFCURVE",
"136 352 CURVE SMOOTH",
"277 352 LINE",
"266 341 OFFCURVE",
"110 207 OFFCURVE",
"51 150 CURVE SMOOTH",
"34 133 OFFCURVE",
"25 111 OFFCURVE",
"25 88 CURVE SMOOTH",
"25 40 OFFCURVE",
"65 0 OFFCURVE",
"112 0 CURVE SMOOTH",
"473 0 LINE SMOOTH",
"521 0 OFFCURVE",
"561 0 OFFCURVE",
"561 87 CURVE SMOOTH",
"561 174 OFFCURVE",
"522 176 OFFCURVE",
"474 176 CURVE SMOOTH"
);
}
);
width = 586;
}
);
leftKerningGroup = z;
note = z;
rightKerningGroup = z;
unicode = 007A;
},
{
glyphname = zcaron;
layers = (
{
layerId = "05A6575B-AA27-4212-BC78-A0BDA398BBDE";
name = Bold;
paths = (
{
closed = 1;
nodes = (
"186 619 OFFCURVE",
"279 588 OFFCURVE",
"279 588 CURVE",
"284 587 OFFCURVE",
"293 583 OFFCURVE",
"302 583 CURVE SMOOTH",
"310 583 OFFCURVE",
"320 587 OFFCURVE",
"325 588 CURVE",
"325 588 OFFCURVE",
"418 619 OFFCURVE",
"464 634 CURVE SMOOTH",
"490 642 OFFCURVE",
"519 663 OFFCURVE",
"491 721 CURVE SMOOTH",
"457 791 OFFCURVE",
"415 772 OFFCURVE",
"388 763 CURVE",
"302 725 LINE",
"205 767 LINE",
"179 776 OFFCURVE",
"148 789 OFFCURVE",
"113 721 CURVE SMOOTH",
"87 669 OFFCURVE",
"113 642 OFFCURVE",
"140 634 CURVE SMOOTH"
);
},
{
closed = 1;
nodes = (
"303 176 LINE",
"314 186 OFFCURVE",
"464 321 OFFCURVE",
"523 378 CURVE SMOOTH",
"540 394 OFFCURVE",
"548 418 OFFCURVE",
"548 441 CURVE SMOOTH",
"548 490 OFFCURVE",
"507 527 OFFCURVE",
"461 527 CURVE SMOOTH",
"136 527 LINE SMOOTH",
"88 527 OFFCURVE",
"47 527 OFFCURVE",
"47 440 CURVE SMOOTH",
"47 352 OFFCURVE",
"88 352 OFFCURVE",
"136 352 CURVE SMOOTH",
"277 352 LINE",
"266 341 OFFCURVE",
"110 207 OFFCURVE",
"51 150 CURVE SMOOTH",
"34 133 OFFCURVE",
"25 111 OFFCURVE",
"25 88 CURVE SMOOTH",
"25 40 OFFCURVE",
"65 0 OFFCURVE",
"112 0 CURVE SMOOTH",
"473 0 LINE SMOOTH",
"521 0 OFFCURVE",
"561 0 OFFCURVE",
"561 87 CURVE SMOOTH",
"561 174 OFFCURVE",
"522 176 OFFCURVE",
"474 176 CURVE SMOOTH"
);
}
);
width = 586;
}
);
leftKerningGroup = z;
note = zcaron;
rightKerningGroup = z;
unicode = 017E;
},
{
glyphname = f_f;
layers = (
{
layerId = "05A6575B-AA27-4212-BC78-A0BDA398BBDE";
name = Bold;
paths = (
{
closed = 1;
nodes = (
"636 521 LINE",
"636 576 LINE SMOOTH",
"636 598 OFFCURVE",
"657 601 OFFCURVE",
"673 601 CURVE SMOOTH",
"721 601 OFFCURVE",
"762 601 OFFCURVE",
"762 688 CURVE SMOOTH",
"762 776 OFFCURVE",
"722 776 OFFCURVE",
"674 776 CURVE SMOOTH",
"523 776 OFFCURVE",
"460 663 OFFCURVE",
"460 574 CURVE SMOOTH",
"460 521 LINE",
"460 521 OFFCURVE",
"413 525 OFFCURVE",
"376 525 CURVE SMOOTH",
"337 525 OFFCURVE",
"283 521 OFFCURVE",
"283 521 CURVE",
"283 576 LINE SMOOTH",
"283 598 OFFCURVE",
"304 601 OFFCURVE",
"320 601 CURVE SMOOTH",
"368 601 OFFCURVE",
"409 601 OFFCURVE",
"409 688 CURVE SMOOTH",
"409 776 OFFCURVE",
"369 776 OFFCURVE",
"321 776 CURVE SMOOTH",
"170 776 OFFCURVE",
"107 663 OFFCURVE",
"107 574 CURVE SMOOTH",
"107 521 LINE",
"107 521 OFFCURVE",
"88 525 OFFCURVE",
"74 525 CURVE SMOOTH",
"47 525 OFFCURVE",
"15 519 OFFCURVE",
"15 439 CURVE SMOOTH",
"15 360 OFFCURVE",
"41 351 OFFCURVE",
"71 351 CURVE SMOOTH",
"88 351 OFFCURVE",
"107 354 OFFCURVE",
"107 354 CURVE",
"107 89 LINE SMOOTH",
"107 41 OFFCURVE",
"108 0 OFFCURVE",
"194 0 CURVE SMOOTH",
"281 0 OFFCURVE",
"283 40 OFFCURVE",
"283 87 CURVE SMOOTH",
"283 355 LINE",
"283 355 OFFCURVE",
"347 351 OFFCURVE",
"381 351 CURVE SMOOTH",
"412 351 OFFCURVE",
"460 354 OFFCURVE",
"460 354 CURVE",
"460 89 LINE SMOOTH",
"460 41 OFFCURVE",
"461 0 OFFCURVE",
"547 0 CURVE SMOOTH",
"634 0 OFFCURVE",
"636 40 OFFCURVE",
"636 87 CURVE SMOOTH",
"636 355 LINE",
"636 355 OFFCURVE",
"696 351 OFFCURVE",
"700 351 CURVE SMOOTH",
"748 351 OFFCURVE",
"788 355 OFFCURVE",
"788 438 CURVE SMOOTH",
"788 526 OFFCURVE",
"748 527 OFFCURVE",
"701 527 CURVE"
);
}
);
width = 803;
}
);
note = f_f;
unicode = FB00;
},
{
glyphname = f_f_i;
layers = (
{
layerId = "05A6575B-AA27-4212-BC78-A0BDA398BBDE";
name = Bold;
paths = (
{
closed = 1;
nodes = (
"636 521 LINE",
"636 576 LINE SMOOTH",
"636 598 OFFCURVE",
"657 601 OFFCURVE",
"673 601 CURVE SMOOTH",
"721 601 OFFCURVE",
"762 601 OFFCURVE",
"762 688 CURVE SMOOTH",
"762 776 OFFCURVE",
"722 776 OFFCURVE",
"674 776 CURVE SMOOTH",
"523 776 OFFCURVE",
"460 663 OFFCURVE",
"460 574 CURVE SMOOTH",
"460 521 LINE",
"460 521 OFFCURVE",
"413 525 OFFCURVE",
"375 525 CURVE SMOOTH",
"336 525 OFFCURVE",
"283 521 OFFCURVE",
"283 521 CURVE",
"283 576 LINE SMOOTH",
"283 598 OFFCURVE",
"304 601 OFFCURVE",
"320 601 CURVE SMOOTH",
"368 601 OFFCURVE",
"409 601 OFFCURVE",
"409 688 CURVE SMOOTH",
"409 776 OFFCURVE",
"369 776 OFFCURVE",
"321 776 CURVE SMOOTH",
"170 776 OFFCURVE",
"107 663 OFFCURVE",
"107 574 CURVE SMOOTH",
"107 521 LINE",
"107 521 OFFCURVE",
"87 525 OFFCURVE",
"74 525 CURVE SMOOTH",
"47 525 OFFCURVE",
"15 519 OFFCURVE",
"15 439 CURVE SMOOTH",
"15 360 OFFCURVE",
"41 351 OFFCURVE",
"71 351 CURVE SMOOTH",
"87 351 OFFCURVE",
"107 354 OFFCURVE",
"107 354 CURVE",
"107 89 LINE SMOOTH",
"107 41 OFFCURVE",
"108 0 OFFCURVE",
"194 0 CURVE SMOOTH",
"281 0 OFFCURVE",
"283 40 OFFCURVE",
"283 87 CURVE SMOOTH",
"283 355 LINE",
"283 355 OFFCURVE",
"346 351 OFFCURVE",
"380 351 CURVE SMOOTH",
"411 351 OFFCURVE",
"460 354 OFFCURVE",
"460 354 CURVE",
"460 89 LINE SMOOTH",
"460 41 OFFCURVE",
"461 0 OFFCURVE",
"547 0 CURVE SMOOTH",
"634 0 OFFCURVE",
"636 40 OFFCURVE",
"636 87 CURVE SMOOTH",
"636 355 LINE",
"636 355 OFFCURVE",
"696 351 OFFCURVE",
"700 351 CURVE SMOOTH",
"748 351 OFFCURVE",
"788 355 OFFCURVE",
"788 438 CURVE SMOOTH",
"788 526 OFFCURVE",
"748 527 OFFCURVE",
"701 527 CURVE"
);
},
{
closed = 1;
nodes = (
"1019 594 OFFCURVE",
"1019 633 OFFCURVE",
"1019 681 CURVE SMOOTH",
"1019 728 OFFCURVE",
"1019 768 OFFCURVE",
"933 768 CURVE SMOOTH",
"845 768 OFFCURVE",
"845 730 OFFCURVE",
"845 682 CURVE SMOOTH",
"845 635 OFFCURVE",
"845 594 OFFCURVE",
"932 594 CURVE SMOOTH"
);
},
{
closed = 1;
nodes = (
"845 523 OFFCURVE",
"845 483 OFFCURVE",
"845 436 CURVE SMOOTH",
"845 87 LINE SMOOTH",
"845 40 OFFCURVE",
"845 0 OFFCURVE",
"932 0 CURVE SMOOTH",
"1019 0 OFFCURVE",
"1019 39 OFFCURVE",
"1019 86 CURVE SMOOTH",
"1019 434 LINE SMOOTH",
"1019 482 OFFCURVE",
"1019 523 OFFCURVE",
"933 523 CURVE SMOOTH"
);
}
);
width = 1059;
}
);
note = f_f_i;
unicode = FB03;
},
{
glyphname = f_t;
layers = (
{
layerId = "05A6575B-AA27-4212-BC78-A0BDA398BBDE";
name = Bold;
paths = (
{
closed = 1;
nodes = (
"711 350 LINE",
"758 350 OFFCURVE",
"799 350 OFFCURVE",
"799 437 CURVE SMOOTH",
"799 525 OFFCURVE",
"760 525 OFFCURVE",
"712 525 CURVE SMOOTH",
"690 525 OFFCURVE",
"646 521 OFFCURVE",
"646 521 CURVE",
"646 619 LINE SMOOTH",
"646 667 OFFCURVE",
"645 707 OFFCURVE",
"560 707 CURVE SMOOTH",
"472 707 OFFCURVE",
"472 672 OFFCURVE",
"472 624 CURVE SMOOTH",
"472 521 LINE",
"472 521 OFFCURVE",
"422 525 OFFCURVE",
"379 525 CURVE SMOOTH",
"338 525 OFFCURVE",
"283 521 OFFCURVE",
"283 521 CURVE",
"283 576 LINE SMOOTH",
"283 598 OFFCURVE",
"304 601 OFFCURVE",
"320 601 CURVE SMOOTH",
"368 601 OFFCURVE",
"409 601 OFFCURVE",
"409 688 CURVE SMOOTH",
"409 776 OFFCURVE",
"369 776 OFFCURVE",
"321 776 CURVE SMOOTH",
"170 776 OFFCURVE",
"107 663 OFFCURVE",
"107 574 CURVE SMOOTH",
"107 521 LINE",
"107 521 OFFCURVE",
"87 525 OFFCURVE",
"74 525 CURVE SMOOTH",
"47 525 OFFCURVE",
"15 519 OFFCURVE",
"15 439 CURVE SMOOTH",
"15 360 OFFCURVE",
"41 351 OFFCURVE",
"71 351 CURVE SMOOTH",
"87 351 OFFCURVE",
"107 354 OFFCURVE",
"107 354 CURVE",
"107 89 LINE SMOOTH",
"107 41 OFFCURVE",
"108 0 OFFCURVE",
"194 0 CURVE SMOOTH",
"281 0 OFFCURVE",
"283 40 OFFCURVE",
"283 87 CURVE SMOOTH",
"283 355 LINE",
"283 355 OFFCURVE",
"345 351 OFFCURVE",
"380 351 CURVE SMOOTH",
"418 351 OFFCURVE",
"472 354 OFFCURVE",
"472 354 CURVE",
"472 206 LINE SMOOTH",
"472 77 OFFCURVE",
"554 0 OFFCURVE",
"684 0 CURVE SMOOTH",
"729 0 OFFCURVE",
"772 0 OFFCURVE",
"772 87 CURVE SMOOTH",
"772 163 OFFCURVE",
"741 165 OFFCURVE",
"685 165 CURVE SMOOTH",
"654 165 OFFCURVE",
"646 181 OFFCURVE",
"646 216 CURVE SMOOTH",
"646 354 LINE"
);
}
);
width = 814;
}
);
note = f_t;
},
{
glyphname = fi;
layers = (
{
layerId = "05A6575B-AA27-4212-BC78-A0BDA398BBDE";
name = Bold;
paths = (
{
closed = 1;
nodes = (
"283 520 LINE",
"283 575 LINE SMOOTH",
"283 597 OFFCURVE",
"304 600 OFFCURVE",
"320 600 CURVE SMOOTH",
"368 600 OFFCURVE",
"409 600 OFFCURVE",
"409 687 CURVE SMOOTH",
"409 775 OFFCURVE",
"369 775 OFFCURVE",
"321 775 CURVE SMOOTH",
"170 775 OFFCURVE",
"107 662 OFFCURVE",
"107 573 CURVE SMOOTH",
"107 520 LINE",
"74 520 LINE SMOOTH",
"47 520 OFFCURVE",
"15 509 OFFCURVE",
"15 438 CURVE SMOOTH",
"15 362 OFFCURVE",
"41 355 OFFCURVE",
"71 353 CURVE",
"107 353 LINE",
"107 88 LINE SMOOTH",
"107 40 OFFCURVE",
"108 -1 OFFCURVE",
"194 -1 CURVE SMOOTH",
"281 -1 OFFCURVE",
"283 39 OFFCURVE",
"283 86 CURVE SMOOTH",
"283 354 LINE",
"283 354 OFFCURVE",
"343 350 OFFCURVE",
"347 350 CURVE SMOOTH",
"395 350 OFFCURVE",
"435 354 OFFCURVE",
"435 437 CURVE SMOOTH",
"435 525 OFFCURVE",
"395 526 OFFCURVE",
"348 526 CURVE"
);
},
{
closed = 1;
nodes = (
"494 88 LINE SMOOTH",
"494 40 OFFCURVE",
"494 0 OFFCURVE",
"581 0 CURVE SMOOTH",
"669 0 OFFCURVE",
"669 39 OFFCURVE",
"669 87 CURVE SMOOTH",
"669 437 LINE SMOOTH",
"669 485 OFFCURVE",
"669 526 OFFCURVE",
"582 526 CURVE SMOOTH",
"494 526 OFFCURVE",
"494 486 OFFCURVE",
"494 439 CURVE SMOOTH"
);
},
{
closed = 1;
nodes = (
"669 598 OFFCURVE",
"669 637 OFFCURVE",
"669 685 CURVE SMOOTH",
"669 732 OFFCURVE",
"669 773 OFFCURVE",
"582 773 CURVE SMOOTH",
"494 773 OFFCURVE",
"494 734 OFFCURVE",
"494 686 CURVE SMOOTH",
"494 639 OFFCURVE",
"494 598 OFFCURVE",
"581 598 CURVE SMOOTH"
);
}
);
width = 709;
}
);
leftKerningGroup = f;
note = fi;
rightKerningGroup = d;
unicode = FB01;
},
{
glyphname = fl;
layers = (
{
layerId = "05A6575B-AA27-4212-BC78-A0BDA398BBDE";
name = Bold;
paths = (
{
closed = 1;
nodes = (
"283 520 LINE",
"283 575 LINE SMOOTH",
"283 597 OFFCURVE",
"304 600 OFFCURVE",
"320 600 CURVE SMOOTH",
"368 600 OFFCURVE",
"409 600 OFFCURVE",
"409 687 CURVE SMOOTH",
"409 775 OFFCURVE",
"369 775 OFFCURVE",
"321 775 CURVE SMOOTH",
"170 775 OFFCURVE",
"107 662 OFFCURVE",
"107 573 CURVE SMOOTH",
"107 520 LINE",
"74 520 LINE SMOOTH",
"47 520 OFFCURVE",
"15 509 OFFCURVE",
"15 438 CURVE SMOOTH",
"15 362 OFFCURVE",
"41 355 OFFCURVE",
"71 353 CURVE",
"107 353 LINE",
"107 88 LINE SMOOTH",
"107 40 OFFCURVE",
"108 -1 OFFCURVE",
"194 -1 CURVE SMOOTH",
"281 -1 OFFCURVE",
"283 39 OFFCURVE",
"283 86 CURVE SMOOTH",
"283 354 LINE",
"283 354 OFFCURVE",
"343 350 OFFCURVE",
"347 350 CURVE SMOOTH",
"395 350 OFFCURVE",
"435 354 OFFCURVE",
"435 437 CURVE SMOOTH",
"435 525 OFFCURVE",
"395 526 OFFCURVE",
"348 526 CURVE"
);
},
{
closed = 1;
nodes = (
"487 211 LINE SMOOTH",
"487 22 OFFCURVE",
"537 0 OFFCURVE",
"700 0 CURVE SMOOTH",
"728 0 OFFCURVE",
"759 0 OFFCURVE",
"759 87 CURVE SMOOTH",
"759 168 OFFCURVE",
"728 168 OFFCURVE",
"701 168 CURVE SMOOTH",
"664 168 OFFCURVE",
"662 176 OFFCURVE",
"662 223 CURVE SMOOTH",
"662 686 LINE SMOOTH",
"662 734 OFFCURVE",
"661 775 OFFCURVE",
"575 775 CURVE SMOOTH",
"487 775 OFFCURVE",
"487 735 OFFCURVE",
"487 687 CURVE SMOOTH"
);
}
);
width = 774;
}
);
leftKerningGroup = f;
note = fl;
rightKerningGroup = l;
unicode = FB02;
},
{
glyphname = j_j;
layers = (
{
layerId = "05A6575B-AA27-4212-BC78-A0BDA398BBDE";
name = Bold;
paths = (
{
closed = 1;
nodes = (
"212 596 OFFCURVE",
"212 634 OFFCURVE",
"212 682 CURVE SMOOTH",
"212 728 OFFCURVE",
"212 768 OFFCURVE",
"126 768 CURVE SMOOTH",
"40 768 OFFCURVE",
"40 730 OFFCURVE",
"40 683 CURVE SMOOTH",
"40 636 OFFCURVE",
"40 596 OFFCURVE",
"125 596 CURVE SMOOTH"
);
},
{
closed = 1;
nodes = (
"212 485 OFFCURVE",
"212 525 OFFCURVE",
"127 525 CURVE SMOOTH",
"38 525 OFFCURVE",
"40 487 OFFCURVE",
"40 440 CURVE SMOOTH",
"40 347 OFFCURVE",
"40 76 OFFCURVE",
"40 33 CURVE SMOOTH",
"40 -46 OFFCURVE",
"-20 -59 OFFCURVE",
"-46 -59 CURVE SMOOTH",
"-93 -59 OFFCURVE",
"-132 -63 OFFCURVE",
"-132 -144 CURVE SMOOTH",
"-132 -231 OFFCURVE",
"-93 -231 OFFCURVE",
"-47 -231 CURVE SMOOTH",
"69 -231 OFFCURVE",
"212 -141 OFFCURVE",
"212 26 CURVE SMOOTH",
"212 119 OFFCURVE",
"212 394 OFFCURVE",
"212 439 CURVE SMOOTH"
);
},
{
closed = 1;
nodes = (
"481 595 OFFCURVE",
"480 633 OFFCURVE",
"481 681 CURVE SMOOTH",
"481 727 OFFCURVE",
"481 767 OFFCURVE",
"395 767 CURVE SMOOTH",
"309 767 OFFCURVE",
"309 729 OFFCURVE",
"309 682 CURVE SMOOTH",
"308 635 OFFCURVE",
"309 595 OFFCURVE",
"394 595 CURVE SMOOTH"
);
},
{
closed = 1;
nodes = (
"307 524 OFFCURVE",
"309 486 OFFCURVE",
"309 439 CURVE SMOOTH",
"309 346 OFFCURVE",
"309 75 OFFCURVE",
"309 32 CURVE SMOOTH",
"309 -56 OFFCURVE",
"299 -60 OFFCURVE",
"273 -60 CURVE SMOOTH",
"251 -60 OFFCURVE",
"208 -64 OFFCURVE",
"208 -145 CURVE SMOOTH",
"208 -232 OFFCURVE",
"247 -232 OFFCURVE",
"293 -232 CURVE SMOOTH",
"410 -232 OFFCURVE",
"481 -142 OFFCURVE",
"481 25 CURVE SMOOTH",
"481 118 OFFCURVE",
"481 393 OFFCURVE",
"481 438 CURVE SMOOTH",
"481 484 OFFCURVE",
"481 524 OFFCURVE",
"396 524 CURVE SMOOTH"
);
}
);
width = 521;
}
);
note = j_j;
},
{
glyphname = l_l;
layers = (
{
layerId = "05A6575B-AA27-4212-BC78-A0BDA398BBDE";
name = Bold;
paths = (
{
closed = 1;
nodes = (
"216 177 OFFCURVE",
"215 194 OFFCURVE",
"215 208 CURVE SMOOTH",
"215 688 LINE SMOOTH",
"215 735 OFFCURVE",
"214 776 OFFCURVE",
"128 776 CURVE SMOOTH",
"40 776 OFFCURVE",
"40 737 OFFCURVE",
"40 689 CURVE SMOOTH",
"40 212 LINE SMOOTH",
"40 64 OFFCURVE",
"87 2 OFFCURVE",
"223 2 CURVE SMOOTH",
"259 2 OFFCURVE",
"289 13 OFFCURVE",
"289 89 CURVE SMOOTH",
"289 168 OFFCURVE",
"262 177 OFFCURVE",
"224 177 CURVE SMOOTH"
);
},
{
closed = 1;
nodes = (
"494 177 OFFCURVE",
"485 183 OFFCURVE",
"485 208 CURVE SMOOTH",
"485 688 LINE SMOOTH",
"485 735 OFFCURVE",
"483 776 OFFCURVE",
"398 776 CURVE SMOOTH",
"309 776 OFFCURVE",
"309 737 OFFCURVE",
"309 689 CURVE SMOOTH",
"310 212 LINE SMOOTH",
"310 64 OFFCURVE",
"387 2 OFFCURVE",
"522 2 CURVE SMOOTH",
"569 2 OFFCURVE",
"611 13 OFFCURVE",
"611 89 CURVE SMOOTH",
"611 168 OFFCURVE",
"573 177 OFFCURVE",
"524 177 CURVE SMOOTH"
);
}
);
width = 626;
}
);
note = l_l;
},
{
glyphname = t_t;
layers = (
{
layerId = "05A6575B-AA27-4212-BC78-A0BDA398BBDE";
name = Bold;
paths = (
{
closed = 1;
nodes = (
"691 350 LINE",
"738 350 OFFCURVE",
"779 350 OFFCURVE",
"779 437 CURVE SMOOTH",
"779 525 OFFCURVE",
"740 525 OFFCURVE",
"692 525 CURVE SMOOTH",
"670 525 OFFCURVE",
"626 521 OFFCURVE",
"626 521 CURVE",
"626 619 LINE SMOOTH",
"626 667 OFFCURVE",
"625 707 OFFCURVE",
"540 707 CURVE SMOOTH",
"452 707 OFFCURVE",
"452 672 OFFCURVE",
"452 624 CURVE SMOOTH",
"452 524 LINE",
"452 524 OFFCURVE",
"413 525 OFFCURVE",
"370 525 CURVE SMOOTH",
"328 525 OFFCURVE",
"281 524 OFFCURVE",
"281 524 CURVE",
"281 619 LINE SMOOTH",
"281 667 OFFCURVE",
"280 707 OFFCURVE",
"195 707 CURVE SMOOTH",
"107 707 OFFCURVE",
"107 672 OFFCURVE",
"107 624 CURVE SMOOTH",
"107 521 LINE",
"107 521 OFFCURVE",
"87 525 OFFCURVE",
"74 525 CURVE SMOOTH",
"47 525 OFFCURVE",
"15 519 OFFCURVE",
"15 439 CURVE SMOOTH",
"15 360 OFFCURVE",
"41 351 OFFCURVE",
"71 351 CURVE SMOOTH",
"87 351 OFFCURVE",
"107 354 OFFCURVE",
"107 354 CURVE",
"107 206 LINE SMOOTH",
"107 67 OFFCURVE",
"189 0 OFFCURVE",
"319 0 CURVE SMOOTH",
"364 0 OFFCURVE",
"407 0 OFFCURVE",
"407 87 CURVE SMOOTH",
"407 163 OFFCURVE",
"376 165 OFFCURVE",
"320 165 CURVE SMOOTH",
"289 165 OFFCURVE",
"281 181 OFFCURVE",
"281 216 CURVE SMOOTH",
"281 354 LINE",
"281 354 OFFCURVE",
"342 350 OFFCURVE",
"372 350 CURVE SMOOTH",
"404 350 OFFCURVE",
"452 354 OFFCURVE",
"452 354 CURVE",
"452 206 LINE SMOOTH",
"452 67 OFFCURVE",
"534 0 OFFCURVE",
"664 0 CURVE SMOOTH",
"709 0 OFFCURVE",
"752 0 OFFCURVE",
"752 87 CURVE SMOOTH",
"752 163 OFFCURVE",
"721 165 OFFCURVE",
"665 165 CURVE SMOOTH",
"634 165 OFFCURVE",
"626 181 OFFCURVE",
"626 216 CURVE SMOOTH",
"626 354 LINE"
);
}
);
width = 794;
}
);
note = t_t;
},
{
glyphname = ordfeminine;
layers = (
{
layerId = "05A6575B-AA27-4212-BC78-A0BDA398BBDE";
name = Bold;
paths = (
{
closed = 1;
nodes = (
"294 713 OFFCURVE",
"283 697 OFFCURVE",
"280 673 CURVE",
"274 683 OFFCURVE",
"248 713 OFFCURVE",
"195 713 CURVE SMOOTH",
"112 713 OFFCURVE",
"25 627 OFFCURVE",
"25 527 CURVE SMOOTH",
"25 423 OFFCURVE",
"111 337 OFFCURVE",
"195 337 CURVE SMOOTH",
"251 337 OFFCURVE",
"275 366 OFFCURVE",
"281 375 CURVE",
"284 353 OFFCURVE",
"296 337 OFFCURVE",
"342 337 CURVE SMOOTH",
"405 337 OFFCURVE",
"405 365 OFFCURVE",
"405 400 CURVE SMOOTH",
"405 650 LINE SMOOTH",
"405 684 OFFCURVE",
"405 713 OFFCURVE",
"343 713 CURVE SMOOTH"
);
},
{
closed = 1;
nodes = (
"177 463 OFFCURVE",
"150 494 OFFCURVE",
"150 524 CURVE SMOOTH",
"150 554 OFFCURVE",
"174 588 OFFCURVE",
"213 588 CURVE SMOOTH",
"255 588 OFFCURVE",
"275 552 OFFCURVE",
"275 525 CURVE SMOOTH",
"275 496 OFFCURVE",
"251 463 OFFCURVE",
"215 463 CURVE SMOOTH"
);
}
);
width = 445;
}
);
note = ordfeminine;
rightKerningGroup = d;
unicode = 00AA;
},
{
glyphname = ordmasculine;
layers = (
{
layerId = "05A6575B-AA27-4212-BC78-A0BDA398BBDE";
name = Bold;
paths = (
{
closed = 1;
nodes = (
"125 709 OFFCURVE",
"25 632 OFFCURVE",
"25 514 CURVE SMOOTH",
"25 396 OFFCURVE",
"129 322 OFFCURVE",
"221 322 CURVE SMOOTH",
"310 322 OFFCURVE",
"414 391 OFFCURVE",
"414 514 CURVE SMOOTH",
"414 632 OFFCURVE",
"318 709 OFFCURVE",
"219 709 CURVE SMOOTH"
);
},
{
closed = 1;
nodes = (
"195 446 OFFCURVE",
"151 464 OFFCURVE",
"151 515 CURVE SMOOTH",
"151 565 OFFCURVE",
"193 584 OFFCURVE",
"218 584 CURVE SMOOTH",
"248 584 OFFCURVE",
"289 567 OFFCURVE",
"289 516 CURVE SMOOTH",
"289 464 OFFCURVE",
"243 446 OFFCURVE",
"219 446 CURVE SMOOTH"
);
}
);
width = 439;
}
);
note = ordmasculine;
rightKerningGroup = d;
unicode = 00BA;
},
{
glyphname = mu;
layers = (
{
layerId = "05A6575B-AA27-4212-BC78-A0BDA398BBDE";
name = Bold;
paths = (
{
closed = 1;
nodes = (
"387 528 OFFCURVE",
"387 489 OFFCURVE",
"387 441 CURVE SMOOTH",
"387 267 LINE SMOOTH",
"387 214 OFFCURVE",
"352 180 OFFCURVE",
"300 180 CURVE SMOOTH",
"248 180 OFFCURVE",
"214 211 OFFCURVE",
"214 266 CURVE SMOOTH",
"214 440 LINE SMOOTH",
"214 487 OFFCURVE",
"214 527 OFFCURVE",
"127 527 CURVE SMOOTH",
"40 527 OFFCURVE",
"40 488 OFFCURVE",
"40 441 CURVE SMOOTH",
"40 -133 LINE SMOOTH",
"40 -180 OFFCURVE",
"40 -220 OFFCURVE",
"126 -220 CURVE SMOOTH",
"213 -220 OFFCURVE",
"214 -181 OFFCURVE",
"214 -134 CURVE SMOOTH",
"214 32 LINE",
"232 27 OFFCURVE",
"244 7 OFFCURVE",
"290 7 CURVE SMOOTH",
"358 7 OFFCURVE",
"387 66 OFFCURVE",
"389 69 CURVE",
"389 46 OFFCURVE",
"389 7 OFFCURVE",
"473 7 CURVE SMOOTH",
"561 7 OFFCURVE",
"561 45 OFFCURVE",
"561 93 CURVE SMOOTH",
"561 440 LINE SMOOTH",
"561 487 OFFCURVE",
"561 528 OFFCURVE",
"474 528 CURVE SMOOTH"
);
}
);
width = 601;
}
);
note = mu;
rightKerningGroup = d;
unicode = 00B5;
},
{
glyphname = "alef-hb";
lastChange = "2015-09-06 13:37:03 +0000";
layers = (
{
layerId = "05A6575B-AA27-4212-BC78-A0BDA398BBDE";
name = Bold;
paths = (
{
closed = 1;
nodes = (
"442 38 LINE SMOOTH",
"472 2 OFFCURVE",
"496 -33 OFFCURVE",
"567 19 CURVE SMOOTH",
"638 73 OFFCURVE",
"615 106 OFFCURVE",
"585 142 CURVE SMOOTH",
"211 582 LINE SMOOTH",
"179 620 OFFCURVE",
"158 653 OFFCURVE",
"87 600 CURVE SMOOTH",
"15 548 OFFCURVE",
"38 514 OFFCURVE",
"68 478 CURVE SMOOTH"
);
},
{
closed = 1;
nodes = (
"302 241 LINE",
"346 251 LINE SMOOTH",
"482 282 OFFCURVE",
"600 276 OFFCURVE",
"600 489 CURVE",
"600 530 LINE",
"600 579 OFFCURVE",
"600 619 OFFCURVE",
"511 619 CURVE SMOOTH",
"423 619 OFFCURVE",
"422 579 OFFCURVE",
"422 529 CURVE",
"422 506 LINE",
"422 400 OFFCURVE",
"394 370 OFFCURVE",
"343 370 CURVE SMOOTH",
"302 370 LINE"
);
},
{
closed = 1;
nodes = (
"334 388 LINE",
"290 378 LINE SMOOTH",
"154 347 OFFCURVE",
"36 353 OFFCURVE",
"36 140 CURVE",
"36 89 LINE",
"36 40 OFFCURVE",
"36 0 OFFCURVE",
"125 0 CURVE SMOOTH",
"213 0 OFFCURVE",
"214 40 OFFCURVE",
"214 90 CURVE",
"214 123 LINE",
"214 229 OFFCURVE",
"242 259 OFFCURVE",
"293 259 CURVE SMOOTH",
"334 259 LINE"
);
}
);
width = 646;
}
);
unicode = 05D0;
},
{
glyphname = "bet-hb";
lastChange = "2015-09-06 12:41:34 +0000";
layers = (
{
layerId = "05A6575B-AA27-4212-BC78-A0BDA398BBDE";
name = Bold;
paths = (
{
closed = 1;
nodes = (
"124 178 LINE SMOOTH",
"75 178 OFFCURVE",
"35 178 OFFCURVE",
"35 89 CURVE SMOOTH",
"35 1 OFFCURVE",
"75 0 OFFCURVE",
"125 0 CURVE SMOOTH",
"542 0 LINE SMOOTH",
"592 0 OFFCURVE",
"632 1 OFFCURVE",
"632 89 CURVE SMOOTH",
"632 178 OFFCURVE",
"592 178 OFFCURVE",
"543 178 CURVE SMOOTH"
);
},
{
closed = 1;
nodes = (
"540 0 OFFCURVE",
"540 41 OFFCURVE",
"540 90 CURVE SMOOTH",
"540 266 LINE SMOOTH",
"540 434 OFFCURVE",
"428 620 OFFCURVE",
"215 620 CURVE",
"134 620 LINE",
"85 620 OFFCURVE",
"45 620 OFFCURVE",
"45 531 CURVE SMOOTH",
"45 443 OFFCURVE",
"85 442 OFFCURVE",
"135 442 CURVE",
"218 442 LINE",
"324 442 OFFCURVE",
"363 344 OFFCURVE",
"363 263 CURVE SMOOTH",
"363 83 LINE SMOOTH",
"363 37 OFFCURVE",
"365 0 OFFCURVE",
"452 0 CURVE SMOOTH"
);
}
);
width = 667;
}
);
unicode = 05D1;
},
{
glyphname = "gimel-hb";
lastChange = "2015-09-06 22:50:33 +0000";
layers = (
{
layerId = "05A6575B-AA27-4212-BC78-A0BDA398BBDE";
name = Bold;
paths = (
{
closed = 1;
nodes = (
"453 0 OFFCURVE",
"453 41 OFFCURVE",
"453 90 CURVE SMOOTH",
"455 306 LINE SMOOTH",
"457 497 OFFCURVE",
"400 620 OFFCURVE",
"225 620 CURVE",
"193 620 LINE",
"144 620 OFFCURVE",
"92 620 OFFCURVE",
"92 531 CURVE SMOOTH",
"92 436 OFFCURVE",
"120 442 OFFCURVE",
"170 442 CURVE",
"204 442 LINE",
"266 442 OFFCURVE",
"280 385 OFFCURVE",
"279 303 CURVE SMOOTH",
"275 83 LINE SMOOTH",
"274 37 OFFCURVE",
"278 0 OFFCURVE",
"365 0 CURVE SMOOTH"
);
},
{
closed = 1;
nodes = (
"267 328 OFFCURVE",
"85 336 OFFCURVE",
"45 169 CURVE",
"45 89 LINE",
"43 32 OFFCURVE",
"42 0 OFFCURVE",
"131 0 CURVE SMOOTH",
"219 0 OFFCURVE",
"221 32 OFFCURVE",
"220 90 CURVE",
"220 133 LINE",
"219 239 OFFCURVE",
"280 227 OFFCURVE",
"299 207 CURVE",
"340 291 LINE"
);
}
);
width = 495;
}
);
unicode = 05D2;
},
{
glyphname = "dalet-hb";
lastChange = "2015-09-01 14:30:08 +0000";
layers = (
{
layerId = "05A6575B-AA27-4212-BC78-A0BDA398BBDE";
name = Bold;
paths = (
{
closed = 1;
nodes = (
"348 451 LINE",
"286 396 OFFCURVE",
"295 284 OFFCURVE",
"295 166 CURVE SMOOTH",
"295 90 LINE SMOOTH",
"295 41 OFFCURVE",
"295 0 OFFCURVE",
"383 0 CURVE SMOOTH",
"470 0 OFFCURVE",
"472 37 OFFCURVE",
"472 83 CURVE SMOOTH",
"472 458 LINE"
);
},
{
closed = 1;
nodes = (
"500 442 LINE SMOOTH",
"550 442 OFFCURVE",
"590 443 OFFCURVE",
"590 531 CURVE SMOOTH",
"590 620 OFFCURVE",
"550 620 OFFCURVE",
"501 620 CURVE SMOOTH",
"114 620 LINE SMOOTH",
"65 620 OFFCURVE",
"25 620 OFFCURVE",
"25 531 CURVE SMOOTH",
"25 443 OFFCURVE",
"65 442 OFFCURVE",
"115 442 CURVE SMOOTH"
);
}
);
width = 615;
}
);
unicode = 05D3;
},
{
glyphname = "he-hb";
lastChange = "2015-09-06 16:54:24 +0000";
layers = (
{
layerId = "05A6575B-AA27-4212-BC78-A0BDA398BBDE";
name = Bold;
paths = (
{
closed = 1;
nodes = (
"600 0 OFFCURVE",
"600 41 OFFCURVE",
"600 90 CURVE SMOOTH",
"600 266 LINE SMOOTH",
"600 434 OFFCURVE",
"488 620 OFFCURVE",
"275 620 CURVE",
"124 620 LINE",
"75 620 OFFCURVE",
"35 620 OFFCURVE",
"35 531 CURVE SMOOTH",
"35 443 OFFCURVE",
"75 442 OFFCURVE",
"125 442 CURVE",
"278 442 LINE",
"384 442 OFFCURVE",
"423 344 OFFCURVE",
"423 263 CURVE SMOOTH",
"423 83 LINE SMOOTH",
"423 37 OFFCURVE",
"425 0 OFFCURVE",
"512 0 CURVE SMOOTH"
);
},
{
closed = 1;
nodes = (
"45 89 LINE SMOOTH",
"45 41 OFFCURVE",
"45 0 OFFCURVE",
"133 0 CURVE SMOOTH",
"222 0 OFFCURVE",
"222 40 OFFCURVE",
"222 88 CURVE SMOOTH",
"222 248 LINE SMOOTH",
"222 296 OFFCURVE",
"222 337 OFFCURVE",
"134 337 CURVE SMOOTH",
"45 337 OFFCURVE",
"45 297 OFFCURVE",
"45 249 CURVE SMOOTH"
);
}
);
width = 635;
}
);
unicode = 05D4;
},
{
glyphname = "vav-hb";
lastChange = "2015-09-01 12:40:24 +0000";
layers = (
{
layerId = "05A6575B-AA27-4212-BC78-A0BDA398BBDE";
name = Bold;
paths = (
{
closed = 1;
nodes = (
"40 89 LINE SMOOTH",
"40 41 OFFCURVE",
"40 0 OFFCURVE",
"128 0 CURVE SMOOTH",
"217 0 OFFCURVE",
"217 40 OFFCURVE",
"217 88 CURVE SMOOTH",
"217 531 LINE SMOOTH",
"217 579 OFFCURVE",
"217 620 OFFCURVE",
"129 620 CURVE SMOOTH",
"40 620 OFFCURVE",
"40 580 OFFCURVE",
"40 532 CURVE SMOOTH"
);
}
);
width = 257;
}
);
unicode = 05D5;
},
{
glyphname = "zayin-hb";
lastChange = "2015-09-01 12:52:52 +0000";
layers = (
{
layerId = "05A6575B-AA27-4212-BC78-A0BDA398BBDE";
name = Bold;
paths = (
{
closed = 1;
nodes = (
"171 457 LINE",
"110 374 OFFCURVE",
"122 264 OFFCURVE",
"138 181 CURVE SMOOTH",
"155 90 LINE SMOOTH",
"164 42 OFFCURVE",
"155 0 OFFCURVE",
"243 0 CURVE SMOOTH",
"330 0 OFFCURVE",
"340 36 OFFCURVE",
"332 83 CURVE SMOOTH",
"315 178 LINE SMOOTH",
"304 240 OFFCURVE",
"262 430 OFFCURVE",
"334 460 CURVE"
);
},
{
closed = 1;
nodes = (
"340 442 LINE SMOOTH",
"390 442 OFFCURVE",
"430 443 OFFCURVE",
"430 531 CURVE SMOOTH",
"430 620 OFFCURVE",
"390 620 OFFCURVE",
"341 620 CURVE SMOOTH",
"114 620 LINE SMOOTH",
"65 620 OFFCURVE",
"25 620 OFFCURVE",
"25 531 CURVE SMOOTH",
"25 443 OFFCURVE",
"65 442 OFFCURVE",
"115 442 CURVE SMOOTH"
);
}
);
width = 475;
}
);
unicode = 05D6;
},
{
glyphname = "het-hb";
lastChange = "2015-09-01 14:30:19 +0000";
layers = (
{
layerId = "05A6575B-AA27-4212-BC78-A0BDA398BBDE";
name = Bold;
paths = (
{
closed = 1;
nodes = (
"229 0 OFFCURVE",
"230 40 OFFCURVE",
"230 90 CURVE SMOOTH",
"230 442 LINE",
"320 442 LINE SMOOTH",
"426 442 OFFCURVE",
"465 344 OFFCURVE",
"465 263 CURVE SMOOTH",
"465 83 LINE SMOOTH",
"465 37 OFFCURVE",
"467 0 OFFCURVE",
"554 0 CURVE SMOOTH",
"642 0 OFFCURVE",
"642 41 OFFCURVE",
"642 90 CURVE SMOOTH",
"642 266 LINE SMOOTH",
"642 434 OFFCURVE",
"530 621 OFFCURVE",
"317 620 CURVE SMOOTH",
"141 619 LINE SMOOTH",
"52 618 OFFCURVE",
"52 579 OFFCURVE",
"52 531 CURVE SMOOTH",
"52 89 LINE SMOOTH",
"52 40 OFFCURVE",
"52 0 OFFCURVE",
"141 0 CURVE SMOOTH"
);
}
);
width = 677;
}
);
unicode = 05D7;
},
{
glyphname = "tet-hb";
lastChange = "2015-09-06 12:39:38 +0000";
layers = (
{
layerId = "05A6575B-AA27-4212-BC78-A0BDA398BBDE";
name = Bold;
paths = (
{
closed = 1;
nodes = (
"599 579 OFFCURVE",
"518 611 CURVE SMOOTH",
"452 637 OFFCURVE",
"359 633 OFFCURVE",
"307 561 CURVE SMOOTH",
"272 512 OFFCURVE",
"253 400 OFFCURVE",
"321 385 CURVE SMOOTH",
"393 369 OFFCURVE",
"395 411 OFFCURVE",
"417 456 CURVE SMOOTH",
"424 470 OFFCURVE",
"456 474 OFFCURVE",
"461 453 CURVE SMOOTH",
"461 453 OFFCURVE",
"469 403 OFFCURVE",
"469 345 CURVE SMOOTH",
"469 264 OFFCURVE",
"450 166 OFFCURVE",
"344 166 CURVE SMOOTH",
"229 166 OFFCURVE",
"218 272 OFFCURVE",
"218 344 CURVE SMOOTH",
"218 530 LINE SMOOTH",
"218 580 OFFCURVE",
"217 620 OFFCURVE",
"129 620 CURVE SMOOTH",
"40 620 OFFCURVE",
"40 580 OFFCURVE",
"40 531 CURVE SMOOTH",
"40 344 LINE SMOOTH",
"40 177 OFFCURVE",
"130 -12 OFFCURVE",
"341 -12 CURVE SMOOTH",
"554 -12 OFFCURVE",
"646 174 OFFCURVE",
"646 342 CURVE SMOOTH",
"646 370 LINE",
"646 481 OFFCURVE"
);
}
);
width = 686;
}
);
unicode = 05D8;
},
{
glyphname = "yod-hb";
lastChange = "2015-09-06 09:43:44 +0000";
layers = (
{
layerId = "05A6575B-AA27-4212-BC78-A0BDA398BBDE";
name = Bold;
paths = (
{
closed = 1;
nodes = (
"40 339 LINE SMOOTH",
"40 291 OFFCURVE",
"40 250 OFFCURVE",
"128 250 CURVE SMOOTH",
"217 250 OFFCURVE",
"217 290 OFFCURVE",
"217 338 CURVE SMOOTH",
"217 531 LINE SMOOTH",
"217 579 OFFCURVE",
"217 620 OFFCURVE",
"129 620 CURVE SMOOTH",
"40 620 OFFCURVE",
"40 580 OFFCURVE",
"40 532 CURVE SMOOTH"
);
}
);
width = 257;
}
);
unicode = 05D9;
},
{
glyphname = "finalkaf-hb";
lastChange = "2015-09-01 14:28:40 +0000";
layers = (
{
layerId = "05A6575B-AA27-4212-BC78-A0BDA398BBDE";
name = Bold;
paths = (
{
closed = 1;
nodes = (
"555 -150 OFFCURVE",
"555 -109 OFFCURVE",
"555 -60 CURVE SMOOTH",
"555 266 LINE SMOOTH",
"555 434 OFFCURVE",
"443 620 OFFCURVE",
"230 620 CURVE",
"109 620 LINE",
"60 620 OFFCURVE",
"20 620 OFFCURVE",
"20 531 CURVE SMOOTH",
"20 443 OFFCURVE",
"60 442 OFFCURVE",
"110 442 CURVE",
"233 442 LINE",
"339 442 OFFCURVE",
"378 344 OFFCURVE",
"378 263 CURVE SMOOTH",
"378 -67 LINE SMOOTH",
"378 -113 OFFCURVE",
"380 -150 OFFCURVE",
"467 -150 CURVE SMOOTH"
);
}
);
width = 590;
}
);
unicode = 05DA;
},
{
glyphname = "kaf-hb";
lastChange = "2015-09-01 14:28:36 +0000";
layers = (
{
layerId = "05A6575B-AA27-4212-BC78-A0BDA398BBDE";
name = Bold;
paths = (
{
closed = 1;
nodes = (
"146 205 OFFCURVE",
"131 215 OFFCURVE",
"115 215 CURVE SMOOTH",
"96 215 OFFCURVE",
"75 201 OFFCURVE",
"48 159 CURVE SMOOTH",
"33 135 OFFCURVE",
"26 117 OFFCURVE",
"26 102 CURVE SMOOTH",
"26 72 OFFCURVE",
"52 55 OFFCURVE",
"80 38 CURVE",
"80 38 OFFCURVE",
"160 -20 OFFCURVE",
"275 -20 CURVE SMOOTH",
"422 -20 OFFCURVE",
"584 84 OFFCURVE",
"584 321 CURVE SMOOTH",
"584 538 OFFCURVE",
"427 640 OFFCURVE",
"272 640 CURVE SMOOTH",
"166 640 OFFCURVE",
"79 582 OFFCURVE",
"79 582 CURVE",
"51 564 OFFCURVE",
"25 546 OFFCURVE",
"25 515 CURVE SMOOTH",
"25 500 OFFCURVE",
"31 482 OFFCURVE",
"46 461 CURVE SMOOTH",
"75 421 OFFCURVE",
"96 407 OFFCURVE",
"116 407 CURVE SMOOTH",
"133 407 OFFCURVE",
"149 417 OFFCURVE",
"167 429 CURVE",
"167 429 OFFCURVE",
"209 463 OFFCURVE",
"279 463 CURVE SMOOTH",
"366 463 OFFCURVE",
"407 397 OFFCURVE",
"407 316 CURVE SMOOTH",
"407 222 OFFCURVE",
"364 158 OFFCURVE",
"279 158 CURVE SMOOTH",
"210 158 OFFCURVE",
"169 191 OFFCURVE",
"169 191 CURVE",
"163 195 LINE"
);
}
);
width = 616;
}
);
unicode = 05DB;
},
{
glyphname = "lamed-hb";
lastChange = "2015-09-10 08:02:57 +0000";
layers = (
{
layerId = "05A6575B-AA27-4212-BC78-A0BDA398BBDE";
name = Bold;
paths = (
{
closed = 1;
nodes = (
"315 620 OFFCURVE",
"310 583 OFFCURVE",
"313 537 CURVE SMOOTH",
"326 353 LINE SMOOTH",
"332 274 OFFCURVE",
"298 209 OFFCURVE",
"199 176 CURVE SMOOTH",
"146 158 LINE SMOOTH",
"101 143 OFFCURVE",
"61 138 OFFCURVE",
"91 49 CURVE SMOOTH",
"119 -34 OFFCURVE",
"169 -11 OFFCURVE",
"216 6 CURVE SMOOTH",
"253 19 LINE SMOOTH",
"436 83 OFFCURVE",
"517 204 OFFCURVE",
"500 407 CURVE SMOOTH",
"490 530 LINE SMOOTH",
"486 579 OFFCURVE",
"490 620 OFFCURVE",
"402 620 CURVE SMOOTH"
);
},
{
closed = 1;
nodes = (
"192 620 LINE",
"188 690 LINE SMOOTH",
"185 738 OFFCURVE",
"191 779 OFFCURVE",
"103 779 CURVE SMOOTH",
"14 779 OFFCURVE",
"9 739 OFFCURVE",
"11 691 CURVE SMOOTH",
"19 531 LINE SMOOTH",
"22 465 OFFCURVE",
"38 442 OFFCURVE",
"112 442 CURVE SMOOTH",
"403 442 LINE",
"402 620 LINE"
);
}
);
width = 526;
}
);
unicode = 05DC;
},
{
glyphname = "finalmem-hb";
lastChange = "2015-09-06 10:46:23 +0000";
layers = (
{
layerId = "05A6575B-AA27-4212-BC78-A0BDA398BBDE";
name = Bold;
paths = (
{
closed = 1;
nodes = (
"532 178 LINE",
"125 178 LINE",
"124 0 LINE",
"533 0 LINE"
);
},
{
closed = 1;
nodes = (
"621 0 OFFCURVE",
"621 41 OFFCURVE",
"621 90 CURVE SMOOTH",
"621 308 LINE SMOOTH",
"621 476 OFFCURVE",
"529 632 OFFCURVE",
"316 632 CURVE",
"135 632 LINE",
"65 632 OFFCURVE",
"35 606 OFFCURVE",
"35 536 CURVE",
"35 89 LINE SMOOTH",
"35 40 OFFCURVE",
"35 0 OFFCURVE",
"124 0 CURVE SMOOTH",
"212 0 OFFCURVE",
"213 40 OFFCURVE",
"213 90 CURVE SMOOTH",
"213 454 LINE",
"319 454 LINE",
"425 454 OFFCURVE",
"444 386 OFFCURVE",
"444 305 CURVE SMOOTH",
"444 83 LINE SMOOTH",
"444 37 OFFCURVE",
"446 0 OFFCURVE",
"533 0 CURVE SMOOTH"
);
}
);
width = 657;
}
);
unicode = 05DD;
},
{
glyphname = "mem-hb";
lastChange = "2015-09-06 22:59:05 +0000";
layers = (
{
layerId = "05A6575B-AA27-4212-BC78-A0BDA398BBDE";
name = Bold;
paths = (
{
closed = 1;
nodes = (
"661 0 OFFCURVE",
"661 41 OFFCURVE",
"661 90 CURVE SMOOTH",
"661 268 LINE SMOOTH",
"661 491 OFFCURVE",
"582 622 OFFCURVE",
"431 622 CURVE SMOOTH",
"192 622 OFFCURVE",
"248 428 OFFCURVE",
"170 276 CURVE",
"95 355 LINE",
"49 89 LINE SMOOTH",
"40 38 OFFCURVE",
"47 0 OFFCURVE",
"136 0 CURVE SMOOTH",
"224 0 OFFCURVE",
"218 40 OFFCURVE",
"227 90 CURVE SMOOTH",
"258 266 LINE SMOOTH",
"270 338 OFFCURVE",
"281 444 OFFCURVE",
"392 444 CURVE SMOOTH",
"462 444 OFFCURVE",
"484 378 OFFCURVE",
"484 265 CURVE SMOOTH",
"484 83 LINE SMOOTH",
"484 37 OFFCURVE",
"486 0 OFFCURVE",
"573 0 CURVE SMOOTH"
);
},
{
closed = 1;
nodes = (
"622 0 OFFCURVE",
"662 0 OFFCURVE",
"662 89 CURVE SMOOTH",
"662 177 OFFCURVE",
"622 178 OFFCURVE",
"572 178 CURVE SMOOTH",
"397 178 LINE SMOOTH",
"347 178 OFFCURVE",
"307 177 OFFCURVE",
"307 89 CURVE SMOOTH",
"307 0 OFFCURVE",
"347 0 OFFCURVE",
"396 0 CURVE SMOOTH",
"573 0 LINE SMOOTH"
);
},
{
closed = 1;
nodes = (
"224 395 LINE",
"215 425 OFFCURVE",
"210 462 OFFCURVE",
"210 506 CURVE",
"210 525 LINE",
"210 575 OFFCURVE",
"209 615 OFFCURVE",
"121 615 CURVE SMOOTH",
"32 615 OFFCURVE",
"32 575 OFFCURVE",
"32 526 CURVE",
"32 509 LINE",
"32 349 OFFCURVE",
"115 285 OFFCURVE",
"198 263 CURVE"
);
}
);
width = 707;
}
);
unicode = 05DE;
},
{
glyphname = "finalnun-hb";
lastChange = "2015-09-01 12:40:55 +0000";
layers = (
{
layerId = "05A6575B-AA27-4212-BC78-A0BDA398BBDE";
name = Bold;
paths = (
{
closed = 1;
nodes = (
"40 -61 LINE SMOOTH",
"40 -109 OFFCURVE",
"40 -150 OFFCURVE",
"128 -150 CURVE SMOOTH",
"217 -150 OFFCURVE",
"217 -110 OFFCURVE",
"217 -62 CURVE SMOOTH",
"217 521 LINE SMOOTH",
"217 569 OFFCURVE",
"217 610 OFFCURVE",
"129 610 CURVE SMOOTH",
"40 610 OFFCURVE",
"40 570 OFFCURVE",
"40 522 CURVE SMOOTH"
);
}
);
width = 257;
}
);
unicode = 05DF;
},
{
glyphname = "nun-hb";
lastChange = "2015-09-06 12:30:08 +0000";
layers = (
{
layerId = "05A6575B-AA27-4212-BC78-A0BDA398BBDE";
name = Bold;
paths = (
{
closed = 1;
nodes = (
"114 178 LINE SMOOTH",
"65 178 OFFCURVE",
"25 178 OFFCURVE",
"25 89 CURVE SMOOTH",
"25 1 OFFCURVE",
"65 0 OFFCURVE",
"115 0 CURVE SMOOTH",
"332 0 LINE",
"333 178 LINE"
);
},
{
closed = 1;
nodes = (
"420 0 OFFCURVE",
"420 41 OFFCURVE",
"420 90 CURVE SMOOTH",
"420 296 LINE SMOOTH",
"420 500 OFFCURVE",
"330 620 OFFCURVE",
"145 620 CURVE",
"134 620 LINE",
"85 620 OFFCURVE",
"45 620 OFFCURVE",
"45 531 CURVE SMOOTH",
"45 443 OFFCURVE",
"85 442 OFFCURVE",
"135 442 CURVE",
"148 442 LINE",
"220 442 OFFCURVE",
"243 387 OFFCURVE",
"243 293 CURVE SMOOTH",
"243 83 LINE SMOOTH",
"243 37 OFFCURVE",
"245 0 OFFCURVE",
"332 0 CURVE SMOOTH"
);
}
);
width = 460;
}
);
unicode = 05E0;
},
{
glyphname = "samekh-hb";
lastChange = "2015-09-01 14:28:33 +0000";
layers = (
{
layerId = "05A6575B-AA27-4212-BC78-A0BDA398BBDE";
name = Bold;
paths = (
{
closed = 1;
nodes = (
"159 633 OFFCURVE",
"36 502 OFFCURVE",
"36 304 CURVE SMOOTH",
"36 111 OFFCURVE",
"162 -18 OFFCURVE",
"353 -18 CURVE SMOOTH",
"538 -18 OFFCURVE",
"661 112 OFFCURVE",
"661 307 CURVE SMOOTH",
"661 503 OFFCURVE",
"535 633 OFFCURVE",
"345 633 CURVE SMOOTH"
);
},
{
closed = 1;
nodes = (
"263 154 OFFCURVE",
"207 215 OFFCURVE",
"207 307 CURVE SMOOTH",
"207 401 OFFCURVE",
"263 463 OFFCURVE",
"349 463 CURVE SMOOTH",
"434 463 OFFCURVE",
"490 400 OFFCURVE",
"490 308 CURVE SMOOTH",
"490 215 OFFCURVE",
"434 154 OFFCURVE",
"348 154 CURVE SMOOTH"
);
}
);
width = 697;
}
);
unicode = 05E1;
},
